%TF.GenerationSoftware,KiCad,Pcbnew,9.0.6*%
%TF.CreationDate,2025-11-23T23:00:39-05:00*%
%TF.ProjectId,Charge_Indicator,43686172-6765-45f4-996e-64696361746f,rev?*%
%TF.SameCoordinates,Original*%
%TF.FileFunction,Paste,Top*%
%TF.FilePolarity,Positive*%
%FSLAX46Y46*%
G04 Gerber Fmt 4.6, Leading zero omitted, Abs format (unit mm)*
G04 Created by KiCad (PCBNEW 9.0.6) date 2025-11-23 23:00:39*
%MOMM*%
%LPD*%
G01*
G04 APERTURE LIST*
%ADD10R,1.020000X3.120000*%
%ADD11R,0.950000X0.850000*%
%ADD12R,0.900000X1.650000*%
%ADD13R,0.500000X0.750000*%
%ADD14R,0.950000X2.650000*%
%ADD15R,0.850000X0.950000*%
%ADD16R,1.300000X0.850000*%
%ADD17R,0.600000X0.850000*%
%ADD18R,1.000000X0.600000*%
%ADD19R,1.000000X1.200000*%
%ADD20R,1.500000X0.700000*%
%ADD21R,0.800000X1.000000*%
%ADD22R,3.450000X1.400000*%
%ADD23R,1.750000X0.950000*%
%ADD24R,0.700000X1.550000*%
%ADD25C,0.492000*%
%ADD26R,0.900000X0.800000*%
%ADD27O,1.450000X0.600000*%
%ADD28R,0.950000X1.750000*%
%ADD29R,1.400000X0.850000*%
%ADD30R,0.250000X0.250000*%
%ADD31R,1.900000X6.350000*%
%ADD32O,0.300000X1.350000*%
%ADD33R,0.850000X1.400000*%
%ADD34O,1.400000X0.400000*%
%ADD35R,0.750000X0.500000*%
G04 APERTURE END LIST*
D10*
%TO.C,J4*%
X137230000Y-94190000D03*
X137230000Y-88810000D03*
X139770000Y-94190000D03*
X139770000Y-88810000D03*
%TD*%
D11*
%TO.C,C14*%
X151750000Y-91050000D03*
X151750000Y-89450000D03*
%TD*%
D12*
%TO.C,R4*%
X178775000Y-87133930D03*
X175725000Y-87133930D03*
%TD*%
D13*
%TO.C,R21*%
X145775000Y-91000000D03*
X147225000Y-91000000D03*
%TD*%
D14*
%TO.C,C1*%
X171950000Y-81000000D03*
X175050000Y-81000000D03*
%TD*%
D15*
%TO.C,C12*%
X148200000Y-90750000D03*
X149800000Y-90750000D03*
%TD*%
D16*
%TO.C,D4*%
X152250000Y-73375000D03*
X152250000Y-75125000D03*
%TD*%
D17*
%TO.C,U5*%
X140950000Y-80179999D03*
X140000000Y-80179999D03*
X139050000Y-80179999D03*
X139050000Y-82429999D03*
X140950000Y-82429999D03*
%TD*%
D13*
%TO.C,R6*%
X145525000Y-103000000D03*
X146975000Y-103000000D03*
%TD*%
D18*
%TO.C,U2*%
X173750000Y-101250000D03*
X173750000Y-100300000D03*
X173750000Y-99350000D03*
X171050000Y-99350000D03*
X171050000Y-100300000D03*
X171050000Y-101250000D03*
%TD*%
D19*
%TO.C,D9*%
X150750000Y-93400000D03*
X150750000Y-97100000D03*
%TD*%
D20*
%TO.C,SW1*%
X134250000Y-105750070D03*
X134250000Y-108750060D03*
X134250000Y-110249930D03*
D21*
X133600000Y-104350020D03*
X131400000Y-104350020D03*
X133600000Y-111649980D03*
X131400000Y-111649980D03*
%TD*%
D13*
%TO.C,R11*%
X154975000Y-94250000D03*
X153525000Y-94250000D03*
%TD*%
%TO.C,R17*%
X135775000Y-111750000D03*
X137225000Y-111750000D03*
%TD*%
%TO.C,R13*%
X149775000Y-80750000D03*
X151225000Y-80750000D03*
%TD*%
D22*
%TO.C,R26*%
X160500000Y-71500000D03*
X160500000Y-65500000D03*
%TD*%
D19*
%TO.C,D7*%
X144250000Y-93400000D03*
X144250000Y-97100000D03*
%TD*%
D23*
%TO.C,C7*%
X143000000Y-83700000D03*
X143000000Y-86800000D03*
%TD*%
D24*
%TO.C,R18*%
X156075000Y-90250000D03*
X158925000Y-90250000D03*
%TD*%
D11*
%TO.C,C10*%
X173750000Y-89450000D03*
X173750000Y-91050000D03*
%TD*%
D25*
%TO.C,TP2*%
X132500000Y-79500000D03*
%TD*%
D13*
%TO.C,R2*%
X173525000Y-112250000D03*
X174975000Y-112250000D03*
%TD*%
%TO.C,R12*%
X149775000Y-78750000D03*
X151225000Y-78750000D03*
%TD*%
%TO.C,R25*%
X154950000Y-91750000D03*
X153500000Y-91750000D03*
%TD*%
D14*
%TO.C,C3*%
X137200000Y-75750000D03*
X140300000Y-75750000D03*
%TD*%
D26*
%TO.C,D1*%
X177000000Y-81085000D03*
X177000000Y-82915000D03*
X179000000Y-82000000D03*
%TD*%
D27*
%TO.C,U4*%
X153525000Y-78690000D03*
X153525000Y-79960000D03*
X153525000Y-81230000D03*
X153525000Y-82500000D03*
X153525000Y-83770000D03*
X153525000Y-85040000D03*
X153525000Y-86310000D03*
X158975000Y-86310000D03*
X158975000Y-85040000D03*
X158975000Y-83770000D03*
X158975000Y-82500000D03*
X158975000Y-81230000D03*
X158975000Y-79960000D03*
X158975000Y-78690000D03*
%TD*%
D11*
%TO.C,C8*%
X161000000Y-85000000D03*
X161000000Y-86600000D03*
%TD*%
D25*
%TO.C,TP1*%
X142000000Y-79500000D03*
%TD*%
D13*
%TO.C,R5*%
X145525000Y-104000000D03*
X146975000Y-104000000D03*
%TD*%
D28*
%TO.C,C6*%
X140300000Y-73000000D03*
X137200000Y-73000000D03*
%TD*%
D29*
%TO.C,C2*%
X173695000Y-104182500D03*
X173695000Y-106182500D03*
%TD*%
D15*
%TO.C,C5*%
X179700000Y-92750000D03*
X181300000Y-92750000D03*
%TD*%
D13*
%TO.C,R24*%
X158225000Y-91750000D03*
X156775000Y-91750000D03*
%TD*%
%TO.C,R15*%
X149775000Y-84750000D03*
X151225000Y-84750000D03*
%TD*%
%TO.C,R8*%
X158225000Y-96750000D03*
X156775000Y-96750000D03*
%TD*%
D15*
%TO.C,C9*%
X169450000Y-85750000D03*
X171050000Y-85750000D03*
%TD*%
D16*
%TO.C,D3*%
X146250000Y-73375000D03*
X146250000Y-75125000D03*
%TD*%
D13*
%TO.C,R7*%
X139975000Y-101000000D03*
X138525000Y-101000000D03*
%TD*%
D30*
%TO.C,R22*%
X135500000Y-81700000D03*
X135500000Y-82300000D03*
%TD*%
D31*
%TO.C,L2*%
X167950000Y-107250000D03*
X152050000Y-107250000D03*
%TD*%
D16*
%TO.C,D6*%
X150250000Y-73375000D03*
X150250000Y-75125000D03*
%TD*%
D32*
%TO.C,U3*%
X176500000Y-97475000D03*
X177000000Y-97475000D03*
X177500000Y-97475000D03*
X178000000Y-97475000D03*
X178500000Y-97475000D03*
X178500000Y-93025000D03*
X178000000Y-93025000D03*
X177500000Y-93025000D03*
X177000000Y-93025000D03*
X176500000Y-93025000D03*
%TD*%
D33*
%TO.C,C4*%
X171750000Y-109500000D03*
X173750000Y-109500000D03*
%TD*%
D30*
%TO.C,R23*%
X141250000Y-83800000D03*
X141250000Y-83200000D03*
%TD*%
D13*
%TO.C,R20*%
X145775000Y-89500000D03*
X147225000Y-89500000D03*
%TD*%
%TO.C,R10*%
X154975000Y-96750000D03*
X153525000Y-96750000D03*
%TD*%
D15*
%TO.C,C11*%
X140300000Y-111750000D03*
X138700000Y-111750000D03*
%TD*%
D13*
%TO.C,R14*%
X149775000Y-82750000D03*
X151225000Y-82750000D03*
%TD*%
D16*
%TO.C,D5*%
X154250000Y-73375000D03*
X154250000Y-75125000D03*
%TD*%
%TO.C,D2*%
X148250000Y-73375000D03*
X148250000Y-75125000D03*
%TD*%
D34*
%TO.C,U1*%
X168200000Y-92950000D03*
X168200000Y-92300000D03*
X168200000Y-91650000D03*
X168200000Y-91000000D03*
X168200000Y-90350000D03*
X168200000Y-89700000D03*
X168200000Y-89050000D03*
X162300000Y-89050000D03*
X162300000Y-89700000D03*
X162300000Y-90350000D03*
X162300000Y-91000000D03*
X162300000Y-91650000D03*
X162300000Y-92300000D03*
X162300000Y-92950000D03*
%TD*%
D13*
%TO.C,R1*%
X170525000Y-112250000D03*
X171975000Y-112250000D03*
%TD*%
D19*
%TO.C,D8*%
X147500000Y-93400000D03*
X147500000Y-97100000D03*
%TD*%
D13*
%TO.C,R16*%
X149775000Y-86750000D03*
X151225000Y-86750000D03*
%TD*%
D10*
%TO.C,J1*%
X131960000Y-94190000D03*
X131960000Y-88810000D03*
X134500000Y-94190000D03*
X134500000Y-88810000D03*
%TD*%
D35*
%TO.C,R3*%
X173750000Y-97725000D03*
X173750000Y-96275000D03*
%TD*%
D15*
%TO.C,C13*%
X148200000Y-89250000D03*
X149800000Y-89250000D03*
%TD*%
D13*
%TO.C,R9*%
X158225000Y-94250000D03*
X156775000Y-94250000D03*
%TD*%
M02*
