%TF.GenerationSoftware,KiCad,Pcbnew,9.0.6*%
%TF.CreationDate,2025-11-23T20:27:00-05:00*%
%TF.ProjectId,Charge_Indicator,43686172-6765-45f4-996e-64696361746f,rev?*%
%TF.SameCoordinates,Original*%
%TF.FileFunction,Copper,L2,Bot*%
%TF.FilePolarity,Positive*%
%FSLAX46Y46*%
G04 Gerber Fmt 4.6, Leading zero omitted, Abs format (unit mm)*
G04 Created by KiCad (PCBNEW 9.0.6) date 2025-11-23 20:27:00*
%MOMM*%
%LPD*%
G01*
G04 APERTURE LIST*
%TA.AperFunction,ComponentPad*%
%ADD10C,0.001000*%
%TD*%
%TA.AperFunction,ComponentPad*%
%ADD11C,6.300000*%
%TD*%
%TA.AperFunction,WasherPad*%
%ADD12R,0.001000X0.001000*%
%TD*%
%TA.AperFunction,ComponentPad*%
%ADD13C,3.048000*%
%TD*%
%TA.AperFunction,ViaPad*%
%ADD14C,0.600000*%
%TD*%
%TA.AperFunction,Conductor*%
%ADD15C,0.200000*%
%TD*%
%TA.AperFunction,Conductor*%
%ADD16C,2.000000*%
%TD*%
%TA.AperFunction,Conductor*%
%ADD17C,1.000000*%
%TD*%
G04 APERTURE END LIST*
D10*
%TO.P,M1,1,1*%
%TO.N,AGND*%
X187025000Y-66000000D03*
X187213000Y-65053000D03*
X187213400Y-66947100D03*
X187750000Y-64250000D03*
X187750000Y-67750000D03*
X188552900Y-63713400D03*
X188553000Y-68287000D03*
X189500000Y-63525000D03*
D11*
X189500000Y-66000000D03*
D10*
X189500000Y-68475000D03*
X190447000Y-63713000D03*
X190447100Y-68286600D03*
X191250000Y-64250000D03*
X191250000Y-67750000D03*
X191786600Y-65052900D03*
X191787000Y-66947000D03*
X191975000Y-66000000D03*
%TD*%
D12*
%TO.P,SW1,*%
%TO.N,*%
X132500000Y-106500000D03*
X132500000Y-109500000D03*
%TD*%
D10*
%TO.P,M3,1,1*%
%TO.N,AGND*%
X133025000Y-120000000D03*
X133213000Y-119053000D03*
X133213400Y-120947100D03*
X133750000Y-118250000D03*
X133750000Y-121750000D03*
X134552900Y-117713400D03*
X134553000Y-122287000D03*
X135500000Y-117525000D03*
D11*
X135500000Y-120000000D03*
D10*
X135500000Y-122475000D03*
X136447000Y-117713000D03*
X136447100Y-122286600D03*
X137250000Y-118250000D03*
X137250000Y-121750000D03*
X137786600Y-119052900D03*
X137787000Y-120947000D03*
X137975000Y-120000000D03*
%TD*%
%TO.P,M4,1,1*%
%TO.N,AGND*%
X141025000Y-65000000D03*
X141213000Y-64053000D03*
X141213400Y-65947100D03*
X141750000Y-63250000D03*
X141750000Y-66750000D03*
X142552900Y-62713400D03*
X142553000Y-67287000D03*
X143500000Y-62525000D03*
D11*
X143500000Y-65000000D03*
D10*
X143500000Y-67475000D03*
X144447000Y-62713000D03*
X144447100Y-67286600D03*
X145250000Y-63250000D03*
X145250000Y-66750000D03*
X145786600Y-64052900D03*
X145787000Y-65947000D03*
X145975000Y-65000000D03*
%TD*%
%TO.P,M2,1,1*%
%TO.N,AGND*%
X188025000Y-112000000D03*
X188213000Y-111053000D03*
X188213400Y-112947100D03*
X188750000Y-110250000D03*
X188750000Y-113750000D03*
X189552900Y-109713400D03*
X189553000Y-114287000D03*
X190500000Y-109525000D03*
D11*
X190500000Y-112000000D03*
D10*
X190500000Y-114475000D03*
X191447000Y-109713000D03*
X191447100Y-114286600D03*
X192250000Y-110250000D03*
X192250000Y-113750000D03*
X192786600Y-111052900D03*
X192787000Y-112947000D03*
X192975000Y-112000000D03*
%TD*%
D13*
%TO.P,J3,1,1*%
%TO.N,Net-(D1-K)*%
X181500000Y-66500000D03*
%TO.P,J3,2,2*%
%TO.N,/BAT-*%
X176420000Y-66500000D03*
%TD*%
%TO.P,J2,1,1*%
%TO.N,AGND*%
X171000000Y-66500000D03*
%TO.P,J2,2,2*%
%TO.N,/BAT+*%
X165920000Y-66500000D03*
%TD*%
D14*
%TO.N,+3v3*%
X138750000Y-86500000D03*
X144250000Y-103000000D03*
X141250000Y-84500000D03*
X179700000Y-92750000D03*
X140400000Y-102000000D03*
%TO.N,AGND*%
X138750000Y-96250000D03*
X142250000Y-94250000D03*
X133250000Y-94250000D03*
X174500000Y-92500000D03*
X163750000Y-89250000D03*
X138500000Y-94250000D03*
X141250000Y-112250000D03*
X167750000Y-86000000D03*
%TO.N,/SDA*%
X152250000Y-98000000D03*
X148375000Y-101875000D03*
X148000000Y-114250000D03*
%TO.N,/SCL*%
X147400000Y-111750000D03*
X147400000Y-104250000D03*
X152250000Y-95500000D03*
%TO.N,/BAT-*%
X160500000Y-71500000D03*
X145000000Y-91500000D03*
%TO.N,Net-(U1-REG25)*%
X138250000Y-106750000D03*
X154750000Y-88901000D03*
X167250000Y-87250000D03*
%TO.N,/HDQ*%
X144000000Y-91750000D03*
X138500000Y-93250000D03*
%TO.N,Net-(U1-VEN)*%
X166750000Y-94500000D03*
X139249930Y-105750070D03*
X164750000Y-94500000D03*
X143000000Y-102600000D03*
%TO.N,/P1*%
X155750000Y-84500000D03*
X165000265Y-88249735D03*
%TO.N,/P2*%
X160000000Y-86040000D03*
X163750000Y-87750000D03*
%TD*%
D15*
%TO.N,+3v3*%
X138750000Y-86500000D02*
X140000000Y-86500000D01*
X141250000Y-85250000D02*
X141250000Y-84500000D01*
X140000000Y-86500000D02*
X141250000Y-85250000D01*
X144250000Y-111349943D02*
X144250000Y-103000000D01*
X140400000Y-102000000D02*
X143250000Y-102000000D01*
X148900057Y-116000000D02*
X144250000Y-111349943D01*
X179450000Y-112300000D02*
X175750000Y-116000000D01*
X179700000Y-92750000D02*
X179450000Y-93000000D01*
X175750000Y-116000000D02*
X148900057Y-116000000D01*
X143250000Y-102000000D02*
X144250000Y-103000000D01*
X179450000Y-93000000D02*
X179450000Y-112300000D01*
%TO.N,AGND*%
X142250000Y-94250000D02*
X138500000Y-94250000D01*
X138500000Y-94250000D02*
X133250000Y-94250000D01*
%TO.N,/SDA*%
X148000000Y-102250000D02*
X148000000Y-114250000D01*
X148375000Y-101875000D02*
X148000000Y-102250000D01*
X152250000Y-98000000D02*
X148375000Y-101875000D01*
%TO.N,/SCL*%
X152250000Y-95500000D02*
X147500000Y-100250000D01*
X147500000Y-100250000D02*
X147500000Y-111750000D01*
X147500000Y-111750000D02*
X147400000Y-111750000D01*
D16*
%TO.N,/BAT-*%
X176420000Y-72000000D02*
X161000000Y-72000000D01*
X176420000Y-66500000D02*
X176420000Y-72000000D01*
X176420000Y-78580000D02*
X171750000Y-83250000D01*
D17*
X145257521Y-90250000D02*
X146000000Y-90250000D01*
X145000000Y-91500000D02*
X145000000Y-90507521D01*
D16*
X176420000Y-72000000D02*
X176420000Y-78580000D01*
D17*
X146000000Y-90250000D02*
X153000000Y-83250000D01*
X153000000Y-83250000D02*
X171750000Y-83250000D01*
X145000000Y-90507521D02*
X145257521Y-90250000D01*
D16*
X161000000Y-72000000D02*
X160500000Y-71500000D01*
D15*
%TO.N,Net-(U1-REG25)*%
X138250000Y-101150057D02*
X150499057Y-88901000D01*
X154750000Y-88901000D02*
X156099000Y-90250000D01*
X150499057Y-88901000D02*
X154750000Y-88901000D01*
X156099000Y-90250000D02*
X164250000Y-90250000D01*
X138250000Y-106750000D02*
X138250000Y-101150057D01*
X164250000Y-90250000D02*
X167250000Y-87250000D01*
%TO.N,/HDQ*%
X139018181Y-92751000D02*
X138999000Y-92751000D01*
X144000000Y-91750000D02*
X140019181Y-91750000D01*
X138999000Y-92751000D02*
X138500000Y-93250000D01*
X140019181Y-91750000D02*
X139018181Y-92751000D01*
%TO.N,Net-(U1-VEN)*%
X142400000Y-102600000D02*
X139249930Y-105750070D01*
X166750000Y-94500000D02*
X164750000Y-94500000D01*
X143000000Y-102600000D02*
X142400000Y-102600000D01*
%TO.N,/P1*%
X155750000Y-85750000D02*
X155750000Y-84500000D01*
X165000265Y-88249735D02*
X164750000Y-88500000D01*
X158500000Y-88500000D02*
X155750000Y-85750000D01*
X164750000Y-88500000D02*
X158500000Y-88500000D01*
%TO.N,/P2*%
X162040000Y-86040000D02*
X160000000Y-86040000D01*
X163750000Y-87750000D02*
X162040000Y-86040000D01*
%TD*%
%TA.AperFunction,Conductor*%
%TO.N,AGND*%
G36*
X135750000Y-122308011D02*
G01*
X135740060Y-122290795D01*
X135684205Y-122234940D01*
X135615796Y-122195444D01*
X135539496Y-122175000D01*
X135460504Y-122175000D01*
X135384204Y-122195444D01*
X135315795Y-122234940D01*
X135259940Y-122290795D01*
X135250000Y-122308011D01*
X135250000Y-121782618D01*
X135382022Y-121800000D01*
X135617978Y-121800000D01*
X135750000Y-121782618D01*
X135750000Y-122308011D01*
G37*
%TD.AperFunction*%
%TA.AperFunction,Conductor*%
G36*
X133700000Y-119882022D02*
G01*
X133700000Y-120117978D01*
X133717381Y-120250000D01*
X133191988Y-120250000D01*
X133209205Y-120240060D01*
X133265060Y-120184205D01*
X133304556Y-120115796D01*
X133325000Y-120039496D01*
X133325000Y-119960504D01*
X133304556Y-119884204D01*
X133265060Y-119815795D01*
X133209205Y-119759940D01*
X133191988Y-119750000D01*
X133717381Y-119750000D01*
X133700000Y-119882022D01*
G37*
%TD.AperFunction*%
%TA.AperFunction,Conductor*%
G36*
X137790795Y-119759940D02*
G01*
X137734940Y-119815795D01*
X137695444Y-119884204D01*
X137675000Y-119960504D01*
X137675000Y-120039496D01*
X137695444Y-120115796D01*
X137734940Y-120184205D01*
X137790795Y-120240060D01*
X137808012Y-120250000D01*
X137282619Y-120250000D01*
X137300000Y-120117978D01*
X137300000Y-119882022D01*
X137282619Y-119750000D01*
X137808012Y-119750000D01*
X137790795Y-119759940D01*
G37*
%TD.AperFunction*%
%TA.AperFunction,Conductor*%
G36*
X135750000Y-118217381D02*
G01*
X135617978Y-118200000D01*
X135382022Y-118200000D01*
X135250000Y-118217381D01*
X135250000Y-117691988D01*
X135259940Y-117709205D01*
X135315795Y-117765060D01*
X135384204Y-117804556D01*
X135460504Y-117825000D01*
X135539496Y-117825000D01*
X135615796Y-117804556D01*
X135684205Y-117765060D01*
X135740060Y-117709205D01*
X135750000Y-117691988D01*
X135750000Y-118217381D01*
G37*
%TD.AperFunction*%
%TA.AperFunction,Conductor*%
G36*
X189750000Y-68308011D02*
G01*
X189740060Y-68290795D01*
X189684205Y-68234940D01*
X189615796Y-68195444D01*
X189539496Y-68175000D01*
X189460504Y-68175000D01*
X189384204Y-68195444D01*
X189315795Y-68234940D01*
X189259940Y-68290795D01*
X189250000Y-68308011D01*
X189250000Y-67782618D01*
X189382022Y-67800000D01*
X189617978Y-67800000D01*
X189750000Y-67782618D01*
X189750000Y-68308011D01*
G37*
%TD.AperFunction*%
%TA.AperFunction,Conductor*%
G36*
X187700000Y-65882022D02*
G01*
X187700000Y-66117978D01*
X187717381Y-66250000D01*
X187191988Y-66250000D01*
X187209205Y-66240060D01*
X187265060Y-66184205D01*
X187304556Y-66115796D01*
X187325000Y-66039496D01*
X187325000Y-65960504D01*
X187304556Y-65884204D01*
X187265060Y-65815795D01*
X187209205Y-65759940D01*
X187191988Y-65750000D01*
X187717381Y-65750000D01*
X187700000Y-65882022D01*
G37*
%TD.AperFunction*%
%TA.AperFunction,Conductor*%
G36*
X191790795Y-65759940D02*
G01*
X191734940Y-65815795D01*
X191695444Y-65884204D01*
X191675000Y-65960504D01*
X191675000Y-66039496D01*
X191695444Y-66115796D01*
X191734940Y-66184205D01*
X191790795Y-66240060D01*
X191808012Y-66250000D01*
X191282619Y-66250000D01*
X191300000Y-66117978D01*
X191300000Y-65882022D01*
X191282619Y-65750000D01*
X191808012Y-65750000D01*
X191790795Y-65759940D01*
G37*
%TD.AperFunction*%
%TA.AperFunction,Conductor*%
G36*
X189750000Y-64217381D02*
G01*
X189617978Y-64200000D01*
X189382022Y-64200000D01*
X189250000Y-64217381D01*
X189250000Y-63691988D01*
X189259940Y-63709205D01*
X189315795Y-63765060D01*
X189384204Y-63804556D01*
X189460504Y-63825000D01*
X189539496Y-63825000D01*
X189615796Y-63804556D01*
X189684205Y-63765060D01*
X189740060Y-63709205D01*
X189750000Y-63691988D01*
X189750000Y-64217381D01*
G37*
%TD.AperFunction*%
%TA.AperFunction,Conductor*%
G36*
X193942539Y-61520185D02*
G01*
X193988294Y-61572989D01*
X193999500Y-61624500D01*
X193999500Y-110309121D01*
X193979815Y-110376160D01*
X193927011Y-110421915D01*
X193857853Y-110431859D01*
X193794297Y-110402834D01*
X193766142Y-110367574D01*
X193634491Y-110121273D01*
X193634480Y-110121255D01*
X193435248Y-109823083D01*
X193435238Y-109823069D01*
X193207728Y-109545848D01*
X192954151Y-109292271D01*
X192676930Y-109064761D01*
X192676916Y-109064751D01*
X192378744Y-108865519D01*
X192378726Y-108865508D01*
X192062465Y-108696463D01*
X192062460Y-108696461D01*
X191731136Y-108559220D01*
X191387941Y-108455114D01*
X191036218Y-108385152D01*
X191036201Y-108385149D01*
X190750001Y-108356960D01*
X190750000Y-108356961D01*
X190750000Y-109358011D01*
X190740060Y-109340795D01*
X190684205Y-109284940D01*
X190615796Y-109245444D01*
X190539496Y-109225000D01*
X190460504Y-109225000D01*
X190384204Y-109245444D01*
X190315795Y-109284940D01*
X190259940Y-109340795D01*
X190250000Y-109358011D01*
X190250000Y-108356961D01*
X190249998Y-108356960D01*
X189963798Y-108385149D01*
X189963781Y-108385152D01*
X189612058Y-108455114D01*
X189268863Y-108559220D01*
X188937539Y-108696461D01*
X188937534Y-108696463D01*
X188621273Y-108865508D01*
X188621255Y-108865519D01*
X188323083Y-109064751D01*
X188323069Y-109064761D01*
X188045848Y-109292271D01*
X187792271Y-109545848D01*
X187564761Y-109823069D01*
X187564751Y-109823083D01*
X187365519Y-110121255D01*
X187365508Y-110121273D01*
X187196463Y-110437534D01*
X187196461Y-110437539D01*
X187059220Y-110768863D01*
X186955114Y-111112058D01*
X186885150Y-111463788D01*
X186856962Y-111750000D01*
X187858012Y-111750000D01*
X187840795Y-111759940D01*
X187784940Y-111815795D01*
X187745444Y-111884204D01*
X187725000Y-111960504D01*
X187725000Y-112039496D01*
X187745444Y-112115796D01*
X187784940Y-112184205D01*
X187840795Y-112240060D01*
X187858012Y-112250000D01*
X186856962Y-112250000D01*
X186885150Y-112536211D01*
X186955114Y-112887941D01*
X187059220Y-113231136D01*
X187196461Y-113562460D01*
X187196463Y-113562465D01*
X187365508Y-113878726D01*
X187365519Y-113878744D01*
X187564751Y-114176916D01*
X187564761Y-114176930D01*
X187792271Y-114454151D01*
X188045848Y-114707728D01*
X188323069Y-114935238D01*
X188323083Y-114935248D01*
X188621255Y-115134480D01*
X188621273Y-115134491D01*
X188937534Y-115303536D01*
X188937539Y-115303538D01*
X189268863Y-115440779D01*
X189612058Y-115544885D01*
X189963789Y-115614849D01*
X189963788Y-115614849D01*
X190250000Y-115643037D01*
X190250000Y-114641988D01*
X190259940Y-114659205D01*
X190315795Y-114715060D01*
X190384204Y-114754556D01*
X190460504Y-114775000D01*
X190539496Y-114775000D01*
X190615796Y-114754556D01*
X190684205Y-114715060D01*
X190740060Y-114659205D01*
X190750000Y-114641988D01*
X190750000Y-115643036D01*
X191036211Y-115614849D01*
X191387941Y-115544885D01*
X191731136Y-115440779D01*
X192062458Y-115303539D01*
X192240795Y-115208216D01*
X192309198Y-115193974D01*
X192374442Y-115218974D01*
X192415813Y-115275279D01*
X192420175Y-115345012D01*
X192386930Y-115405255D01*
X183329005Y-124463181D01*
X183267682Y-124496666D01*
X183241324Y-124499500D01*
X131124500Y-124499500D01*
X131057461Y-124479815D01*
X131011706Y-124427011D01*
X131000500Y-124375500D01*
X131000500Y-119750000D01*
X131856962Y-119750000D01*
X132858012Y-119750000D01*
X132840795Y-119759940D01*
X132784940Y-119815795D01*
X132745444Y-119884204D01*
X132725000Y-119960504D01*
X132725000Y-120039496D01*
X132745444Y-120115796D01*
X132784940Y-120184205D01*
X132840795Y-120240060D01*
X132858012Y-120250000D01*
X131856962Y-120250000D01*
X131885150Y-120536211D01*
X131955114Y-120887941D01*
X132059220Y-121231136D01*
X132196461Y-121562460D01*
X132196463Y-121562465D01*
X132365508Y-121878726D01*
X132365519Y-121878744D01*
X132564751Y-122176916D01*
X132564761Y-122176930D01*
X132792271Y-122454151D01*
X133045848Y-122707728D01*
X133323069Y-122935238D01*
X133323083Y-122935248D01*
X133621255Y-123134480D01*
X133621273Y-123134491D01*
X133937534Y-123303536D01*
X133937539Y-123303538D01*
X134268863Y-123440779D01*
X134612058Y-123544885D01*
X134963789Y-123614849D01*
X134963788Y-123614849D01*
X135250000Y-123643037D01*
X135250000Y-122641988D01*
X135259940Y-122659205D01*
X135315795Y-122715060D01*
X135384204Y-122754556D01*
X135460504Y-122775000D01*
X135539496Y-122775000D01*
X135615796Y-122754556D01*
X135684205Y-122715060D01*
X135740060Y-122659205D01*
X135750000Y-122641988D01*
X135750000Y-123643036D01*
X136036211Y-123614849D01*
X136387941Y-123544885D01*
X136731136Y-123440779D01*
X137062460Y-123303538D01*
X137062465Y-123303536D01*
X137378726Y-123134491D01*
X137378744Y-123134480D01*
X137676916Y-122935248D01*
X137676930Y-122935238D01*
X137954151Y-122707728D01*
X138207728Y-122454151D01*
X138435238Y-122176930D01*
X138435248Y-122176916D01*
X138634480Y-121878744D01*
X138634491Y-121878726D01*
X138803536Y-121562465D01*
X138803538Y-121562460D01*
X138940779Y-121231136D01*
X139044885Y-120887941D01*
X139114849Y-120536211D01*
X139143038Y-120250000D01*
X138141988Y-120250000D01*
X138159205Y-120240060D01*
X138215060Y-120184205D01*
X138254556Y-120115796D01*
X138275000Y-120039496D01*
X138275000Y-119960504D01*
X138254556Y-119884204D01*
X138215060Y-119815795D01*
X138159205Y-119759940D01*
X138141988Y-119750000D01*
X139143037Y-119750000D01*
X139114849Y-119463788D01*
X139044885Y-119112058D01*
X138940779Y-118768863D01*
X138803538Y-118437539D01*
X138803536Y-118437534D01*
X138634491Y-118121273D01*
X138634480Y-118121255D01*
X138435248Y-117823083D01*
X138435238Y-117823069D01*
X138207728Y-117545848D01*
X137954151Y-117292271D01*
X137676930Y-117064761D01*
X137676916Y-117064751D01*
X137378744Y-116865519D01*
X137378726Y-116865508D01*
X137062465Y-116696463D01*
X137062460Y-116696461D01*
X136731136Y-116559220D01*
X136387941Y-116455114D01*
X136036218Y-116385152D01*
X136036201Y-116385149D01*
X135750001Y-116356960D01*
X135750000Y-116356961D01*
X135750000Y-117358011D01*
X135740060Y-117340795D01*
X135684205Y-117284940D01*
X135615796Y-117245444D01*
X135539496Y-117225000D01*
X135460504Y-117225000D01*
X135384204Y-117245444D01*
X135315795Y-117284940D01*
X135259940Y-117340795D01*
X135250000Y-117358011D01*
X135250000Y-116356961D01*
X135249998Y-116356960D01*
X134963798Y-116385149D01*
X134963781Y-116385152D01*
X134612058Y-116455114D01*
X134268863Y-116559220D01*
X133937539Y-116696461D01*
X133937534Y-116696463D01*
X133621273Y-116865508D01*
X133621255Y-116865519D01*
X133323083Y-117064751D01*
X133323069Y-117064761D01*
X133045848Y-117292271D01*
X132792271Y-117545848D01*
X132564761Y-117823069D01*
X132564751Y-117823083D01*
X132365519Y-118121255D01*
X132365508Y-118121273D01*
X132196463Y-118437534D01*
X132196461Y-118437539D01*
X132059220Y-118768863D01*
X131955114Y-119112058D01*
X131885150Y-119463788D01*
X131856962Y-119750000D01*
X131000500Y-119750000D01*
X131000500Y-109568995D01*
X131799499Y-109568995D01*
X131826418Y-109704322D01*
X131826421Y-109704332D01*
X131879221Y-109831804D01*
X131879228Y-109831817D01*
X131955885Y-109946541D01*
X131955888Y-109946545D01*
X132053454Y-110044111D01*
X132053458Y-110044114D01*
X132168182Y-110120771D01*
X132168195Y-110120778D01*
X132295667Y-110173578D01*
X132295672Y-110173580D01*
X132295676Y-110173580D01*
X132295677Y-110173581D01*
X132431004Y-110200500D01*
X132431007Y-110200500D01*
X132568995Y-110200500D01*
X132660041Y-110182389D01*
X132704328Y-110173580D01*
X132831811Y-110120775D01*
X132946542Y-110044114D01*
X133044114Y-109946542D01*
X133120775Y-109831811D01*
X133173580Y-109704328D01*
X133194809Y-109597604D01*
X133200500Y-109568995D01*
X133200500Y-109431004D01*
X133173581Y-109295677D01*
X133173580Y-109295676D01*
X133173580Y-109295672D01*
X133144307Y-109225000D01*
X133120778Y-109168195D01*
X133120771Y-109168182D01*
X133044114Y-109053458D01*
X133044111Y-109053454D01*
X132946545Y-108955888D01*
X132946541Y-108955885D01*
X132831817Y-108879228D01*
X132831804Y-108879221D01*
X132704332Y-108826421D01*
X132704322Y-108826418D01*
X132568995Y-108799500D01*
X132568993Y-108799500D01*
X132431007Y-108799500D01*
X132431005Y-108799500D01*
X132295677Y-108826418D01*
X132295667Y-108826421D01*
X132168195Y-108879221D01*
X132168182Y-108879228D01*
X132053458Y-108955885D01*
X132053454Y-108955888D01*
X131955888Y-109053454D01*
X131955885Y-109053458D01*
X131879228Y-109168182D01*
X131879221Y-109168195D01*
X131826421Y-109295667D01*
X131826418Y-109295677D01*
X131799500Y-109431004D01*
X131799500Y-109431007D01*
X131799500Y-109568993D01*
X131799500Y-109568995D01*
X131799499Y-109568995D01*
X131000500Y-109568995D01*
X131000500Y-106568995D01*
X131799499Y-106568995D01*
X131826418Y-106704322D01*
X131826421Y-106704332D01*
X131879221Y-106831804D01*
X131879228Y-106831817D01*
X131955885Y-106946541D01*
X131955888Y-106946545D01*
X132053454Y-107044111D01*
X132053458Y-107044114D01*
X132168182Y-107120771D01*
X132168195Y-107120778D01*
X132295667Y-107173578D01*
X132295672Y-107173580D01*
X132295676Y-107173580D01*
X132295677Y-107173581D01*
X132431004Y-107200500D01*
X132431007Y-107200500D01*
X132568995Y-107200500D01*
X132660041Y-107182389D01*
X132704328Y-107173580D01*
X132831811Y-107120775D01*
X132946542Y-107044114D01*
X133044114Y-106946542D01*
X133120775Y-106831811D01*
X133173580Y-106704328D01*
X133200500Y-106568993D01*
X133200500Y-106431007D01*
X133200500Y-106431004D01*
X133173581Y-106295677D01*
X133173580Y-106295676D01*
X133173580Y-106295672D01*
X133158953Y-106260358D01*
X133120778Y-106168195D01*
X133120771Y-106168182D01*
X133044114Y-106053458D01*
X133044111Y-106053454D01*
X132946545Y-105955888D01*
X132946541Y-105955885D01*
X132831817Y-105879228D01*
X132831804Y-105879221D01*
X132704332Y-105826421D01*
X132704322Y-105826418D01*
X132568995Y-105799500D01*
X132568993Y-105799500D01*
X132431007Y-105799500D01*
X132431005Y-105799500D01*
X132295677Y-105826418D01*
X132295667Y-105826421D01*
X132168195Y-105879221D01*
X132168182Y-105879228D01*
X132053458Y-105955885D01*
X132053454Y-105955888D01*
X131955888Y-106053454D01*
X131955885Y-106053458D01*
X131879228Y-106168182D01*
X131879221Y-106168195D01*
X131826421Y-106295667D01*
X131826418Y-106295677D01*
X131799500Y-106431004D01*
X131799500Y-106431007D01*
X131799500Y-106568993D01*
X131799500Y-106568995D01*
X131799499Y-106568995D01*
X131000500Y-106568995D01*
X131000500Y-91409448D01*
X132079500Y-91409448D01*
X132079500Y-91590551D01*
X132107829Y-91769410D01*
X132163787Y-91941636D01*
X132163788Y-91941639D01*
X132246006Y-92102997D01*
X132352441Y-92249494D01*
X132352445Y-92249499D01*
X132480500Y-92377554D01*
X132480505Y-92377558D01*
X132608287Y-92470396D01*
X132627006Y-92483996D01*
X132726033Y-92534453D01*
X132788360Y-92566211D01*
X132788363Y-92566212D01*
X132874476Y-92594191D01*
X132960591Y-92622171D01*
X133043429Y-92635291D01*
X133139449Y-92650500D01*
X133139454Y-92650500D01*
X133320551Y-92650500D01*
X133407259Y-92636765D01*
X133499409Y-92622171D01*
X133671639Y-92566211D01*
X133832994Y-92483996D01*
X133979501Y-92377553D01*
X134107553Y-92249501D01*
X134213996Y-92102994D01*
X134296211Y-91941639D01*
X134352171Y-91769409D01*
X134366765Y-91677259D01*
X134380500Y-91590551D01*
X134380500Y-91409448D01*
X137349500Y-91409448D01*
X137349500Y-91590551D01*
X137377829Y-91769410D01*
X137433787Y-91941636D01*
X137433788Y-91941639D01*
X137516006Y-92102997D01*
X137622441Y-92249494D01*
X137622445Y-92249499D01*
X137750500Y-92377554D01*
X137750505Y-92377558D01*
X137897003Y-92483995D01*
X137901883Y-92486481D01*
X137952680Y-92534453D01*
X137969477Y-92602274D01*
X137946942Y-92668410D01*
X137933273Y-92684648D01*
X137878210Y-92739711D01*
X137790609Y-92870814D01*
X137790602Y-92870827D01*
X137730264Y-93016498D01*
X137730261Y-93016510D01*
X137699500Y-93171153D01*
X137699500Y-93328846D01*
X137730261Y-93483489D01*
X137730264Y-93483501D01*
X137790602Y-93629172D01*
X137790609Y-93629185D01*
X137878210Y-93760288D01*
X137878213Y-93760292D01*
X137989707Y-93871786D01*
X137989711Y-93871789D01*
X138120814Y-93959390D01*
X138120827Y-93959397D01*
X138194013Y-93989711D01*
X138266503Y-94019737D01*
X138421153Y-94050499D01*
X138421156Y-94050500D01*
X138421158Y-94050500D01*
X138578844Y-94050500D01*
X138578845Y-94050499D01*
X138733497Y-94019737D01*
X138879179Y-93959394D01*
X139010289Y-93871789D01*
X139121789Y-93760289D01*
X139209394Y-93629179D01*
X139269737Y-93483497D01*
X139300200Y-93330348D01*
X139332584Y-93268438D01*
X139338848Y-93262387D01*
X139348528Y-93253671D01*
X139386897Y-93231520D01*
X139498701Y-93119716D01*
X139498702Y-93119713D01*
X140231598Y-92386819D01*
X140292921Y-92353334D01*
X140319279Y-92350500D01*
X143420234Y-92350500D01*
X143487273Y-92370185D01*
X143489125Y-92371398D01*
X143620814Y-92459390D01*
X143620827Y-92459397D01*
X143686215Y-92486481D01*
X143766503Y-92519737D01*
X143921153Y-92550499D01*
X143921156Y-92550500D01*
X143921158Y-92550500D01*
X144078844Y-92550500D01*
X144078845Y-92550499D01*
X144233497Y-92519737D01*
X144379179Y-92459394D01*
X144447510Y-92413735D01*
X144514186Y-92392857D01*
X144563853Y-92402276D01*
X144708160Y-92462049D01*
X144708165Y-92462051D01*
X144708169Y-92462051D01*
X144708170Y-92462052D01*
X144901456Y-92500500D01*
X144901459Y-92500500D01*
X145098543Y-92500500D01*
X145228582Y-92474632D01*
X145291835Y-92462051D01*
X145436146Y-92402276D01*
X145473907Y-92386635D01*
X145473907Y-92386634D01*
X145473914Y-92386632D01*
X145637782Y-92277139D01*
X145777139Y-92137782D01*
X145886632Y-91973914D01*
X145962051Y-91791835D01*
X146000500Y-91598541D01*
X146000500Y-91371765D01*
X146009442Y-91341309D01*
X146016745Y-91310406D01*
X146019217Y-91308019D01*
X146020185Y-91304726D01*
X146044167Y-91283944D01*
X146067024Y-91261890D01*
X146071403Y-91260345D01*
X146072989Y-91258971D01*
X146100303Y-91250149D01*
X146198629Y-91230591D01*
X146291836Y-91212051D01*
X146345165Y-91189961D01*
X146473914Y-91136632D01*
X146637782Y-91027139D01*
X146777139Y-90887782D01*
X146777140Y-90887779D01*
X146784206Y-90880714D01*
X146784208Y-90880710D01*
X153378101Y-84286819D01*
X153439424Y-84253334D01*
X153465782Y-84250500D01*
X154832351Y-84250500D01*
X154899390Y-84270185D01*
X154945145Y-84322989D01*
X154955089Y-84392147D01*
X154953969Y-84398690D01*
X154949500Y-84421158D01*
X154949500Y-84578846D01*
X154980261Y-84733489D01*
X154980264Y-84733501D01*
X155040602Y-84879172D01*
X155040609Y-84879185D01*
X155128602Y-85010874D01*
X155149480Y-85077551D01*
X155149500Y-85079765D01*
X155149500Y-85663330D01*
X155149499Y-85663348D01*
X155149499Y-85829054D01*
X155149498Y-85829054D01*
X155190423Y-85981785D01*
X155219358Y-86031900D01*
X155219359Y-86031904D01*
X155219360Y-86031904D01*
X155269479Y-86118714D01*
X155269481Y-86118717D01*
X155388349Y-86237585D01*
X155388355Y-86237590D01*
X158015139Y-88864374D01*
X158015149Y-88864385D01*
X158019479Y-88868715D01*
X158019480Y-88868716D01*
X158131284Y-88980520D01*
X158218095Y-89030639D01*
X158218097Y-89030641D01*
X158268213Y-89059576D01*
X158268215Y-89059577D01*
X158420942Y-89100500D01*
X158420943Y-89100500D01*
X164250903Y-89100500D01*
X164317942Y-89120185D01*
X164363697Y-89172989D01*
X164373641Y-89242147D01*
X164344616Y-89305703D01*
X164338584Y-89312181D01*
X164037584Y-89613181D01*
X163976261Y-89646666D01*
X163949903Y-89649500D01*
X156399097Y-89649500D01*
X156332058Y-89629815D01*
X156311416Y-89613181D01*
X155584574Y-88886339D01*
X155551089Y-88825016D01*
X155550638Y-88822849D01*
X155519738Y-88667510D01*
X155519737Y-88667503D01*
X155519735Y-88667498D01*
X155459397Y-88521827D01*
X155459390Y-88521814D01*
X155371789Y-88390711D01*
X155371786Y-88390707D01*
X155260292Y-88279213D01*
X155260288Y-88279210D01*
X155129185Y-88191609D01*
X155129172Y-88191602D01*
X154983501Y-88131264D01*
X154983489Y-88131261D01*
X154828845Y-88100500D01*
X154828842Y-88100500D01*
X154671158Y-88100500D01*
X154671155Y-88100500D01*
X154516510Y-88131261D01*
X154516498Y-88131264D01*
X154370827Y-88191602D01*
X154370814Y-88191609D01*
X154239125Y-88279602D01*
X154172447Y-88300480D01*
X154170234Y-88300500D01*
X150585727Y-88300500D01*
X150585711Y-88300499D01*
X150578115Y-88300499D01*
X150420000Y-88300499D01*
X150343636Y-88320961D01*
X150267271Y-88341423D01*
X150267266Y-88341426D01*
X150130347Y-88420475D01*
X150130339Y-88420481D01*
X137769479Y-100781341D01*
X137741413Y-100829953D01*
X137729551Y-100850501D01*
X137690423Y-100918272D01*
X137649499Y-101071000D01*
X137649499Y-101071002D01*
X137649499Y-101239103D01*
X137649500Y-101239116D01*
X137649500Y-106170234D01*
X137629815Y-106237273D01*
X137628602Y-106239125D01*
X137540609Y-106370814D01*
X137540602Y-106370827D01*
X137480264Y-106516498D01*
X137480261Y-106516510D01*
X137449500Y-106671153D01*
X137449500Y-106828846D01*
X137480261Y-106983489D01*
X137480264Y-106983501D01*
X137540602Y-107129172D01*
X137540609Y-107129185D01*
X137628210Y-107260288D01*
X137628213Y-107260292D01*
X137739707Y-107371786D01*
X137739711Y-107371789D01*
X137870814Y-107459390D01*
X137870827Y-107459397D01*
X138016498Y-107519735D01*
X138016503Y-107519737D01*
X138171153Y-107550499D01*
X138171156Y-107550500D01*
X138171158Y-107550500D01*
X138328844Y-107550500D01*
X138328845Y-107550499D01*
X138483497Y-107519737D01*
X138629179Y-107459394D01*
X138760289Y-107371789D01*
X138871789Y-107260289D01*
X138959394Y-107129179D01*
X139019737Y-106983497D01*
X139050500Y-106828842D01*
X139050500Y-106674570D01*
X139070185Y-106607531D01*
X139122989Y-106561776D01*
X139174500Y-106550570D01*
X139328774Y-106550570D01*
X139328775Y-106550569D01*
X139483427Y-106519807D01*
X139629109Y-106459464D01*
X139760219Y-106371859D01*
X139871719Y-106260359D01*
X139959324Y-106129249D01*
X140019667Y-105983567D01*
X140050430Y-105828912D01*
X140050568Y-105828220D01*
X140082953Y-105766309D01*
X140084448Y-105764786D01*
X142504974Y-103344260D01*
X142566295Y-103310777D01*
X142635987Y-103315761D01*
X142640105Y-103317382D01*
X142679740Y-103333799D01*
X142766503Y-103369737D01*
X142921153Y-103400499D01*
X142921156Y-103400500D01*
X142921158Y-103400500D01*
X143078844Y-103400500D01*
X143078845Y-103400499D01*
X143233497Y-103369737D01*
X143377733Y-103309992D01*
X143447201Y-103302524D01*
X143509680Y-103333799D01*
X143529326Y-103357245D01*
X143535437Y-103366700D01*
X143540606Y-103379179D01*
X143628211Y-103510289D01*
X143628297Y-103510375D01*
X143629642Y-103512456D01*
X143639321Y-103545107D01*
X143649480Y-103577551D01*
X143649497Y-103579433D01*
X143649500Y-103579444D01*
X143649497Y-103579453D01*
X143649500Y-103579765D01*
X143649500Y-111263273D01*
X143649499Y-111263291D01*
X143649499Y-111428997D01*
X143649498Y-111428997D01*
X143690423Y-111581728D01*
X143719358Y-111631843D01*
X143719359Y-111631847D01*
X143719360Y-111631847D01*
X143758707Y-111700000D01*
X143769479Y-111718657D01*
X143769481Y-111718660D01*
X143888349Y-111837528D01*
X143888354Y-111837532D01*
X148531341Y-116480520D01*
X148531343Y-116480521D01*
X148531347Y-116480524D01*
X148667655Y-116559220D01*
X148668273Y-116559577D01*
X148821000Y-116600501D01*
X148821002Y-116600501D01*
X148986711Y-116600501D01*
X148986727Y-116600500D01*
X175663331Y-116600500D01*
X175663347Y-116600501D01*
X175670943Y-116600501D01*
X175829054Y-116600501D01*
X175829057Y-116600501D01*
X175981785Y-116559577D01*
X176031904Y-116530639D01*
X176118716Y-116480520D01*
X176230520Y-116368716D01*
X176230520Y-116368714D01*
X176240728Y-116358507D01*
X176240730Y-116358504D01*
X179818713Y-112780521D01*
X179818716Y-112780520D01*
X179930520Y-112668716D01*
X179980639Y-112581904D01*
X180009577Y-112531785D01*
X180050500Y-112379057D01*
X180050500Y-112220943D01*
X180050500Y-93544836D01*
X180070185Y-93477797D01*
X180105609Y-93441734D01*
X180210289Y-93371789D01*
X180321786Y-93260292D01*
X180321789Y-93260289D01*
X180409394Y-93129179D01*
X180469737Y-92983497D01*
X180500500Y-92828842D01*
X180500500Y-92671158D01*
X180500500Y-92671155D01*
X180500499Y-92671153D01*
X180490756Y-92622171D01*
X180469737Y-92516503D01*
X180469735Y-92516498D01*
X180409397Y-92370827D01*
X180409390Y-92370814D01*
X180321789Y-92239711D01*
X180321786Y-92239707D01*
X180210292Y-92128213D01*
X180210288Y-92128210D01*
X180079185Y-92040609D01*
X180079172Y-92040602D01*
X179933501Y-91980264D01*
X179933489Y-91980261D01*
X179778845Y-91949500D01*
X179778842Y-91949500D01*
X179621158Y-91949500D01*
X179621155Y-91949500D01*
X179466510Y-91980261D01*
X179466498Y-91980264D01*
X179320827Y-92040602D01*
X179320814Y-92040609D01*
X179189711Y-92128210D01*
X179189707Y-92128213D01*
X179078213Y-92239707D01*
X179078210Y-92239711D01*
X178990609Y-92370814D01*
X178990602Y-92370827D01*
X178930264Y-92516498D01*
X178930261Y-92516510D01*
X178899500Y-92671153D01*
X178899500Y-92721636D01*
X178891834Y-92760179D01*
X178892527Y-92760365D01*
X178890424Y-92768213D01*
X178890423Y-92768215D01*
X178849499Y-92920943D01*
X178849499Y-92920945D01*
X178849499Y-93089046D01*
X178849500Y-93089059D01*
X178849500Y-111999903D01*
X178829815Y-112066942D01*
X178813181Y-112087584D01*
X175537584Y-115363181D01*
X175476261Y-115396666D01*
X175449903Y-115399500D01*
X149200155Y-115399500D01*
X149133116Y-115379815D01*
X149112474Y-115363181D01*
X148648803Y-114899510D01*
X148615318Y-114838187D01*
X148620302Y-114768495D01*
X148633377Y-114742944D01*
X148709394Y-114629179D01*
X148769737Y-114483497D01*
X148800500Y-114328842D01*
X148800500Y-114171158D01*
X148800500Y-114171155D01*
X148800499Y-114171153D01*
X148800430Y-114170804D01*
X148769737Y-114016503D01*
X148757351Y-113986600D01*
X148709397Y-113870827D01*
X148709390Y-113870814D01*
X148621398Y-113739125D01*
X148600520Y-113672447D01*
X148600500Y-113670234D01*
X148600500Y-102730903D01*
X148620185Y-102663864D01*
X148672989Y-102618109D01*
X148676999Y-102616362D01*
X148754179Y-102584394D01*
X148885289Y-102496789D01*
X148996789Y-102385289D01*
X149084394Y-102254179D01*
X149144737Y-102108497D01*
X149175500Y-101953842D01*
X149175638Y-101953150D01*
X149208023Y-101891239D01*
X149209518Y-101889717D01*
X152264664Y-98834571D01*
X152325985Y-98801088D01*
X152328152Y-98800637D01*
X152328841Y-98800500D01*
X152328842Y-98800500D01*
X152483497Y-98769737D01*
X152629179Y-98709394D01*
X152760289Y-98621789D01*
X152871789Y-98510289D01*
X152959394Y-98379179D01*
X153019737Y-98233497D01*
X153050500Y-98078842D01*
X153050500Y-97921158D01*
X153050500Y-97921155D01*
X153050499Y-97921153D01*
X153019738Y-97766510D01*
X153019738Y-97766508D01*
X153019737Y-97766503D01*
X153019735Y-97766498D01*
X152959397Y-97620827D01*
X152959390Y-97620814D01*
X152871789Y-97489711D01*
X152871786Y-97489707D01*
X152760292Y-97378213D01*
X152760288Y-97378210D01*
X152629185Y-97290609D01*
X152629172Y-97290602D01*
X152483501Y-97230264D01*
X152483489Y-97230261D01*
X152328845Y-97199500D01*
X152328842Y-97199500D01*
X152171158Y-97199500D01*
X152171155Y-97199500D01*
X152016510Y-97230261D01*
X152016498Y-97230264D01*
X151870827Y-97290602D01*
X151870814Y-97290609D01*
X151739711Y-97378210D01*
X151739707Y-97378213D01*
X151628213Y-97489707D01*
X151628210Y-97489711D01*
X151540609Y-97620814D01*
X151540602Y-97620827D01*
X151480264Y-97766498D01*
X151480261Y-97766508D01*
X151449362Y-97921848D01*
X151416977Y-97983759D01*
X151415426Y-97985337D01*
X148360339Y-101040425D01*
X148343744Y-101049486D01*
X148330135Y-101062619D01*
X148300634Y-101073026D01*
X148299016Y-101073910D01*
X148296851Y-101074361D01*
X148248693Y-101083941D01*
X148179101Y-101077715D01*
X148123923Y-101034852D01*
X148100678Y-100968963D01*
X148100500Y-100962324D01*
X148100500Y-100550097D01*
X148120185Y-100483058D01*
X148136819Y-100462416D01*
X150088947Y-98510288D01*
X152264662Y-96334572D01*
X152325983Y-96301089D01*
X152328150Y-96300638D01*
X152386085Y-96289113D01*
X152483497Y-96269737D01*
X152629179Y-96209394D01*
X152760289Y-96121789D01*
X152871789Y-96010289D01*
X152959394Y-95879179D01*
X153019737Y-95733497D01*
X153050500Y-95578842D01*
X153050500Y-95421158D01*
X153050500Y-95421155D01*
X153050499Y-95421153D01*
X153019738Y-95266510D01*
X153019738Y-95266508D01*
X153019737Y-95266503D01*
X152959794Y-95121786D01*
X152959397Y-95120827D01*
X152959390Y-95120814D01*
X152871789Y-94989711D01*
X152871786Y-94989707D01*
X152760292Y-94878213D01*
X152760288Y-94878210D01*
X152629185Y-94790609D01*
X152629172Y-94790602D01*
X152483501Y-94730264D01*
X152483489Y-94730261D01*
X152328845Y-94699500D01*
X152328842Y-94699500D01*
X152171158Y-94699500D01*
X152171155Y-94699500D01*
X152016510Y-94730261D01*
X152016498Y-94730264D01*
X151870827Y-94790602D01*
X151870814Y-94790609D01*
X151739711Y-94878210D01*
X151739707Y-94878213D01*
X151628213Y-94989707D01*
X151628210Y-94989711D01*
X151540609Y-95120814D01*
X151540602Y-95120827D01*
X151480264Y-95266498D01*
X151480261Y-95266508D01*
X151449361Y-95421850D01*
X151416976Y-95483761D01*
X151415425Y-95485339D01*
X147019481Y-99881282D01*
X147019479Y-99881285D01*
X146969361Y-99968094D01*
X146969359Y-99968096D01*
X146940425Y-100018209D01*
X146940424Y-100018210D01*
X146940423Y-100018215D01*
X146899499Y-100170943D01*
X146899499Y-100170945D01*
X146899499Y-100339046D01*
X146899500Y-100339059D01*
X146899500Y-103567059D01*
X146879815Y-103634098D01*
X146863181Y-103654740D01*
X146778213Y-103739707D01*
X146778210Y-103739711D01*
X146690609Y-103870814D01*
X146690602Y-103870827D01*
X146630264Y-104016498D01*
X146630261Y-104016510D01*
X146599500Y-104171153D01*
X146599500Y-104328846D01*
X146630261Y-104483489D01*
X146630264Y-104483501D01*
X146690602Y-104629172D01*
X146690609Y-104629185D01*
X146778209Y-104760287D01*
X146778210Y-104760288D01*
X146778211Y-104760289D01*
X146863182Y-104845260D01*
X146896666Y-104906581D01*
X146899500Y-104932940D01*
X146899500Y-111067059D01*
X146879815Y-111134098D01*
X146863181Y-111154740D01*
X146778213Y-111239707D01*
X146778210Y-111239711D01*
X146690609Y-111370814D01*
X146690602Y-111370827D01*
X146630264Y-111516498D01*
X146630261Y-111516510D01*
X146599500Y-111671153D01*
X146599500Y-111828846D01*
X146630261Y-111983489D01*
X146630264Y-111983501D01*
X146690602Y-112129172D01*
X146690609Y-112129185D01*
X146778210Y-112260288D01*
X146778213Y-112260292D01*
X146889707Y-112371786D01*
X146889711Y-112371789D01*
X147020814Y-112459390D01*
X147020827Y-112459397D01*
X147166498Y-112519735D01*
X147166503Y-112519737D01*
X147249323Y-112536211D01*
X147299691Y-112546230D01*
X147361602Y-112578615D01*
X147396176Y-112639330D01*
X147399500Y-112667847D01*
X147399500Y-113350845D01*
X147379815Y-113417884D01*
X147327011Y-113463639D01*
X147257853Y-113473583D01*
X147194297Y-113444558D01*
X147187819Y-113438526D01*
X144886819Y-111137526D01*
X144853334Y-111076203D01*
X144850500Y-111049845D01*
X144850500Y-103579765D01*
X144870185Y-103512726D01*
X144871398Y-103510874D01*
X144959390Y-103379185D01*
X144959390Y-103379184D01*
X144959394Y-103379179D01*
X145019737Y-103233497D01*
X145050500Y-103078842D01*
X145050500Y-102921158D01*
X145050500Y-102921155D01*
X145050499Y-102921153D01*
X145019738Y-102766510D01*
X145019737Y-102766503D01*
X145019735Y-102766498D01*
X144959397Y-102620827D01*
X144959390Y-102620814D01*
X144871789Y-102489711D01*
X144871786Y-102489707D01*
X144760292Y-102378213D01*
X144760288Y-102378210D01*
X144629185Y-102290609D01*
X144629172Y-102290602D01*
X144483501Y-102230264D01*
X144483491Y-102230261D01*
X144328151Y-102199362D01*
X144266241Y-102166977D01*
X144264662Y-102165426D01*
X143737590Y-101638355D01*
X143737588Y-101638352D01*
X143618717Y-101519481D01*
X143618716Y-101519480D01*
X143516266Y-101460331D01*
X143516265Y-101460330D01*
X143481783Y-101440422D01*
X143425881Y-101425443D01*
X143329057Y-101399499D01*
X143170943Y-101399499D01*
X143163347Y-101399499D01*
X143163331Y-101399500D01*
X140979766Y-101399500D01*
X140912727Y-101379815D01*
X140910875Y-101378602D01*
X140779185Y-101290609D01*
X140779172Y-101290602D01*
X140633501Y-101230264D01*
X140633489Y-101230261D01*
X140478845Y-101199500D01*
X140478842Y-101199500D01*
X140321158Y-101199500D01*
X140321155Y-101199500D01*
X140166510Y-101230261D01*
X140166498Y-101230264D01*
X140020827Y-101290602D01*
X140020814Y-101290609D01*
X139889711Y-101378210D01*
X139889707Y-101378213D01*
X139778213Y-101489707D01*
X139778210Y-101489711D01*
X139690609Y-101620814D01*
X139690602Y-101620827D01*
X139630264Y-101766498D01*
X139630261Y-101766510D01*
X139599500Y-101921153D01*
X139599500Y-102078846D01*
X139630261Y-102233489D01*
X139630264Y-102233501D01*
X139690602Y-102379172D01*
X139690609Y-102379185D01*
X139778210Y-102510288D01*
X139778213Y-102510292D01*
X139889707Y-102621786D01*
X139889711Y-102621789D01*
X140020814Y-102709390D01*
X140020827Y-102709397D01*
X140099894Y-102742147D01*
X140166503Y-102769737D01*
X140321153Y-102800499D01*
X140321156Y-102800500D01*
X140321158Y-102800500D01*
X140478844Y-102800500D01*
X140478845Y-102800499D01*
X140633497Y-102769737D01*
X140779179Y-102709394D01*
X140833663Y-102672989D01*
X140910875Y-102621398D01*
X140977553Y-102600520D01*
X140979766Y-102600500D01*
X141250902Y-102600500D01*
X141317941Y-102620185D01*
X141363696Y-102672989D01*
X141373640Y-102742147D01*
X141344615Y-102805703D01*
X141338583Y-102812181D01*
X139235269Y-104915495D01*
X139219039Y-104924357D01*
X139205819Y-104937291D01*
X139175643Y-104948053D01*
X139173946Y-104948980D01*
X139172617Y-104949262D01*
X139171122Y-104949570D01*
X139171088Y-104949570D01*
X139016433Y-104980333D01*
X139011069Y-104982554D01*
X138999529Y-104984933D01*
X138975630Y-104982960D01*
X138951773Y-104985385D01*
X138941442Y-104980138D01*
X138929896Y-104979185D01*
X138910857Y-104964604D01*
X138889477Y-104953746D01*
X138883623Y-104943748D01*
X138874424Y-104936703D01*
X138866290Y-104914143D01*
X138854175Y-104893451D01*
X138851775Y-104873886D01*
X138850726Y-104870975D01*
X138851177Y-104869005D01*
X138850500Y-104863485D01*
X138850500Y-101450154D01*
X138870185Y-101383115D01*
X138886819Y-101362473D01*
X145828140Y-94421153D01*
X163949500Y-94421153D01*
X163949500Y-94578846D01*
X163980261Y-94733489D01*
X163980264Y-94733501D01*
X164040602Y-94879172D01*
X164040609Y-94879185D01*
X164128210Y-95010288D01*
X164128213Y-95010292D01*
X164239707Y-95121786D01*
X164239711Y-95121789D01*
X164370814Y-95209390D01*
X164370827Y-95209397D01*
X164508683Y-95266498D01*
X164516503Y-95269737D01*
X164671153Y-95300499D01*
X164671156Y-95300500D01*
X164671158Y-95300500D01*
X164828844Y-95300500D01*
X164828845Y-95300499D01*
X164983497Y-95269737D01*
X165129179Y-95209394D01*
X165129185Y-95209390D01*
X165260875Y-95121398D01*
X165327553Y-95100520D01*
X165329766Y-95100500D01*
X166170234Y-95100500D01*
X166237273Y-95120185D01*
X166239125Y-95121398D01*
X166370814Y-95209390D01*
X166370827Y-95209397D01*
X166508683Y-95266498D01*
X166516503Y-95269737D01*
X166671153Y-95300499D01*
X166671156Y-95300500D01*
X166671158Y-95300500D01*
X166828844Y-95300500D01*
X166828845Y-95300499D01*
X166983497Y-95269737D01*
X167129179Y-95209394D01*
X167260289Y-95121789D01*
X167371789Y-95010289D01*
X167459394Y-94879179D01*
X167519737Y-94733497D01*
X167550500Y-94578842D01*
X167550500Y-94421158D01*
X167550500Y-94421155D01*
X167550499Y-94421153D01*
X167519738Y-94266510D01*
X167519737Y-94266503D01*
X167519735Y-94266498D01*
X167459397Y-94120827D01*
X167459390Y-94120814D01*
X167371789Y-93989711D01*
X167371786Y-93989707D01*
X167260292Y-93878213D01*
X167260288Y-93878210D01*
X167129185Y-93790609D01*
X167129172Y-93790602D01*
X166983501Y-93730264D01*
X166983489Y-93730261D01*
X166828845Y-93699500D01*
X166828842Y-93699500D01*
X166671158Y-93699500D01*
X166671155Y-93699500D01*
X166516510Y-93730261D01*
X166516498Y-93730264D01*
X166370827Y-93790602D01*
X166370814Y-93790609D01*
X166239125Y-93878602D01*
X166172447Y-93899480D01*
X166170234Y-93899500D01*
X165329766Y-93899500D01*
X165262727Y-93879815D01*
X165260875Y-93878602D01*
X165129185Y-93790609D01*
X165129172Y-93790602D01*
X164983501Y-93730264D01*
X164983489Y-93730261D01*
X164828845Y-93699500D01*
X164828842Y-93699500D01*
X164671158Y-93699500D01*
X164671155Y-93699500D01*
X164516510Y-93730261D01*
X164516498Y-93730264D01*
X164370827Y-93790602D01*
X164370814Y-93790609D01*
X164239711Y-93878210D01*
X164239707Y-93878213D01*
X164128213Y-93989707D01*
X164128210Y-93989711D01*
X164040609Y-94120814D01*
X164040602Y-94120827D01*
X163980264Y-94266498D01*
X163980261Y-94266510D01*
X163949500Y-94421153D01*
X145828140Y-94421153D01*
X145921908Y-94327385D01*
X150711474Y-89537819D01*
X150772797Y-89504334D01*
X150799155Y-89501500D01*
X154170234Y-89501500D01*
X154237273Y-89521185D01*
X154239125Y-89522398D01*
X154370814Y-89610390D01*
X154370827Y-89610397D01*
X154516498Y-89670735D01*
X154516503Y-89670737D01*
X154581147Y-89683595D01*
X154671849Y-89701638D01*
X154733760Y-89734023D01*
X154735339Y-89735574D01*
X155614139Y-90614374D01*
X155614149Y-90614385D01*
X155618479Y-90618715D01*
X155618480Y-90618716D01*
X155730284Y-90730520D01*
X155817095Y-90780639D01*
X155817097Y-90780641D01*
X155855151Y-90802611D01*
X155867215Y-90809577D01*
X156019943Y-90850500D01*
X164163331Y-90850500D01*
X164163347Y-90850501D01*
X164170943Y-90850501D01*
X164329054Y-90850501D01*
X164329057Y-90850501D01*
X164481785Y-90809577D01*
X164531904Y-90780639D01*
X164618716Y-90730520D01*
X164730520Y-90618716D01*
X164730520Y-90618714D01*
X164740728Y-90608507D01*
X164740729Y-90608504D01*
X167264664Y-88084571D01*
X167325985Y-88051088D01*
X167328152Y-88050637D01*
X167328841Y-88050500D01*
X167328842Y-88050500D01*
X167483497Y-88019737D01*
X167629179Y-87959394D01*
X167760289Y-87871789D01*
X167871789Y-87760289D01*
X167959394Y-87629179D01*
X168019737Y-87483497D01*
X168050500Y-87328842D01*
X168050500Y-87171158D01*
X168050500Y-87171155D01*
X168050499Y-87171153D01*
X168024531Y-87040606D01*
X168019737Y-87016503D01*
X168017163Y-87010288D01*
X167959397Y-86870827D01*
X167959390Y-86870814D01*
X167871789Y-86739711D01*
X167871786Y-86739707D01*
X167760292Y-86628213D01*
X167760288Y-86628210D01*
X167629185Y-86540609D01*
X167629172Y-86540602D01*
X167483501Y-86480264D01*
X167483489Y-86480261D01*
X167328845Y-86449500D01*
X167328842Y-86449500D01*
X167171158Y-86449500D01*
X167171155Y-86449500D01*
X167016510Y-86480261D01*
X167016498Y-86480264D01*
X166870827Y-86540602D01*
X166870814Y-86540609D01*
X166739711Y-86628210D01*
X166739707Y-86628213D01*
X166628213Y-86739707D01*
X166628210Y-86739711D01*
X166540609Y-86870814D01*
X166540602Y-86870827D01*
X166480264Y-87016498D01*
X166480261Y-87016508D01*
X166449362Y-87171848D01*
X166416977Y-87233759D01*
X166415426Y-87235337D01*
X165844756Y-87806007D01*
X165783433Y-87839492D01*
X165713741Y-87834508D01*
X165657808Y-87792636D01*
X165653988Y-87787239D01*
X165622054Y-87739446D01*
X165622052Y-87739443D01*
X165510557Y-87627948D01*
X165510553Y-87627945D01*
X165379450Y-87540344D01*
X165379437Y-87540337D01*
X165233766Y-87479999D01*
X165233754Y-87479996D01*
X165079110Y-87449235D01*
X165079107Y-87449235D01*
X164921423Y-87449235D01*
X164921420Y-87449235D01*
X164766775Y-87479996D01*
X164766772Y-87479997D01*
X164766771Y-87479997D01*
X164766768Y-87479998D01*
X164682095Y-87515070D01*
X164657567Y-87525230D01*
X164588097Y-87532698D01*
X164525618Y-87501422D01*
X164495555Y-87458124D01*
X164459394Y-87370821D01*
X164459392Y-87370818D01*
X164459390Y-87370814D01*
X164371789Y-87239711D01*
X164371786Y-87239707D01*
X164260292Y-87128213D01*
X164260288Y-87128210D01*
X164129185Y-87040609D01*
X164129172Y-87040602D01*
X163983501Y-86980264D01*
X163983491Y-86980261D01*
X163828149Y-86949361D01*
X163766238Y-86916976D01*
X163764660Y-86915425D01*
X162527590Y-85678355D01*
X162527588Y-85678352D01*
X162408717Y-85559481D01*
X162408716Y-85559480D01*
X162321904Y-85509360D01*
X162321904Y-85509359D01*
X162321900Y-85509358D01*
X162271785Y-85480423D01*
X162119057Y-85439499D01*
X161960943Y-85439499D01*
X161953347Y-85439499D01*
X161953331Y-85439500D01*
X160579766Y-85439500D01*
X160512727Y-85419815D01*
X160510875Y-85418602D01*
X160379185Y-85330609D01*
X160379172Y-85330602D01*
X160233501Y-85270264D01*
X160233489Y-85270261D01*
X160078845Y-85239500D01*
X160078842Y-85239500D01*
X159921158Y-85239500D01*
X159921155Y-85239500D01*
X159766510Y-85270261D01*
X159766498Y-85270264D01*
X159620827Y-85330602D01*
X159620814Y-85330609D01*
X159489711Y-85418210D01*
X159489707Y-85418213D01*
X159378213Y-85529707D01*
X159378210Y-85529711D01*
X159290609Y-85660814D01*
X159290602Y-85660827D01*
X159230264Y-85806498D01*
X159230261Y-85806510D01*
X159199500Y-85961153D01*
X159199500Y-86118846D01*
X159230261Y-86273489D01*
X159230264Y-86273501D01*
X159290602Y-86419172D01*
X159290609Y-86419185D01*
X159378210Y-86550288D01*
X159378213Y-86550292D01*
X159489707Y-86661786D01*
X159489711Y-86661789D01*
X159620814Y-86749390D01*
X159620827Y-86749397D01*
X159766498Y-86809735D01*
X159766503Y-86809737D01*
X159921153Y-86840499D01*
X159921156Y-86840500D01*
X159921158Y-86840500D01*
X160078844Y-86840500D01*
X160078845Y-86840499D01*
X160233497Y-86809737D01*
X160379179Y-86749394D01*
X160402971Y-86733497D01*
X160510875Y-86661398D01*
X160577553Y-86640520D01*
X160579766Y-86640500D01*
X161739903Y-86640500D01*
X161806942Y-86660185D01*
X161827584Y-86676819D01*
X162838584Y-87687819D01*
X162872069Y-87749142D01*
X162867085Y-87818834D01*
X162825213Y-87874767D01*
X162759749Y-87899184D01*
X162750903Y-87899500D01*
X158800097Y-87899500D01*
X158733058Y-87879815D01*
X158712416Y-87863181D01*
X156386819Y-85537584D01*
X156353334Y-85476261D01*
X156350500Y-85449903D01*
X156350500Y-85079765D01*
X156370185Y-85012726D01*
X156371398Y-85010874D01*
X156459390Y-84879185D01*
X156459391Y-84879183D01*
X156459394Y-84879179D01*
X156519737Y-84733497D01*
X156550500Y-84578842D01*
X156550500Y-84421158D01*
X156546031Y-84398690D01*
X156552260Y-84329099D01*
X156595123Y-84273922D01*
X156661013Y-84250678D01*
X156667649Y-84250500D01*
X170577111Y-84250500D01*
X170644150Y-84270185D01*
X170664792Y-84286819D01*
X170772490Y-84394517D01*
X170963566Y-84533343D01*
X171052863Y-84578842D01*
X171174003Y-84640566D01*
X171174005Y-84640566D01*
X171174008Y-84640568D01*
X171294412Y-84679689D01*
X171398631Y-84713553D01*
X171631903Y-84750500D01*
X171631908Y-84750500D01*
X171868097Y-84750500D01*
X172101368Y-84713553D01*
X172325992Y-84640568D01*
X172536434Y-84533343D01*
X172727510Y-84394517D01*
X177564517Y-79557510D01*
X177703343Y-79366434D01*
X177810568Y-79155992D01*
X177883553Y-78931368D01*
X177920500Y-78698097D01*
X177920500Y-67912208D01*
X177940185Y-67845169D01*
X177946124Y-67836722D01*
X177974302Y-67800000D01*
X178106922Y-67627165D01*
X178239615Y-67397335D01*
X178341174Y-67152151D01*
X178409860Y-66895808D01*
X178444500Y-66632693D01*
X178444500Y-66367307D01*
X178444499Y-66367299D01*
X179475500Y-66367299D01*
X179475500Y-66632700D01*
X179501590Y-66830864D01*
X179510140Y-66895808D01*
X179545977Y-67029556D01*
X179573213Y-67131205D01*
X179578826Y-67152151D01*
X179618114Y-67247000D01*
X179680383Y-67397331D01*
X179680388Y-67397342D01*
X179813073Y-67627157D01*
X179813084Y-67627173D01*
X179974632Y-67837708D01*
X179974638Y-67837715D01*
X180162284Y-68025361D01*
X180162291Y-68025367D01*
X180190406Y-68046940D01*
X180372835Y-68186922D01*
X180372842Y-68186926D01*
X180602657Y-68319611D01*
X180602662Y-68319613D01*
X180602665Y-68319615D01*
X180847849Y-68421174D01*
X181104192Y-68489860D01*
X181367307Y-68524500D01*
X181367314Y-68524500D01*
X181632686Y-68524500D01*
X181632693Y-68524500D01*
X181895808Y-68489860D01*
X182152151Y-68421174D01*
X182397335Y-68319615D01*
X182627165Y-68186922D01*
X182837710Y-68025366D01*
X183025366Y-67837710D01*
X183186922Y-67627165D01*
X183319615Y-67397335D01*
X183421174Y-67152151D01*
X183489860Y-66895808D01*
X183524500Y-66632693D01*
X183524500Y-66367307D01*
X183509056Y-66250000D01*
X183505586Y-66223638D01*
X183498410Y-66169136D01*
X183489860Y-66104192D01*
X183421174Y-65847849D01*
X183380643Y-65750000D01*
X185856962Y-65750000D01*
X186858012Y-65750000D01*
X186840795Y-65759940D01*
X186784940Y-65815795D01*
X186745444Y-65884204D01*
X186725000Y-65960504D01*
X186725000Y-66039496D01*
X186745444Y-66115796D01*
X186784940Y-66184205D01*
X186840795Y-66240060D01*
X186858012Y-66250000D01*
X185856962Y-66250000D01*
X185885150Y-66536211D01*
X185955114Y-66887941D01*
X186059220Y-67231136D01*
X186196461Y-67562460D01*
X186196463Y-67562465D01*
X186365508Y-67878726D01*
X186365519Y-67878744D01*
X186564751Y-68176916D01*
X186564761Y-68176930D01*
X186792271Y-68454151D01*
X187045848Y-68707728D01*
X187323069Y-68935238D01*
X187323083Y-68935248D01*
X187621255Y-69134480D01*
X187621273Y-69134491D01*
X187937534Y-69303536D01*
X187937539Y-69303538D01*
X188268863Y-69440779D01*
X188612058Y-69544885D01*
X188963789Y-69614849D01*
X188963788Y-69614849D01*
X189250000Y-69643037D01*
X189250000Y-68641988D01*
X189259940Y-68659205D01*
X189315795Y-68715060D01*
X189384204Y-68754556D01*
X189460504Y-68775000D01*
X189539496Y-68775000D01*
X189615796Y-68754556D01*
X189684205Y-68715060D01*
X189740060Y-68659205D01*
X189750000Y-68641988D01*
X189750000Y-69643036D01*
X190036211Y-69614849D01*
X190387941Y-69544885D01*
X190731136Y-69440779D01*
X191062460Y-69303538D01*
X191062465Y-69303536D01*
X191378726Y-69134491D01*
X191378744Y-69134480D01*
X191676916Y-68935248D01*
X191676930Y-68935238D01*
X191954151Y-68707728D01*
X192207728Y-68454151D01*
X192435238Y-68176930D01*
X192435248Y-68176916D01*
X192634480Y-67878744D01*
X192634491Y-67878726D01*
X192803536Y-67562465D01*
X192803538Y-67562460D01*
X192940779Y-67231136D01*
X193044885Y-66887941D01*
X193114849Y-66536211D01*
X193143038Y-66250000D01*
X192141988Y-66250000D01*
X192159205Y-66240060D01*
X192215060Y-66184205D01*
X192254556Y-66115796D01*
X192275000Y-66039496D01*
X192275000Y-65960504D01*
X192254556Y-65884204D01*
X192215060Y-65815795D01*
X192159205Y-65759940D01*
X192141988Y-65750000D01*
X193143037Y-65750000D01*
X193114849Y-65463788D01*
X193044885Y-65112058D01*
X192940779Y-64768863D01*
X192803538Y-64437539D01*
X192803536Y-64437534D01*
X192634491Y-64121273D01*
X192634480Y-64121255D01*
X192435248Y-63823083D01*
X192435238Y-63823069D01*
X192207728Y-63545848D01*
X191954151Y-63292271D01*
X191676930Y-63064761D01*
X191676916Y-63064751D01*
X191378744Y-62865519D01*
X191378726Y-62865508D01*
X191062465Y-62696463D01*
X191062460Y-62696461D01*
X190731136Y-62559220D01*
X190387941Y-62455114D01*
X190036218Y-62385152D01*
X190036201Y-62385149D01*
X189750001Y-62356960D01*
X189750000Y-62356961D01*
X189750000Y-63358011D01*
X189740060Y-63340795D01*
X189684205Y-63284940D01*
X189615796Y-63245444D01*
X189539496Y-63225000D01*
X189460504Y-63225000D01*
X189384204Y-63245444D01*
X189315795Y-63284940D01*
X189259940Y-63340795D01*
X189250000Y-63358011D01*
X189250000Y-62356961D01*
X189249998Y-62356960D01*
X188963798Y-62385149D01*
X188963781Y-62385152D01*
X188612058Y-62455114D01*
X188268863Y-62559220D01*
X187937539Y-62696461D01*
X187937534Y-62696463D01*
X187621273Y-62865508D01*
X187621255Y-62865519D01*
X187323083Y-63064751D01*
X187323069Y-63064761D01*
X187045848Y-63292271D01*
X186792271Y-63545848D01*
X186564761Y-63823069D01*
X186564751Y-63823083D01*
X186365519Y-64121255D01*
X186365508Y-64121273D01*
X186196463Y-64437534D01*
X186196461Y-64437539D01*
X186059220Y-64768863D01*
X185955114Y-65112058D01*
X185885150Y-65463788D01*
X185856962Y-65750000D01*
X183380643Y-65750000D01*
X183319615Y-65602665D01*
X183319613Y-65602662D01*
X183319611Y-65602657D01*
X183186926Y-65372842D01*
X183186922Y-65372835D01*
X183082773Y-65237105D01*
X183025367Y-65162291D01*
X183025361Y-65162284D01*
X182837715Y-64974638D01*
X182837708Y-64974632D01*
X182627173Y-64813084D01*
X182627171Y-64813082D01*
X182627165Y-64813078D01*
X182627160Y-64813075D01*
X182627157Y-64813073D01*
X182397342Y-64680388D01*
X182397331Y-64680383D01*
X182253708Y-64620892D01*
X182152151Y-64578826D01*
X182152149Y-64578825D01*
X182152148Y-64578825D01*
X182044569Y-64550000D01*
X181895808Y-64510140D01*
X181851836Y-64504351D01*
X181632700Y-64475500D01*
X181632693Y-64475500D01*
X181367307Y-64475500D01*
X181367299Y-64475500D01*
X181116856Y-64508472D01*
X181104192Y-64510140D01*
X181031730Y-64529556D01*
X180847851Y-64578825D01*
X180602668Y-64680383D01*
X180602657Y-64680388D01*
X180372842Y-64813073D01*
X180372826Y-64813084D01*
X180162291Y-64974632D01*
X180162284Y-64974638D01*
X179974638Y-65162284D01*
X179974632Y-65162291D01*
X179813084Y-65372826D01*
X179813073Y-65372842D01*
X179680388Y-65602657D01*
X179680383Y-65602668D01*
X179578825Y-65847851D01*
X179510141Y-66104189D01*
X179510139Y-66104200D01*
X179475500Y-66367299D01*
X178444499Y-66367299D01*
X178409860Y-66104192D01*
X178341174Y-65847849D01*
X178239615Y-65602665D01*
X178239613Y-65602662D01*
X178239611Y-65602657D01*
X178106926Y-65372842D01*
X178106922Y-65372835D01*
X178002773Y-65237105D01*
X177945367Y-65162291D01*
X177945361Y-65162284D01*
X177757715Y-64974638D01*
X177757708Y-64974632D01*
X177547173Y-64813084D01*
X177547171Y-64813082D01*
X177547165Y-64813078D01*
X177547160Y-64813075D01*
X177547157Y-64813073D01*
X177317342Y-64680388D01*
X177317331Y-64680383D01*
X177173708Y-64620892D01*
X177072151Y-64578826D01*
X177072149Y-64578825D01*
X177072148Y-64578825D01*
X176964569Y-64550000D01*
X176815808Y-64510140D01*
X176771836Y-64504351D01*
X176552700Y-64475500D01*
X176552693Y-64475500D01*
X176287307Y-64475500D01*
X176287299Y-64475500D01*
X176036856Y-64508472D01*
X176024192Y-64510140D01*
X175951730Y-64529556D01*
X175767851Y-64578825D01*
X175522668Y-64680383D01*
X175522657Y-64680388D01*
X175292842Y-64813073D01*
X175292826Y-64813084D01*
X175082291Y-64974632D01*
X175082284Y-64974638D01*
X174894638Y-65162284D01*
X174894632Y-65162291D01*
X174733084Y-65372826D01*
X174733073Y-65372842D01*
X174600388Y-65602657D01*
X174600383Y-65602668D01*
X174498825Y-65847851D01*
X174430141Y-66104189D01*
X174430139Y-66104200D01*
X174395500Y-66367299D01*
X174395500Y-66632700D01*
X174421590Y-66830864D01*
X174430140Y-66895808D01*
X174465977Y-67029556D01*
X174493213Y-67131205D01*
X174498826Y-67152151D01*
X174538114Y-67247000D01*
X174600383Y-67397331D01*
X174600388Y-67397342D01*
X174712080Y-67590796D01*
X174733078Y-67627165D01*
X174842065Y-67769201D01*
X174893876Y-67836722D01*
X174919070Y-67901891D01*
X174919500Y-67912208D01*
X174919500Y-70375500D01*
X174899815Y-70442539D01*
X174847011Y-70488294D01*
X174795500Y-70499500D01*
X161672889Y-70499500D01*
X161605850Y-70479815D01*
X161585208Y-70463181D01*
X161477511Y-70355484D01*
X161286434Y-70216657D01*
X161075996Y-70109433D01*
X160851368Y-70036446D01*
X160618097Y-69999500D01*
X160618092Y-69999500D01*
X160381908Y-69999500D01*
X160381903Y-69999500D01*
X160148631Y-70036446D01*
X159924003Y-70109433D01*
X159713565Y-70216657D01*
X159522488Y-70355484D01*
X159355484Y-70522488D01*
X159216657Y-70713565D01*
X159109433Y-70924003D01*
X159036446Y-71148631D01*
X158999500Y-71381902D01*
X158999500Y-71618097D01*
X159036446Y-71851368D01*
X159109433Y-72075996D01*
X159216657Y-72286434D01*
X159355484Y-72477511D01*
X159355485Y-72477512D01*
X160022491Y-73144519D01*
X160022496Y-73144523D01*
X160189155Y-73265606D01*
X160213567Y-73283343D01*
X160347659Y-73351666D01*
X160424003Y-73390566D01*
X160424005Y-73390566D01*
X160424008Y-73390568D01*
X160544412Y-73429689D01*
X160648631Y-73463553D01*
X160881903Y-73500500D01*
X160881908Y-73500500D01*
X161118092Y-73500500D01*
X174795500Y-73500500D01*
X174862539Y-73520185D01*
X174908294Y-73572989D01*
X174919500Y-73624500D01*
X174919500Y-77907111D01*
X174899815Y-77974150D01*
X174883181Y-77994792D01*
X170664792Y-82213181D01*
X170603469Y-82246666D01*
X170577111Y-82249500D01*
X152901455Y-82249500D01*
X152804812Y-82268724D01*
X152708167Y-82287947D01*
X152708161Y-82287949D01*
X152654834Y-82310037D01*
X152654834Y-82310038D01*
X152609315Y-82328892D01*
X152526089Y-82363366D01*
X152526079Y-82363371D01*
X152362219Y-82472859D01*
X152292540Y-82542538D01*
X152222861Y-82612218D01*
X152222858Y-82612221D01*
X145621899Y-89213181D01*
X145560576Y-89246666D01*
X145534218Y-89249500D01*
X145158975Y-89249500D01*
X145126912Y-89255876D01*
X145126913Y-89255877D01*
X144965691Y-89287946D01*
X144965685Y-89287948D01*
X144783609Y-89363366D01*
X144783600Y-89363371D01*
X144619740Y-89472859D01*
X144619736Y-89472862D01*
X144222863Y-89869735D01*
X144222860Y-89869739D01*
X144113371Y-90033600D01*
X144113364Y-90033613D01*
X144037950Y-90215681D01*
X144037947Y-90215691D01*
X143999500Y-90408977D01*
X143999500Y-90832152D01*
X143979815Y-90899191D01*
X143927011Y-90944946D01*
X143899692Y-90953769D01*
X143766508Y-90980261D01*
X143766498Y-90980264D01*
X143620827Y-91040602D01*
X143620814Y-91040609D01*
X143489125Y-91128602D01*
X143422447Y-91149480D01*
X143420234Y-91149500D01*
X140105851Y-91149500D01*
X140105835Y-91149499D01*
X140098239Y-91149499D01*
X139940124Y-91149499D01*
X139863760Y-91169961D01*
X139787395Y-91190423D01*
X139787394Y-91190424D01*
X139769890Y-91200530D01*
X139701989Y-91217000D01*
X139635963Y-91194146D01*
X139592774Y-91139224D01*
X139589962Y-91131459D01*
X139566212Y-91058363D01*
X139566211Y-91058360D01*
X139510743Y-90949500D01*
X139483996Y-90897006D01*
X139436877Y-90832152D01*
X139377558Y-90750505D01*
X139377554Y-90750500D01*
X139249499Y-90622445D01*
X139249494Y-90622441D01*
X139102997Y-90516006D01*
X139102996Y-90516005D01*
X139102994Y-90516004D01*
X139051300Y-90489664D01*
X138941639Y-90433788D01*
X138941636Y-90433787D01*
X138769410Y-90377829D01*
X138590551Y-90349500D01*
X138590546Y-90349500D01*
X138409454Y-90349500D01*
X138409449Y-90349500D01*
X138230589Y-90377829D01*
X138058363Y-90433787D01*
X138058360Y-90433788D01*
X137897002Y-90516006D01*
X137750505Y-90622441D01*
X137750500Y-90622445D01*
X137622445Y-90750500D01*
X137622441Y-90750505D01*
X137516006Y-90897002D01*
X137433788Y-91058360D01*
X137433787Y-91058363D01*
X137377829Y-91230589D01*
X137349500Y-91409448D01*
X134380500Y-91409448D01*
X134357128Y-91261890D01*
X134352171Y-91230591D01*
X134296211Y-91058361D01*
X134296211Y-91058360D01*
X134240743Y-90949500D01*
X134213996Y-90897006D01*
X134166877Y-90832152D01*
X134107558Y-90750505D01*
X134107554Y-90750500D01*
X133979499Y-90622445D01*
X133979494Y-90622441D01*
X133832997Y-90516006D01*
X133832996Y-90516005D01*
X133832994Y-90516004D01*
X133781300Y-90489664D01*
X133671639Y-90433788D01*
X133671636Y-90433787D01*
X133499410Y-90377829D01*
X133320551Y-90349500D01*
X133320546Y-90349500D01*
X133139454Y-90349500D01*
X133139449Y-90349500D01*
X132960589Y-90377829D01*
X132788363Y-90433787D01*
X132788360Y-90433788D01*
X132627002Y-90516006D01*
X132480505Y-90622441D01*
X132480500Y-90622445D01*
X132352445Y-90750500D01*
X132352441Y-90750505D01*
X132246006Y-90897002D01*
X132163788Y-91058360D01*
X132163787Y-91058363D01*
X132107829Y-91230589D01*
X132079500Y-91409448D01*
X131000500Y-91409448D01*
X131000500Y-86421153D01*
X137949500Y-86421153D01*
X137949500Y-86578846D01*
X137980261Y-86733489D01*
X137980264Y-86733501D01*
X138040602Y-86879172D01*
X138040609Y-86879185D01*
X138128210Y-87010288D01*
X138128213Y-87010292D01*
X138239707Y-87121786D01*
X138239711Y-87121789D01*
X138370814Y-87209390D01*
X138370827Y-87209397D01*
X138444013Y-87239711D01*
X138516503Y-87269737D01*
X138671153Y-87300499D01*
X138671156Y-87300500D01*
X138671158Y-87300500D01*
X138828844Y-87300500D01*
X138828845Y-87300499D01*
X138983497Y-87269737D01*
X139129179Y-87209394D01*
X139141346Y-87201264D01*
X139260875Y-87121398D01*
X139327553Y-87100520D01*
X139329766Y-87100500D01*
X139913331Y-87100500D01*
X139913347Y-87100501D01*
X139920943Y-87100501D01*
X140079054Y-87100501D01*
X140079057Y-87100501D01*
X140231785Y-87059577D01*
X140281904Y-87030639D01*
X140368716Y-86980520D01*
X140480520Y-86868716D01*
X140480520Y-86868714D01*
X140490728Y-86858507D01*
X140490730Y-86858504D01*
X141608506Y-85740728D01*
X141608511Y-85740724D01*
X141618714Y-85730520D01*
X141618716Y-85730520D01*
X141730520Y-85618716D01*
X141734408Y-85611980D01*
X141788544Y-85518216D01*
X141788545Y-85518214D01*
X141809574Y-85481790D01*
X141809575Y-85481789D01*
X141809575Y-85481787D01*
X141809577Y-85481785D01*
X141850501Y-85329057D01*
X141850501Y-85170943D01*
X141850501Y-85163348D01*
X141850500Y-85163330D01*
X141850500Y-85079765D01*
X141870185Y-85012726D01*
X141871398Y-85010874D01*
X141959390Y-84879185D01*
X141959391Y-84879183D01*
X141959394Y-84879179D01*
X142019737Y-84733497D01*
X142050500Y-84578842D01*
X142050500Y-84421158D01*
X142050500Y-84421155D01*
X142050499Y-84421153D01*
X142023778Y-84286819D01*
X142019737Y-84266503D01*
X142013182Y-84250678D01*
X141959397Y-84120827D01*
X141959390Y-84120814D01*
X141871789Y-83989711D01*
X141871786Y-83989707D01*
X141760292Y-83878213D01*
X141760288Y-83878210D01*
X141629185Y-83790609D01*
X141629172Y-83790602D01*
X141483501Y-83730264D01*
X141483489Y-83730261D01*
X141328845Y-83699500D01*
X141328842Y-83699500D01*
X141171158Y-83699500D01*
X141171155Y-83699500D01*
X141016510Y-83730261D01*
X141016498Y-83730264D01*
X140870827Y-83790602D01*
X140870814Y-83790609D01*
X140739711Y-83878210D01*
X140739707Y-83878213D01*
X140628213Y-83989707D01*
X140628210Y-83989711D01*
X140540609Y-84120814D01*
X140540602Y-84120827D01*
X140480264Y-84266498D01*
X140480261Y-84266510D01*
X140449500Y-84421153D01*
X140449500Y-84578846D01*
X140480261Y-84733489D01*
X140480264Y-84733501D01*
X140540602Y-84879172D01*
X140540608Y-84879183D01*
X140576586Y-84933028D01*
X140597463Y-84999705D01*
X140578978Y-85067085D01*
X140561164Y-85089599D01*
X139787584Y-85863181D01*
X139726261Y-85896666D01*
X139699903Y-85899500D01*
X139329766Y-85899500D01*
X139262727Y-85879815D01*
X139260875Y-85878602D01*
X139129185Y-85790609D01*
X139129172Y-85790602D01*
X138983501Y-85730264D01*
X138983489Y-85730261D01*
X138828845Y-85699500D01*
X138828842Y-85699500D01*
X138671158Y-85699500D01*
X138671155Y-85699500D01*
X138516510Y-85730261D01*
X138516498Y-85730264D01*
X138370827Y-85790602D01*
X138370814Y-85790609D01*
X138239711Y-85878210D01*
X138239707Y-85878213D01*
X138128213Y-85989707D01*
X138128210Y-85989711D01*
X138040609Y-86120814D01*
X138040602Y-86120827D01*
X137980264Y-86266498D01*
X137980261Y-86266510D01*
X137949500Y-86421153D01*
X131000500Y-86421153D01*
X131000500Y-72258675D01*
X131020185Y-72191636D01*
X131036819Y-72170994D01*
X134548608Y-68659205D01*
X140094747Y-63113065D01*
X140156068Y-63079582D01*
X140225760Y-63084566D01*
X140281693Y-63126438D01*
X140306110Y-63191902D01*
X140291784Y-63259201D01*
X140196463Y-63437534D01*
X140196461Y-63437539D01*
X140059220Y-63768863D01*
X139955114Y-64112058D01*
X139885150Y-64463788D01*
X139856962Y-64750000D01*
X140858012Y-64750000D01*
X140840795Y-64759940D01*
X140784940Y-64815795D01*
X140745444Y-64884204D01*
X140725000Y-64960504D01*
X140725000Y-65039496D01*
X140745444Y-65115796D01*
X140784940Y-65184205D01*
X140840795Y-65240060D01*
X140858012Y-65250000D01*
X139856962Y-65250000D01*
X139885150Y-65536211D01*
X139955114Y-65887941D01*
X140059220Y-66231136D01*
X140196461Y-66562460D01*
X140196463Y-66562465D01*
X140365508Y-66878726D01*
X140365519Y-66878744D01*
X140564751Y-67176916D01*
X140564761Y-67176930D01*
X140792271Y-67454151D01*
X141045848Y-67707728D01*
X141323069Y-67935238D01*
X141323083Y-67935248D01*
X141621255Y-68134480D01*
X141621273Y-68134491D01*
X141937534Y-68303536D01*
X141937539Y-68303538D01*
X142268863Y-68440779D01*
X142612058Y-68544885D01*
X142963789Y-68614849D01*
X142963788Y-68614849D01*
X143250000Y-68643037D01*
X143250000Y-67641988D01*
X143259940Y-67659205D01*
X143315795Y-67715060D01*
X143384204Y-67754556D01*
X143460504Y-67775000D01*
X143539496Y-67775000D01*
X143615796Y-67754556D01*
X143684205Y-67715060D01*
X143740060Y-67659205D01*
X143750000Y-67641988D01*
X143750000Y-68643036D01*
X144036211Y-68614849D01*
X144387941Y-68544885D01*
X144731136Y-68440779D01*
X145062460Y-68303538D01*
X145062465Y-68303536D01*
X145378726Y-68134491D01*
X145378744Y-68134480D01*
X145676916Y-67935248D01*
X145676930Y-67935238D01*
X145954151Y-67707728D01*
X146207728Y-67454151D01*
X146435238Y-67176930D01*
X146435248Y-67176916D01*
X146634480Y-66878744D01*
X146634491Y-66878726D01*
X146803536Y-66562465D01*
X146803538Y-66562460D01*
X146884378Y-66367299D01*
X163895500Y-66367299D01*
X163895500Y-66632700D01*
X163921590Y-66830864D01*
X163930140Y-66895808D01*
X163965977Y-67029556D01*
X163993213Y-67131205D01*
X163998826Y-67152151D01*
X164038114Y-67247000D01*
X164100383Y-67397331D01*
X164100388Y-67397342D01*
X164233073Y-67627157D01*
X164233084Y-67627173D01*
X164394632Y-67837708D01*
X164394638Y-67837715D01*
X164582284Y-68025361D01*
X164582291Y-68025367D01*
X164610406Y-68046940D01*
X164792835Y-68186922D01*
X164792842Y-68186926D01*
X165022657Y-68319611D01*
X165022662Y-68319613D01*
X165022665Y-68319615D01*
X165267849Y-68421174D01*
X165524192Y-68489860D01*
X165787307Y-68524500D01*
X165787314Y-68524500D01*
X166052686Y-68524500D01*
X166052693Y-68524500D01*
X166315808Y-68489860D01*
X166572151Y-68421174D01*
X166817335Y-68319615D01*
X167047165Y-68186922D01*
X167257710Y-68025366D01*
X167445366Y-67837710D01*
X167606922Y-67627165D01*
X167739615Y-67397335D01*
X167841174Y-67152151D01*
X167909860Y-66895808D01*
X167944500Y-66632693D01*
X167944500Y-66367307D01*
X167929056Y-66250000D01*
X168991447Y-66250000D01*
X170347502Y-66250000D01*
X170328343Y-66296255D01*
X170301500Y-66431204D01*
X170301500Y-66568796D01*
X170328343Y-66703745D01*
X170347502Y-66750000D01*
X168991448Y-66750000D01*
X169010630Y-66895706D01*
X169079303Y-67151996D01*
X169180828Y-67397101D01*
X169180835Y-67397115D01*
X169313490Y-67626880D01*
X169313495Y-67626887D01*
X169475015Y-67837384D01*
X169662615Y-68024984D01*
X169873112Y-68186504D01*
X169873119Y-68186509D01*
X170102884Y-68319164D01*
X170102898Y-68319171D01*
X170348006Y-68420697D01*
X170348004Y-68420697D01*
X170604294Y-68489369D01*
X170604292Y-68489369D01*
X170749999Y-68508550D01*
X170750000Y-68508550D01*
X170750000Y-67152497D01*
X170796255Y-67171657D01*
X170931204Y-67198500D01*
X171068796Y-67198500D01*
X171203745Y-67171657D01*
X171250000Y-67152497D01*
X171250000Y-68508550D01*
X171395706Y-68489369D01*
X171651994Y-68420697D01*
X171897101Y-68319171D01*
X171897115Y-68319164D01*
X172126880Y-68186509D01*
X172126887Y-68186504D01*
X172337384Y-68024984D01*
X172524984Y-67837384D01*
X172686504Y-67626887D01*
X172686509Y-67626880D01*
X172819164Y-67397115D01*
X172819171Y-67397101D01*
X172920696Y-67151996D01*
X172989369Y-66895706D01*
X173008552Y-66750000D01*
X171652498Y-66750000D01*
X171671657Y-66703745D01*
X171698500Y-66568796D01*
X171698500Y-66431204D01*
X171671657Y-66296255D01*
X171652498Y-66250000D01*
X173008552Y-66250000D01*
X172989369Y-66104293D01*
X172920696Y-65848003D01*
X172819171Y-65602898D01*
X172819164Y-65602884D01*
X172686509Y-65373119D01*
X172686504Y-65373112D01*
X172524984Y-65162615D01*
X172337384Y-64975015D01*
X172126887Y-64813495D01*
X172126880Y-64813490D01*
X171897115Y-64680835D01*
X171897101Y-64680828D01*
X171651996Y-64579303D01*
X171395706Y-64510630D01*
X171250000Y-64491447D01*
X171250000Y-65847502D01*
X171203745Y-65828343D01*
X171068796Y-65801500D01*
X170931204Y-65801500D01*
X170796255Y-65828343D01*
X170750000Y-65847502D01*
X170750000Y-64491447D01*
X170604293Y-64510630D01*
X170348003Y-64579303D01*
X170102898Y-64680828D01*
X170102884Y-64680835D01*
X169873119Y-64813490D01*
X169873112Y-64813495D01*
X169662615Y-64975015D01*
X169475015Y-65162615D01*
X169313495Y-65373112D01*
X169313490Y-65373119D01*
X169180835Y-65602884D01*
X169180828Y-65602898D01*
X169079303Y-65848003D01*
X169010630Y-66104293D01*
X168991447Y-66250000D01*
X167929056Y-66250000D01*
X167909860Y-66104192D01*
X167841174Y-65847849D01*
X167739615Y-65602665D01*
X167739613Y-65602662D01*
X167739611Y-65602657D01*
X167606926Y-65372842D01*
X167606922Y-65372835D01*
X167502773Y-65237105D01*
X167445367Y-65162291D01*
X167445361Y-65162284D01*
X167257715Y-64974638D01*
X167257708Y-64974632D01*
X167047173Y-64813084D01*
X167047171Y-64813082D01*
X167047165Y-64813078D01*
X167047160Y-64813075D01*
X167047157Y-64813073D01*
X166817342Y-64680388D01*
X166817331Y-64680383D01*
X166673708Y-64620892D01*
X166572151Y-64578826D01*
X166572149Y-64578825D01*
X166572148Y-64578825D01*
X166464569Y-64550000D01*
X166315808Y-64510140D01*
X166271836Y-64504351D01*
X166052700Y-64475500D01*
X166052693Y-64475500D01*
X165787307Y-64475500D01*
X165787299Y-64475500D01*
X165536856Y-64508472D01*
X165524192Y-64510140D01*
X165451730Y-64529556D01*
X165267851Y-64578825D01*
X165022668Y-64680383D01*
X165022657Y-64680388D01*
X164792842Y-64813073D01*
X164792826Y-64813084D01*
X164582291Y-64974632D01*
X164582284Y-64974638D01*
X164394638Y-65162284D01*
X164394632Y-65162291D01*
X164233084Y-65372826D01*
X164233073Y-65372842D01*
X164100388Y-65602657D01*
X164100383Y-65602668D01*
X163998825Y-65847851D01*
X163930141Y-66104189D01*
X163930139Y-66104200D01*
X163895500Y-66367299D01*
X146884378Y-66367299D01*
X146905712Y-66315795D01*
X146940779Y-66231136D01*
X147044885Y-65887941D01*
X147114849Y-65536211D01*
X147143038Y-65250000D01*
X146141988Y-65250000D01*
X146159205Y-65240060D01*
X146215060Y-65184205D01*
X146254556Y-65115796D01*
X146275000Y-65039496D01*
X146275000Y-64960504D01*
X146254556Y-64884204D01*
X146215060Y-64815795D01*
X146159205Y-64759940D01*
X146141988Y-64750000D01*
X147143037Y-64750000D01*
X147114849Y-64463788D01*
X147044885Y-64112058D01*
X146940779Y-63768863D01*
X146803538Y-63437539D01*
X146803536Y-63437534D01*
X146634491Y-63121273D01*
X146634480Y-63121255D01*
X146435248Y-62823083D01*
X146435238Y-62823069D01*
X146207728Y-62545848D01*
X145954151Y-62292271D01*
X145676930Y-62064761D01*
X145676916Y-62064751D01*
X145378744Y-61865519D01*
X145378726Y-61865508D01*
X145132425Y-61733858D01*
X145082581Y-61684896D01*
X145067120Y-61616758D01*
X145090952Y-61551079D01*
X145146509Y-61508710D01*
X145190878Y-61500500D01*
X193875500Y-61500500D01*
X193942539Y-61520185D01*
G37*
%TD.AperFunction*%
%TA.AperFunction,Conductor*%
G36*
X190750000Y-114308011D02*
G01*
X190740060Y-114290795D01*
X190684205Y-114234940D01*
X190615796Y-114195444D01*
X190539496Y-114175000D01*
X190460504Y-114175000D01*
X190384204Y-114195444D01*
X190315795Y-114234940D01*
X190259940Y-114290795D01*
X190250000Y-114308011D01*
X190250000Y-113782618D01*
X190382022Y-113800000D01*
X190617978Y-113800000D01*
X190750000Y-113782618D01*
X190750000Y-114308011D01*
G37*
%TD.AperFunction*%
%TA.AperFunction,Conductor*%
G36*
X188700000Y-111882022D02*
G01*
X188700000Y-112117978D01*
X188717381Y-112250000D01*
X188191988Y-112250000D01*
X188209205Y-112240060D01*
X188265060Y-112184205D01*
X188304556Y-112115796D01*
X188325000Y-112039496D01*
X188325000Y-111960504D01*
X188304556Y-111884204D01*
X188265060Y-111815795D01*
X188209205Y-111759940D01*
X188191988Y-111750000D01*
X188717381Y-111750000D01*
X188700000Y-111882022D01*
G37*
%TD.AperFunction*%
%TA.AperFunction,Conductor*%
G36*
X190750000Y-110217381D02*
G01*
X190617978Y-110200000D01*
X190382022Y-110200000D01*
X190250000Y-110217381D01*
X190250000Y-109691988D01*
X190259940Y-109709205D01*
X190315795Y-109765060D01*
X190384204Y-109804556D01*
X190460504Y-109825000D01*
X190539496Y-109825000D01*
X190615796Y-109804556D01*
X190684205Y-109765060D01*
X190740060Y-109709205D01*
X190750000Y-109691988D01*
X190750000Y-110217381D01*
G37*
%TD.AperFunction*%
%TA.AperFunction,Conductor*%
G36*
X143750000Y-67308011D02*
G01*
X143740060Y-67290795D01*
X143684205Y-67234940D01*
X143615796Y-67195444D01*
X143539496Y-67175000D01*
X143460504Y-67175000D01*
X143384204Y-67195444D01*
X143315795Y-67234940D01*
X143259940Y-67290795D01*
X143250000Y-67308011D01*
X143250000Y-66782618D01*
X143382022Y-66800000D01*
X143617978Y-66800000D01*
X143750000Y-66782618D01*
X143750000Y-67308011D01*
G37*
%TD.AperFunction*%
%TA.AperFunction,Conductor*%
G36*
X141700000Y-64882022D02*
G01*
X141700000Y-65117978D01*
X141717381Y-65250000D01*
X141191988Y-65250000D01*
X141209205Y-65240060D01*
X141265060Y-65184205D01*
X141304556Y-65115796D01*
X141325000Y-65039496D01*
X141325000Y-64960504D01*
X141304556Y-64884204D01*
X141265060Y-64815795D01*
X141209205Y-64759940D01*
X141191988Y-64750000D01*
X141717381Y-64750000D01*
X141700000Y-64882022D01*
G37*
%TD.AperFunction*%
%TA.AperFunction,Conductor*%
G36*
X145790795Y-64759940D02*
G01*
X145734940Y-64815795D01*
X145695444Y-64884204D01*
X145675000Y-64960504D01*
X145675000Y-65039496D01*
X145695444Y-65115796D01*
X145734940Y-65184205D01*
X145790795Y-65240060D01*
X145808012Y-65250000D01*
X145282619Y-65250000D01*
X145300000Y-65117978D01*
X145300000Y-64882022D01*
X145282619Y-64750000D01*
X145808012Y-64750000D01*
X145790795Y-64759940D01*
G37*
%TD.AperFunction*%
%TD*%
M02*
