%TF.GenerationSoftware,KiCad,Pcbnew,9.0.6*%
%TF.CreationDate,2026-01-04T20:20:59-05:00*%
%TF.ProjectId,Charge_Indicator,43686172-6765-45f4-996e-64696361746f,rev?*%
%TF.SameCoordinates,Original*%
%TF.FileFunction,Copper,L2,Bot*%
%TF.FilePolarity,Positive*%
%FSLAX46Y46*%
G04 Gerber Fmt 4.6, Leading zero omitted, Abs format (unit mm)*
G04 Created by KiCad (PCBNEW 9.0.6) date 2026-01-04 20:20:59*
%MOMM*%
%LPD*%
G01*
G04 APERTURE LIST*
%TA.AperFunction,ComponentPad*%
%ADD10C,0.001000*%
%TD*%
%TA.AperFunction,ComponentPad*%
%ADD11C,6.300000*%
%TD*%
%TA.AperFunction,WasherPad*%
%ADD12R,0.001000X0.001000*%
%TD*%
%TA.AperFunction,ComponentPad*%
%ADD13C,3.048000*%
%TD*%
%TA.AperFunction,ViaPad*%
%ADD14C,0.600000*%
%TD*%
%TA.AperFunction,Conductor*%
%ADD15C,0.200000*%
%TD*%
%TA.AperFunction,Conductor*%
%ADD16C,2.000000*%
%TD*%
%TA.AperFunction,Conductor*%
%ADD17C,1.000000*%
%TD*%
G04 APERTURE END LIST*
D10*
%TO.P,M1,1,1*%
%TO.N,AGND*%
X187025000Y-66000000D03*
X187213000Y-65053000D03*
X187213400Y-66947100D03*
X187750000Y-64250000D03*
X187750000Y-67750000D03*
X188552900Y-63713400D03*
X188553000Y-68287000D03*
X189500000Y-63525000D03*
D11*
X189500000Y-66000000D03*
D10*
X189500000Y-68475000D03*
X190447000Y-63713000D03*
X190447100Y-68286600D03*
X191250000Y-64250000D03*
X191250000Y-67750000D03*
X191786600Y-65052900D03*
X191787000Y-66947000D03*
X191975000Y-66000000D03*
%TD*%
D12*
%TO.P,SW1,*%
%TO.N,*%
X132500000Y-106500000D03*
X132500000Y-109500000D03*
%TD*%
D10*
%TO.P,M3,1,1*%
%TO.N,AGND*%
X133025000Y-120000000D03*
X133213000Y-119053000D03*
X133213400Y-120947100D03*
X133750000Y-118250000D03*
X133750000Y-121750000D03*
X134552900Y-117713400D03*
X134553000Y-122287000D03*
X135500000Y-117525000D03*
D11*
X135500000Y-120000000D03*
D10*
X135500000Y-122475000D03*
X136447000Y-117713000D03*
X136447100Y-122286600D03*
X137250000Y-118250000D03*
X137250000Y-121750000D03*
X137786600Y-119052900D03*
X137787000Y-120947000D03*
X137975000Y-120000000D03*
%TD*%
%TO.P,M4,1,1*%
%TO.N,AGND*%
X141025000Y-65000000D03*
X141213000Y-64053000D03*
X141213400Y-65947100D03*
X141750000Y-63250000D03*
X141750000Y-66750000D03*
X142552900Y-62713400D03*
X142553000Y-67287000D03*
X143500000Y-62525000D03*
D11*
X143500000Y-65000000D03*
D10*
X143500000Y-67475000D03*
X144447000Y-62713000D03*
X144447100Y-67286600D03*
X145250000Y-63250000D03*
X145250000Y-66750000D03*
X145786600Y-64052900D03*
X145787000Y-65947000D03*
X145975000Y-65000000D03*
%TD*%
%TO.P,M2,1,1*%
%TO.N,AGND*%
X188025000Y-112000000D03*
X188213000Y-111053000D03*
X188213400Y-112947100D03*
X188750000Y-110250000D03*
X188750000Y-113750000D03*
X189552900Y-109713400D03*
X189553000Y-114287000D03*
X190500000Y-109525000D03*
D11*
X190500000Y-112000000D03*
D10*
X190500000Y-114475000D03*
X191447000Y-109713000D03*
X191447100Y-114286600D03*
X192250000Y-110250000D03*
X192250000Y-113750000D03*
X192786600Y-111052900D03*
X192787000Y-112947000D03*
X192975000Y-112000000D03*
%TD*%
D13*
%TO.P,J3,1,1*%
%TO.N,Net-(U3-IN+)*%
X181500000Y-66500000D03*
%TO.P,J3,2,2*%
%TO.N,/BAT-*%
X176420000Y-66500000D03*
%TD*%
%TO.P,J2,1,1*%
%TO.N,AGND*%
X171000000Y-66500000D03*
%TO.P,J2,2,2*%
%TO.N,/BAT+*%
X165920000Y-66500000D03*
%TD*%
D14*
%TO.N,+5v*%
X136000000Y-104500000D03*
X154750000Y-88901000D03*
X169500000Y-90400000D03*
%TO.N,+3v3*%
X138500000Y-86500000D03*
X145525000Y-104000000D03*
X141250000Y-84750000D03*
X179700000Y-92750000D03*
X140400000Y-102000000D03*
%TO.N,AGND*%
X138750000Y-96250000D03*
X142250000Y-94250000D03*
X133250000Y-94250000D03*
X173500000Y-90500000D03*
X163750000Y-89250000D03*
X138500000Y-94250000D03*
X141250000Y-112250000D03*
X173500000Y-88000000D03*
%TO.N,/SDA*%
X152250000Y-98000000D03*
X148375000Y-101875000D03*
X145342510Y-112657490D03*
%TO.N,/SCL*%
X143650000Y-109500000D03*
X147400000Y-105500000D03*
X152250000Y-95500000D03*
%TO.N,/BAT-*%
X160500000Y-71500000D03*
X161500000Y-71500000D03*
X145275000Y-91000000D03*
X159500000Y-71500000D03*
%TO.N,/HDQ*%
X144000000Y-91750000D03*
X138500000Y-93250000D03*
%TO.N,/P1*%
X155750000Y-84500000D03*
X164000000Y-86500000D03*
%TO.N,/P2*%
X160373479Y-85643595D03*
X163353416Y-87351807D03*
%TO.N,/ENABLE*%
X135500000Y-105750070D03*
X143000000Y-103201000D03*
%TD*%
D15*
%TO.N,+5v*%
X164500000Y-90000000D02*
X164250000Y-90250000D01*
X156099000Y-90250000D02*
X154750000Y-88901000D01*
X164250000Y-90250000D02*
X156099000Y-90250000D01*
X137500000Y-103000000D02*
X137500000Y-101900057D01*
X169500000Y-90400000D02*
X169100000Y-90000000D01*
X169100000Y-90000000D02*
X164500000Y-90000000D01*
X150499057Y-88901000D02*
X154750000Y-88901000D01*
X136000000Y-104500000D02*
X137500000Y-103000000D01*
X137500000Y-101900057D02*
X150499057Y-88901000D01*
%TO.N,+3v3*%
X143525000Y-102000000D02*
X140400000Y-102000000D01*
X140000000Y-86500000D02*
X138500000Y-86500000D01*
X145525000Y-104000000D02*
X144250000Y-105275000D01*
X141250000Y-85250000D02*
X140000000Y-86500000D01*
X144250000Y-114750000D02*
X145500000Y-116000000D01*
X179450000Y-93000000D02*
X179700000Y-92750000D01*
X141250000Y-84750000D02*
X141250000Y-85250000D01*
X145500000Y-116000000D02*
X175750000Y-116000000D01*
X145525000Y-104000000D02*
X143525000Y-102000000D01*
X144250000Y-105275000D02*
X144250000Y-114750000D01*
X179450000Y-112300000D02*
X179450000Y-93000000D01*
X175750000Y-116000000D02*
X179450000Y-112300000D01*
%TO.N,AGND*%
X142250000Y-94250000D02*
X138500000Y-94250000D01*
X138500000Y-94250000D02*
X133250000Y-94250000D01*
%TO.N,/SDA*%
X148000000Y-105250057D02*
X148000000Y-102250000D01*
X148000000Y-110000000D02*
X145342510Y-112657490D01*
X148001000Y-105251057D02*
X148000000Y-105250057D01*
X148000000Y-110000000D02*
X148000000Y-105749943D01*
X148000000Y-105749943D02*
X148001000Y-105748943D01*
X148001000Y-105748943D02*
X148001000Y-105251057D01*
X148000000Y-102250000D02*
X148375000Y-101875000D01*
X148375000Y-101875000D02*
X152250000Y-98000000D01*
%TO.N,/SCL*%
X147500000Y-100250000D02*
X147500000Y-105400000D01*
X139799000Y-102248943D02*
X139799000Y-101751057D01*
X147600000Y-105417157D02*
X147600000Y-105582843D01*
X140151057Y-102601000D02*
X139799000Y-102248943D01*
X147500000Y-100250000D02*
X152250000Y-95500000D01*
X143650000Y-102967100D02*
X143283900Y-102601000D01*
X147500000Y-105400000D02*
X147400000Y-105500000D01*
X141300057Y-100250000D02*
X147500000Y-100250000D01*
X139799000Y-101751057D02*
X141300057Y-100250000D01*
X143283900Y-102601000D02*
X140151057Y-102601000D01*
X147600000Y-105582843D02*
X147599000Y-105583843D01*
X143650000Y-109500000D02*
X143650000Y-102967100D01*
X147599000Y-105416157D02*
X147600000Y-105417157D01*
D16*
%TO.N,/BAT-*%
X176420000Y-72000000D02*
X161000000Y-72000000D01*
X176420000Y-66500000D02*
X176420000Y-72000000D01*
X176420000Y-78580000D02*
X171750000Y-83250000D01*
D17*
X145275000Y-91000000D02*
X145775000Y-90500000D01*
X153000000Y-83250000D02*
X171750000Y-83250000D01*
X145775000Y-90475000D02*
X153000000Y-83250000D01*
D16*
X176420000Y-72000000D02*
X176420000Y-78580000D01*
D17*
X145775000Y-90500000D02*
X145775000Y-90475000D01*
D16*
X161000000Y-72000000D02*
X160500000Y-71500000D01*
D15*
%TO.N,/HDQ*%
X139018181Y-92751000D02*
X138999000Y-92751000D01*
X144000000Y-91750000D02*
X140019181Y-91750000D01*
X138999000Y-92751000D02*
X138500000Y-93250000D01*
X140019181Y-91750000D02*
X139018181Y-92751000D01*
%TO.N,/P1*%
X155750000Y-85750000D02*
X155750000Y-84500000D01*
X163500000Y-88500000D02*
X158500000Y-88500000D01*
X164000000Y-88000000D02*
X163500000Y-88500000D01*
X164000000Y-86500000D02*
X164000000Y-88000000D01*
X158500000Y-88500000D02*
X155750000Y-85750000D01*
%TO.N,/P2*%
X161643595Y-85643595D02*
X160373479Y-85643595D01*
X163341620Y-87341620D02*
X161643595Y-85643595D01*
X163343229Y-87341620D02*
X163341620Y-87341620D01*
X163353416Y-87351807D02*
X163343229Y-87341620D01*
%TO.N,/ENABLE*%
X142917185Y-103201000D02*
X142618185Y-103500000D01*
X136650930Y-105750070D02*
X135500000Y-105750070D01*
X143000000Y-103201000D02*
X142917185Y-103201000D01*
X142618185Y-103500000D02*
X141500000Y-103500000D01*
X140500000Y-104500000D02*
X137901000Y-104500000D01*
X137901000Y-104500000D02*
X136650930Y-105750070D01*
X141500000Y-103500000D02*
X140500000Y-104500000D01*
%TD*%
%TA.AperFunction,Conductor*%
%TO.N,AGND*%
G36*
X135750000Y-122308011D02*
G01*
X135740060Y-122290795D01*
X135684205Y-122234940D01*
X135615796Y-122195444D01*
X135539496Y-122175000D01*
X135460504Y-122175000D01*
X135384204Y-122195444D01*
X135315795Y-122234940D01*
X135259940Y-122290795D01*
X135250000Y-122308011D01*
X135250000Y-121782618D01*
X135382022Y-121800000D01*
X135617978Y-121800000D01*
X135750000Y-121782618D01*
X135750000Y-122308011D01*
G37*
%TD.AperFunction*%
%TA.AperFunction,Conductor*%
G36*
X133700000Y-119882022D02*
G01*
X133700000Y-120117978D01*
X133717381Y-120250000D01*
X133191988Y-120250000D01*
X133209205Y-120240060D01*
X133265060Y-120184205D01*
X133304556Y-120115796D01*
X133325000Y-120039496D01*
X133325000Y-119960504D01*
X133304556Y-119884204D01*
X133265060Y-119815795D01*
X133209205Y-119759940D01*
X133191988Y-119750000D01*
X133717381Y-119750000D01*
X133700000Y-119882022D01*
G37*
%TD.AperFunction*%
%TA.AperFunction,Conductor*%
G36*
X137790795Y-119759940D02*
G01*
X137734940Y-119815795D01*
X137695444Y-119884204D01*
X137675000Y-119960504D01*
X137675000Y-120039496D01*
X137695444Y-120115796D01*
X137734940Y-120184205D01*
X137790795Y-120240060D01*
X137808012Y-120250000D01*
X137282619Y-120250000D01*
X137300000Y-120117978D01*
X137300000Y-119882022D01*
X137282619Y-119750000D01*
X137808012Y-119750000D01*
X137790795Y-119759940D01*
G37*
%TD.AperFunction*%
%TA.AperFunction,Conductor*%
G36*
X135750000Y-118217381D02*
G01*
X135617978Y-118200000D01*
X135382022Y-118200000D01*
X135250000Y-118217381D01*
X135250000Y-117691988D01*
X135259940Y-117709205D01*
X135315795Y-117765060D01*
X135384204Y-117804556D01*
X135460504Y-117825000D01*
X135539496Y-117825000D01*
X135615796Y-117804556D01*
X135684205Y-117765060D01*
X135740060Y-117709205D01*
X135750000Y-117691988D01*
X135750000Y-118217381D01*
G37*
%TD.AperFunction*%
%TA.AperFunction,Conductor*%
G36*
X189750000Y-68308011D02*
G01*
X189740060Y-68290795D01*
X189684205Y-68234940D01*
X189615796Y-68195444D01*
X189539496Y-68175000D01*
X189460504Y-68175000D01*
X189384204Y-68195444D01*
X189315795Y-68234940D01*
X189259940Y-68290795D01*
X189250000Y-68308011D01*
X189250000Y-67782618D01*
X189382022Y-67800000D01*
X189617978Y-67800000D01*
X189750000Y-67782618D01*
X189750000Y-68308011D01*
G37*
%TD.AperFunction*%
%TA.AperFunction,Conductor*%
G36*
X187700000Y-65882022D02*
G01*
X187700000Y-66117978D01*
X187717381Y-66250000D01*
X187191988Y-66250000D01*
X187209205Y-66240060D01*
X187265060Y-66184205D01*
X187304556Y-66115796D01*
X187325000Y-66039496D01*
X187325000Y-65960504D01*
X187304556Y-65884204D01*
X187265060Y-65815795D01*
X187209205Y-65759940D01*
X187191988Y-65750000D01*
X187717381Y-65750000D01*
X187700000Y-65882022D01*
G37*
%TD.AperFunction*%
%TA.AperFunction,Conductor*%
G36*
X191790795Y-65759940D02*
G01*
X191734940Y-65815795D01*
X191695444Y-65884204D01*
X191675000Y-65960504D01*
X191675000Y-66039496D01*
X191695444Y-66115796D01*
X191734940Y-66184205D01*
X191790795Y-66240060D01*
X191808012Y-66250000D01*
X191282619Y-66250000D01*
X191300000Y-66117978D01*
X191300000Y-65882022D01*
X191282619Y-65750000D01*
X191808012Y-65750000D01*
X191790795Y-65759940D01*
G37*
%TD.AperFunction*%
%TA.AperFunction,Conductor*%
G36*
X189750000Y-64217381D02*
G01*
X189617978Y-64200000D01*
X189382022Y-64200000D01*
X189250000Y-64217381D01*
X189250000Y-63691988D01*
X189259940Y-63709205D01*
X189315795Y-63765060D01*
X189384204Y-63804556D01*
X189460504Y-63825000D01*
X189539496Y-63825000D01*
X189615796Y-63804556D01*
X189684205Y-63765060D01*
X189740060Y-63709205D01*
X189750000Y-63691988D01*
X189750000Y-64217381D01*
G37*
%TD.AperFunction*%
%TA.AperFunction,Conductor*%
G36*
X193942539Y-61520185D02*
G01*
X193988294Y-61572989D01*
X193999500Y-61624500D01*
X193999500Y-110309121D01*
X193979815Y-110376160D01*
X193927011Y-110421915D01*
X193857853Y-110431859D01*
X193794297Y-110402834D01*
X193766142Y-110367574D01*
X193634491Y-110121273D01*
X193634480Y-110121255D01*
X193435248Y-109823083D01*
X193435238Y-109823069D01*
X193207728Y-109545848D01*
X192954151Y-109292271D01*
X192676930Y-109064761D01*
X192676916Y-109064751D01*
X192378744Y-108865519D01*
X192378726Y-108865508D01*
X192062465Y-108696463D01*
X192062460Y-108696461D01*
X191731136Y-108559220D01*
X191387941Y-108455114D01*
X191036218Y-108385152D01*
X191036201Y-108385149D01*
X190750001Y-108356960D01*
X190750000Y-108356961D01*
X190750000Y-109358011D01*
X190740060Y-109340795D01*
X190684205Y-109284940D01*
X190615796Y-109245444D01*
X190539496Y-109225000D01*
X190460504Y-109225000D01*
X190384204Y-109245444D01*
X190315795Y-109284940D01*
X190259940Y-109340795D01*
X190250000Y-109358011D01*
X190250000Y-108356961D01*
X190249998Y-108356960D01*
X189963798Y-108385149D01*
X189963781Y-108385152D01*
X189612058Y-108455114D01*
X189268863Y-108559220D01*
X188937539Y-108696461D01*
X188937534Y-108696463D01*
X188621273Y-108865508D01*
X188621255Y-108865519D01*
X188323083Y-109064751D01*
X188323069Y-109064761D01*
X188045848Y-109292271D01*
X187792271Y-109545848D01*
X187564761Y-109823069D01*
X187564751Y-109823083D01*
X187365519Y-110121255D01*
X187365508Y-110121273D01*
X187196463Y-110437534D01*
X187196461Y-110437539D01*
X187059220Y-110768863D01*
X186955114Y-111112058D01*
X186885150Y-111463788D01*
X186856962Y-111750000D01*
X187858012Y-111750000D01*
X187840795Y-111759940D01*
X187784940Y-111815795D01*
X187745444Y-111884204D01*
X187725000Y-111960504D01*
X187725000Y-112039496D01*
X187745444Y-112115796D01*
X187784940Y-112184205D01*
X187840795Y-112240060D01*
X187858012Y-112250000D01*
X186856962Y-112250000D01*
X186885150Y-112536211D01*
X186955114Y-112887941D01*
X187059220Y-113231136D01*
X187196461Y-113562460D01*
X187196463Y-113562465D01*
X187365508Y-113878726D01*
X187365519Y-113878744D01*
X187564751Y-114176916D01*
X187564761Y-114176930D01*
X187792271Y-114454151D01*
X188045848Y-114707728D01*
X188323069Y-114935238D01*
X188323083Y-114935248D01*
X188621255Y-115134480D01*
X188621273Y-115134491D01*
X188937534Y-115303536D01*
X188937539Y-115303538D01*
X189268863Y-115440779D01*
X189612058Y-115544885D01*
X189963789Y-115614849D01*
X189963788Y-115614849D01*
X190250000Y-115643037D01*
X190250000Y-114641988D01*
X190259940Y-114659205D01*
X190315795Y-114715060D01*
X190384204Y-114754556D01*
X190460504Y-114775000D01*
X190539496Y-114775000D01*
X190615796Y-114754556D01*
X190684205Y-114715060D01*
X190740060Y-114659205D01*
X190750000Y-114641988D01*
X190750000Y-115643036D01*
X191036211Y-115614849D01*
X191387941Y-115544885D01*
X191731136Y-115440779D01*
X192062458Y-115303539D01*
X192240795Y-115208216D01*
X192309198Y-115193974D01*
X192374442Y-115218974D01*
X192415813Y-115275279D01*
X192420175Y-115345012D01*
X192386930Y-115405255D01*
X183329005Y-124463181D01*
X183267682Y-124496666D01*
X183241324Y-124499500D01*
X131124500Y-124499500D01*
X131057461Y-124479815D01*
X131011706Y-124427011D01*
X131000500Y-124375500D01*
X131000500Y-119750000D01*
X131856962Y-119750000D01*
X132858012Y-119750000D01*
X132840795Y-119759940D01*
X132784940Y-119815795D01*
X132745444Y-119884204D01*
X132725000Y-119960504D01*
X132725000Y-120039496D01*
X132745444Y-120115796D01*
X132784940Y-120184205D01*
X132840795Y-120240060D01*
X132858012Y-120250000D01*
X131856962Y-120250000D01*
X131885150Y-120536211D01*
X131955114Y-120887941D01*
X132059220Y-121231136D01*
X132196461Y-121562460D01*
X132196463Y-121562465D01*
X132365508Y-121878726D01*
X132365519Y-121878744D01*
X132564751Y-122176916D01*
X132564761Y-122176930D01*
X132792271Y-122454151D01*
X133045848Y-122707728D01*
X133323069Y-122935238D01*
X133323083Y-122935248D01*
X133621255Y-123134480D01*
X133621273Y-123134491D01*
X133937534Y-123303536D01*
X133937539Y-123303538D01*
X134268863Y-123440779D01*
X134612058Y-123544885D01*
X134963789Y-123614849D01*
X134963788Y-123614849D01*
X135250000Y-123643037D01*
X135250000Y-122641988D01*
X135259940Y-122659205D01*
X135315795Y-122715060D01*
X135384204Y-122754556D01*
X135460504Y-122775000D01*
X135539496Y-122775000D01*
X135615796Y-122754556D01*
X135684205Y-122715060D01*
X135740060Y-122659205D01*
X135750000Y-122641988D01*
X135750000Y-123643036D01*
X136036211Y-123614849D01*
X136387941Y-123544885D01*
X136731136Y-123440779D01*
X137062460Y-123303538D01*
X137062465Y-123303536D01*
X137378726Y-123134491D01*
X137378744Y-123134480D01*
X137676916Y-122935248D01*
X137676930Y-122935238D01*
X137954151Y-122707728D01*
X138207728Y-122454151D01*
X138435238Y-122176930D01*
X138435248Y-122176916D01*
X138634480Y-121878744D01*
X138634491Y-121878726D01*
X138803536Y-121562465D01*
X138803538Y-121562460D01*
X138940779Y-121231136D01*
X139044885Y-120887941D01*
X139114849Y-120536211D01*
X139143038Y-120250000D01*
X138141988Y-120250000D01*
X138159205Y-120240060D01*
X138215060Y-120184205D01*
X138254556Y-120115796D01*
X138275000Y-120039496D01*
X138275000Y-119960504D01*
X138254556Y-119884204D01*
X138215060Y-119815795D01*
X138159205Y-119759940D01*
X138141988Y-119750000D01*
X139143037Y-119750000D01*
X139114849Y-119463788D01*
X139044885Y-119112058D01*
X138940779Y-118768863D01*
X138803538Y-118437539D01*
X138803536Y-118437534D01*
X138634491Y-118121273D01*
X138634480Y-118121255D01*
X138435248Y-117823083D01*
X138435238Y-117823069D01*
X138207728Y-117545848D01*
X137954151Y-117292271D01*
X137676930Y-117064761D01*
X137676916Y-117064751D01*
X137378744Y-116865519D01*
X137378726Y-116865508D01*
X137062465Y-116696463D01*
X137062460Y-116696461D01*
X136731136Y-116559220D01*
X136387941Y-116455114D01*
X136036218Y-116385152D01*
X136036201Y-116385149D01*
X135750001Y-116356960D01*
X135750000Y-116356961D01*
X135750000Y-117358011D01*
X135740060Y-117340795D01*
X135684205Y-117284940D01*
X135615796Y-117245444D01*
X135539496Y-117225000D01*
X135460504Y-117225000D01*
X135384204Y-117245444D01*
X135315795Y-117284940D01*
X135259940Y-117340795D01*
X135250000Y-117358011D01*
X135250000Y-116356961D01*
X135249998Y-116356960D01*
X134963798Y-116385149D01*
X134963781Y-116385152D01*
X134612058Y-116455114D01*
X134268863Y-116559220D01*
X133937539Y-116696461D01*
X133937534Y-116696463D01*
X133621273Y-116865508D01*
X133621255Y-116865519D01*
X133323083Y-117064751D01*
X133323069Y-117064761D01*
X133045848Y-117292271D01*
X132792271Y-117545848D01*
X132564761Y-117823069D01*
X132564751Y-117823083D01*
X132365519Y-118121255D01*
X132365508Y-118121273D01*
X132196463Y-118437534D01*
X132196461Y-118437539D01*
X132059220Y-118768863D01*
X131955114Y-119112058D01*
X131885150Y-119463788D01*
X131856962Y-119750000D01*
X131000500Y-119750000D01*
X131000500Y-109568995D01*
X131799499Y-109568995D01*
X131826418Y-109704322D01*
X131826421Y-109704332D01*
X131879221Y-109831804D01*
X131879228Y-109831817D01*
X131955885Y-109946541D01*
X131955888Y-109946545D01*
X132053454Y-110044111D01*
X132053458Y-110044114D01*
X132168182Y-110120771D01*
X132168195Y-110120778D01*
X132295667Y-110173578D01*
X132295672Y-110173580D01*
X132295676Y-110173580D01*
X132295677Y-110173581D01*
X132431004Y-110200500D01*
X132431007Y-110200500D01*
X132568995Y-110200500D01*
X132660041Y-110182389D01*
X132704328Y-110173580D01*
X132831811Y-110120775D01*
X132946542Y-110044114D01*
X133044114Y-109946542D01*
X133120775Y-109831811D01*
X133173580Y-109704328D01*
X133194809Y-109597604D01*
X133200500Y-109568995D01*
X133200500Y-109431004D01*
X133173581Y-109295677D01*
X133173580Y-109295676D01*
X133173580Y-109295672D01*
X133144307Y-109225000D01*
X133120778Y-109168195D01*
X133120771Y-109168182D01*
X133044114Y-109053458D01*
X133044111Y-109053454D01*
X132946545Y-108955888D01*
X132946541Y-108955885D01*
X132831817Y-108879228D01*
X132831804Y-108879221D01*
X132704332Y-108826421D01*
X132704322Y-108826418D01*
X132568995Y-108799500D01*
X132568993Y-108799500D01*
X132431007Y-108799500D01*
X132431005Y-108799500D01*
X132295677Y-108826418D01*
X132295667Y-108826421D01*
X132168195Y-108879221D01*
X132168182Y-108879228D01*
X132053458Y-108955885D01*
X132053454Y-108955888D01*
X131955888Y-109053454D01*
X131955885Y-109053458D01*
X131879228Y-109168182D01*
X131879221Y-109168195D01*
X131826421Y-109295667D01*
X131826418Y-109295677D01*
X131799500Y-109431004D01*
X131799500Y-109431007D01*
X131799500Y-109568993D01*
X131799500Y-109568995D01*
X131799499Y-109568995D01*
X131000500Y-109568995D01*
X131000500Y-106568995D01*
X131799499Y-106568995D01*
X131826418Y-106704322D01*
X131826421Y-106704332D01*
X131879221Y-106831804D01*
X131879228Y-106831817D01*
X131955885Y-106946541D01*
X131955888Y-106946545D01*
X132053454Y-107044111D01*
X132053458Y-107044114D01*
X132168182Y-107120771D01*
X132168195Y-107120778D01*
X132295667Y-107173578D01*
X132295672Y-107173580D01*
X132295676Y-107173580D01*
X132295677Y-107173581D01*
X132431004Y-107200500D01*
X132431007Y-107200500D01*
X132568995Y-107200500D01*
X132660041Y-107182389D01*
X132704328Y-107173580D01*
X132831811Y-107120775D01*
X132946542Y-107044114D01*
X133044114Y-106946542D01*
X133120775Y-106831811D01*
X133173580Y-106704328D01*
X133200500Y-106568993D01*
X133200500Y-106431007D01*
X133200500Y-106431004D01*
X133173581Y-106295677D01*
X133173580Y-106295676D01*
X133173580Y-106295672D01*
X133173578Y-106295667D01*
X133120778Y-106168195D01*
X133120771Y-106168182D01*
X133044114Y-106053458D01*
X133044111Y-106053454D01*
X132946545Y-105955888D01*
X132946541Y-105955885D01*
X132831817Y-105879228D01*
X132831804Y-105879221D01*
X132704332Y-105826421D01*
X132704322Y-105826418D01*
X132568995Y-105799500D01*
X132568993Y-105799500D01*
X132431007Y-105799500D01*
X132431005Y-105799500D01*
X132295677Y-105826418D01*
X132295667Y-105826421D01*
X132168195Y-105879221D01*
X132168182Y-105879228D01*
X132053458Y-105955885D01*
X132053454Y-105955888D01*
X131955888Y-106053454D01*
X131955885Y-106053458D01*
X131879228Y-106168182D01*
X131879221Y-106168195D01*
X131826421Y-106295667D01*
X131826418Y-106295677D01*
X131799500Y-106431004D01*
X131799500Y-106431007D01*
X131799500Y-106568993D01*
X131799500Y-106568995D01*
X131799499Y-106568995D01*
X131000500Y-106568995D01*
X131000500Y-105671223D01*
X134699500Y-105671223D01*
X134699500Y-105828916D01*
X134730261Y-105983559D01*
X134730264Y-105983571D01*
X134790602Y-106129242D01*
X134790609Y-106129255D01*
X134878210Y-106260358D01*
X134878213Y-106260362D01*
X134989707Y-106371856D01*
X134989711Y-106371859D01*
X135120814Y-106459460D01*
X135120827Y-106459467D01*
X135266498Y-106519805D01*
X135266503Y-106519807D01*
X135421153Y-106550569D01*
X135421156Y-106550570D01*
X135421158Y-106550570D01*
X135578844Y-106550570D01*
X135578845Y-106550569D01*
X135733497Y-106519807D01*
X135879179Y-106459464D01*
X135921768Y-106431007D01*
X136010875Y-106371468D01*
X136077553Y-106350590D01*
X136079766Y-106350570D01*
X136564261Y-106350570D01*
X136564277Y-106350571D01*
X136571873Y-106350571D01*
X136729984Y-106350571D01*
X136729987Y-106350571D01*
X136882715Y-106309647D01*
X136932834Y-106280709D01*
X137019646Y-106230590D01*
X137131450Y-106118786D01*
X137131450Y-106118784D01*
X137141658Y-106108577D01*
X137141659Y-106108574D01*
X138113416Y-105136819D01*
X138174739Y-105103334D01*
X138201097Y-105100500D01*
X140413331Y-105100500D01*
X140413347Y-105100501D01*
X140420943Y-105100501D01*
X140579054Y-105100501D01*
X140579057Y-105100501D01*
X140731785Y-105059577D01*
X140803327Y-105018272D01*
X140868716Y-104980520D01*
X140980520Y-104868716D01*
X140980520Y-104868714D01*
X140990724Y-104858511D01*
X140990727Y-104858506D01*
X141712417Y-104136819D01*
X141773740Y-104103334D01*
X141800098Y-104100500D01*
X142531516Y-104100500D01*
X142531532Y-104100501D01*
X142539128Y-104100501D01*
X142697239Y-104100501D01*
X142697242Y-104100501D01*
X142849970Y-104059577D01*
X142863498Y-104051766D01*
X142931395Y-104035292D01*
X142997423Y-104058142D01*
X143040616Y-104113061D01*
X143049500Y-104159152D01*
X143049500Y-108920234D01*
X143029815Y-108987273D01*
X143028602Y-108989125D01*
X142940609Y-109120814D01*
X142940602Y-109120827D01*
X142880264Y-109266498D01*
X142880261Y-109266510D01*
X142849500Y-109421153D01*
X142849500Y-109578846D01*
X142880261Y-109733489D01*
X142880264Y-109733501D01*
X142940602Y-109879172D01*
X142940609Y-109879185D01*
X143028210Y-110010288D01*
X143028213Y-110010292D01*
X143139707Y-110121786D01*
X143139711Y-110121789D01*
X143270814Y-110209390D01*
X143270827Y-110209397D01*
X143416498Y-110269735D01*
X143416503Y-110269737D01*
X143515838Y-110289496D01*
X143549691Y-110296230D01*
X143611602Y-110328615D01*
X143646176Y-110389330D01*
X143649500Y-110417847D01*
X143649500Y-114663330D01*
X143649499Y-114663348D01*
X143649499Y-114829054D01*
X143649498Y-114829054D01*
X143690423Y-114981785D01*
X143719358Y-115031900D01*
X143719359Y-115031904D01*
X143719360Y-115031904D01*
X143769479Y-115118714D01*
X143769481Y-115118717D01*
X143888349Y-115237585D01*
X143888355Y-115237590D01*
X145015139Y-116364374D01*
X145015149Y-116364385D01*
X145019479Y-116368715D01*
X145019480Y-116368716D01*
X145131284Y-116480520D01*
X145218095Y-116530639D01*
X145218097Y-116530641D01*
X145256151Y-116552611D01*
X145268215Y-116559577D01*
X145420943Y-116600501D01*
X145420946Y-116600501D01*
X145586653Y-116600501D01*
X145586669Y-116600500D01*
X175663331Y-116600500D01*
X175663347Y-116600501D01*
X175670943Y-116600501D01*
X175829054Y-116600501D01*
X175829057Y-116600501D01*
X175981785Y-116559577D01*
X176031904Y-116530639D01*
X176118716Y-116480520D01*
X176230520Y-116368716D01*
X176230520Y-116368714D01*
X176240728Y-116358507D01*
X176240730Y-116358504D01*
X179808506Y-112790728D01*
X179808511Y-112790724D01*
X179818714Y-112780520D01*
X179818716Y-112780520D01*
X179930520Y-112668716D01*
X179982644Y-112578433D01*
X180009577Y-112531785D01*
X180050500Y-112379057D01*
X180050500Y-112220943D01*
X180050500Y-93544836D01*
X180070185Y-93477797D01*
X180105609Y-93441734D01*
X180210289Y-93371789D01*
X180321786Y-93260292D01*
X180321789Y-93260289D01*
X180409394Y-93129179D01*
X180469737Y-92983497D01*
X180500500Y-92828842D01*
X180500500Y-92671158D01*
X180500500Y-92671155D01*
X180500499Y-92671153D01*
X180490756Y-92622171D01*
X180469737Y-92516503D01*
X180412183Y-92377554D01*
X180409397Y-92370827D01*
X180409390Y-92370814D01*
X180321789Y-92239711D01*
X180321786Y-92239707D01*
X180210292Y-92128213D01*
X180210288Y-92128210D01*
X180079185Y-92040609D01*
X180079172Y-92040602D01*
X179933501Y-91980264D01*
X179933489Y-91980261D01*
X179778845Y-91949500D01*
X179778842Y-91949500D01*
X179621158Y-91949500D01*
X179621155Y-91949500D01*
X179466510Y-91980261D01*
X179466498Y-91980264D01*
X179320827Y-92040602D01*
X179320814Y-92040609D01*
X179189711Y-92128210D01*
X179189707Y-92128213D01*
X179078213Y-92239707D01*
X179078210Y-92239711D01*
X178990609Y-92370814D01*
X178990602Y-92370827D01*
X178930264Y-92516498D01*
X178930261Y-92516510D01*
X178899500Y-92671153D01*
X178899500Y-92721636D01*
X178891834Y-92760179D01*
X178892527Y-92760365D01*
X178890424Y-92768213D01*
X178890423Y-92768215D01*
X178849499Y-92920943D01*
X178849499Y-92920945D01*
X178849499Y-93089046D01*
X178849500Y-93089059D01*
X178849500Y-111999903D01*
X178829815Y-112066942D01*
X178813181Y-112087584D01*
X175537584Y-115363181D01*
X175476261Y-115396666D01*
X175449903Y-115399500D01*
X145800097Y-115399500D01*
X145733058Y-115379815D01*
X145712416Y-115363181D01*
X144886819Y-114537584D01*
X144853334Y-114476261D01*
X144850500Y-114449903D01*
X144850500Y-113505726D01*
X144870185Y-113438687D01*
X144922989Y-113392932D01*
X144992147Y-113382988D01*
X145021946Y-113391163D01*
X145109013Y-113427227D01*
X145223500Y-113450000D01*
X145263663Y-113457989D01*
X145263666Y-113457990D01*
X145263668Y-113457990D01*
X145421354Y-113457990D01*
X145421355Y-113457989D01*
X145576007Y-113427227D01*
X145721689Y-113366884D01*
X145852799Y-113279279D01*
X145964299Y-113167779D01*
X146051904Y-113036669D01*
X146112247Y-112890987D01*
X146143010Y-112736332D01*
X146143148Y-112735640D01*
X146175533Y-112673729D01*
X146177029Y-112672205D01*
X148358506Y-110490727D01*
X148358511Y-110490724D01*
X148368714Y-110480520D01*
X148368716Y-110480520D01*
X148480520Y-110368716D01*
X148559577Y-110231784D01*
X148589534Y-110119981D01*
X148600500Y-110079058D01*
X148600500Y-109920943D01*
X148600500Y-105843722D01*
X148601500Y-105828463D01*
X148601500Y-105171544D01*
X148600500Y-105156278D01*
X148600500Y-102730903D01*
X148620185Y-102663864D01*
X148672989Y-102618109D01*
X148676999Y-102616362D01*
X148754179Y-102584394D01*
X148885289Y-102496789D01*
X148996789Y-102385289D01*
X149084394Y-102254179D01*
X149144737Y-102108497D01*
X149168486Y-101989103D01*
X149175638Y-101953150D01*
X149208023Y-101891239D01*
X149209518Y-101889717D01*
X152264664Y-98834571D01*
X152325985Y-98801088D01*
X152328152Y-98800637D01*
X152328841Y-98800500D01*
X152328842Y-98800500D01*
X152483497Y-98769737D01*
X152629179Y-98709394D01*
X152760289Y-98621789D01*
X152871789Y-98510289D01*
X152959394Y-98379179D01*
X153019737Y-98233497D01*
X153050500Y-98078842D01*
X153050500Y-97921158D01*
X153050500Y-97921155D01*
X153050499Y-97921153D01*
X153019738Y-97766510D01*
X153019738Y-97766508D01*
X153019737Y-97766503D01*
X153019735Y-97766498D01*
X152959397Y-97620827D01*
X152959390Y-97620814D01*
X152871789Y-97489711D01*
X152871786Y-97489707D01*
X152760292Y-97378213D01*
X152760288Y-97378210D01*
X152629185Y-97290609D01*
X152629172Y-97290602D01*
X152483501Y-97230264D01*
X152483489Y-97230261D01*
X152328845Y-97199500D01*
X152328842Y-97199500D01*
X152171158Y-97199500D01*
X152171155Y-97199500D01*
X152016510Y-97230261D01*
X152016498Y-97230264D01*
X151870827Y-97290602D01*
X151870814Y-97290609D01*
X151739711Y-97378210D01*
X151739707Y-97378213D01*
X151628213Y-97489707D01*
X151628210Y-97489711D01*
X151540609Y-97620814D01*
X151540602Y-97620827D01*
X151480264Y-97766498D01*
X151480261Y-97766508D01*
X151449362Y-97921848D01*
X151416977Y-97983759D01*
X151415426Y-97985337D01*
X148360339Y-101040425D01*
X148343744Y-101049486D01*
X148330135Y-101062619D01*
X148300634Y-101073026D01*
X148299016Y-101073910D01*
X148296851Y-101074361D01*
X148248693Y-101083941D01*
X148179101Y-101077715D01*
X148123923Y-101034852D01*
X148100678Y-100968963D01*
X148100500Y-100962324D01*
X148100500Y-100550097D01*
X148120185Y-100483058D01*
X148136819Y-100462416D01*
X150088947Y-98510288D01*
X152264662Y-96334572D01*
X152325983Y-96301089D01*
X152328150Y-96300638D01*
X152386085Y-96289113D01*
X152483497Y-96269737D01*
X152629179Y-96209394D01*
X152760289Y-96121789D01*
X152871789Y-96010289D01*
X152959394Y-95879179D01*
X153019737Y-95733497D01*
X153050500Y-95578842D01*
X153050500Y-95421158D01*
X153050500Y-95421155D01*
X153050499Y-95421153D01*
X153019738Y-95266510D01*
X153019738Y-95266508D01*
X153019737Y-95266503D01*
X153019735Y-95266498D01*
X152959397Y-95120827D01*
X152959390Y-95120814D01*
X152871789Y-94989711D01*
X152871786Y-94989707D01*
X152760292Y-94878213D01*
X152760288Y-94878210D01*
X152629185Y-94790609D01*
X152629172Y-94790602D01*
X152483501Y-94730264D01*
X152483489Y-94730261D01*
X152328845Y-94699500D01*
X152328842Y-94699500D01*
X152171158Y-94699500D01*
X152171155Y-94699500D01*
X152016510Y-94730261D01*
X152016498Y-94730264D01*
X151870827Y-94790602D01*
X151870814Y-94790609D01*
X151739711Y-94878210D01*
X151739707Y-94878213D01*
X151628213Y-94989707D01*
X151628210Y-94989711D01*
X151540609Y-95120814D01*
X151540602Y-95120827D01*
X151480264Y-95266498D01*
X151480261Y-95266508D01*
X151449361Y-95421850D01*
X151416976Y-95483761D01*
X151415425Y-95485339D01*
X147287584Y-99613181D01*
X147226261Y-99646666D01*
X147199903Y-99649500D01*
X141379114Y-99649500D01*
X141221000Y-99649500D01*
X141068272Y-99690423D01*
X141068271Y-99690423D01*
X141068269Y-99690424D01*
X141068266Y-99690425D01*
X141018153Y-99719359D01*
X141018152Y-99719360D01*
X140974746Y-99744420D01*
X140931342Y-99769479D01*
X140931339Y-99769481D01*
X139318479Y-101382341D01*
X139308574Y-101399499D01*
X139294697Y-101423535D01*
X139239423Y-101519272D01*
X139198499Y-101672000D01*
X139198499Y-101672002D01*
X139198499Y-101840103D01*
X139198500Y-101840116D01*
X139198500Y-102162273D01*
X139198499Y-102162291D01*
X139198499Y-102327997D01*
X139198498Y-102327997D01*
X139213850Y-102385289D01*
X139239423Y-102480728D01*
X139243185Y-102487244D01*
X139248694Y-102496787D01*
X139248696Y-102496789D01*
X139318477Y-102617655D01*
X139318479Y-102617658D01*
X139318480Y-102617659D01*
X139430284Y-102729463D01*
X139430285Y-102729464D01*
X139782341Y-103081520D01*
X139919272Y-103160577D01*
X140072000Y-103201501D01*
X140072003Y-103201501D01*
X140237711Y-103201501D01*
X140237727Y-103201500D01*
X140649902Y-103201500D01*
X140716941Y-103221185D01*
X140762696Y-103273989D01*
X140772640Y-103343147D01*
X140743615Y-103406703D01*
X140737583Y-103413181D01*
X140287584Y-103863181D01*
X140226261Y-103896666D01*
X140199903Y-103899500D01*
X137987669Y-103899500D01*
X137987661Y-103899497D01*
X137987661Y-103899499D01*
X137821940Y-103899499D01*
X137760500Y-103915962D01*
X137690651Y-103914299D01*
X137632788Y-103875136D01*
X137605285Y-103810907D01*
X137616872Y-103742005D01*
X137640723Y-103708510D01*
X137858506Y-103490727D01*
X137858511Y-103490724D01*
X137868714Y-103480520D01*
X137868716Y-103480520D01*
X137980520Y-103368716D01*
X138059577Y-103231784D01*
X138100500Y-103079057D01*
X138100500Y-102200154D01*
X138120185Y-102133115D01*
X138136819Y-102112473D01*
X150711474Y-89537819D01*
X150772797Y-89504334D01*
X150799155Y-89501500D01*
X154170234Y-89501500D01*
X154237273Y-89521185D01*
X154239125Y-89522398D01*
X154370814Y-89610390D01*
X154370827Y-89610397D01*
X154516498Y-89670735D01*
X154516503Y-89670737D01*
X154581147Y-89683595D01*
X154671849Y-89701638D01*
X154733760Y-89734023D01*
X154735339Y-89735574D01*
X155614139Y-90614374D01*
X155614149Y-90614385D01*
X155618479Y-90618715D01*
X155618480Y-90618716D01*
X155730284Y-90730520D01*
X155792609Y-90766503D01*
X155814575Y-90779185D01*
X155867211Y-90809575D01*
X155867215Y-90809577D01*
X156019943Y-90850500D01*
X164163331Y-90850500D01*
X164163347Y-90850501D01*
X164170943Y-90850501D01*
X164329054Y-90850501D01*
X164329057Y-90850501D01*
X164481785Y-90809577D01*
X164556391Y-90766503D01*
X164618716Y-90730520D01*
X164716687Y-90632548D01*
X164721349Y-90628716D01*
X164748165Y-90617298D01*
X164773740Y-90603334D01*
X164783406Y-90602294D01*
X164785635Y-90601346D01*
X164788187Y-90601780D01*
X164800098Y-90600500D01*
X168633741Y-90600500D01*
X168700780Y-90620185D01*
X168746535Y-90672989D01*
X168748302Y-90677048D01*
X168790602Y-90779172D01*
X168790609Y-90779185D01*
X168878210Y-90910288D01*
X168878213Y-90910292D01*
X168989707Y-91021786D01*
X168989711Y-91021789D01*
X169120814Y-91109390D01*
X169120827Y-91109397D01*
X169217646Y-91149500D01*
X169266503Y-91169737D01*
X169389215Y-91194146D01*
X169421153Y-91200499D01*
X169421156Y-91200500D01*
X169421158Y-91200500D01*
X169578844Y-91200500D01*
X169578845Y-91200499D01*
X169733497Y-91169737D01*
X169879179Y-91109394D01*
X170010289Y-91021789D01*
X170121789Y-90910289D01*
X170209394Y-90779179D01*
X170269737Y-90633497D01*
X170300500Y-90478842D01*
X170300500Y-90321158D01*
X170300500Y-90321155D01*
X170300499Y-90321153D01*
X170269738Y-90166510D01*
X170269737Y-90166503D01*
X170269735Y-90166498D01*
X170209397Y-90020827D01*
X170209390Y-90020814D01*
X170121789Y-89889711D01*
X170121786Y-89889707D01*
X170010292Y-89778213D01*
X170010288Y-89778210D01*
X169879185Y-89690609D01*
X169879172Y-89690602D01*
X169733501Y-89630264D01*
X169733491Y-89630261D01*
X169578151Y-89599362D01*
X169530070Y-89578505D01*
X169521832Y-89572596D01*
X169468716Y-89519480D01*
X169366692Y-89460577D01*
X169361393Y-89457518D01*
X169361391Y-89457516D01*
X169331783Y-89440422D01*
X169275881Y-89425443D01*
X169179057Y-89399499D01*
X169020943Y-89399499D01*
X169013347Y-89399499D01*
X169013331Y-89399500D01*
X164420940Y-89399500D01*
X164380019Y-89410464D01*
X164380019Y-89410465D01*
X164342751Y-89420451D01*
X164268214Y-89440423D01*
X164268209Y-89440426D01*
X164131290Y-89519475D01*
X164131282Y-89519481D01*
X164037583Y-89613181D01*
X163976260Y-89646666D01*
X163949902Y-89649500D01*
X156399097Y-89649500D01*
X156332058Y-89629815D01*
X156311416Y-89613181D01*
X155584574Y-88886339D01*
X155551089Y-88825016D01*
X155550638Y-88822849D01*
X155519738Y-88667510D01*
X155519737Y-88667503D01*
X155519735Y-88667498D01*
X155459397Y-88521827D01*
X155459390Y-88521814D01*
X155371789Y-88390711D01*
X155371786Y-88390707D01*
X155260292Y-88279213D01*
X155260288Y-88279210D01*
X155129185Y-88191609D01*
X155129172Y-88191602D01*
X154983501Y-88131264D01*
X154983489Y-88131261D01*
X154828845Y-88100500D01*
X154828842Y-88100500D01*
X154671158Y-88100500D01*
X154671155Y-88100500D01*
X154516510Y-88131261D01*
X154516498Y-88131264D01*
X154370827Y-88191602D01*
X154370814Y-88191609D01*
X154239125Y-88279602D01*
X154172447Y-88300480D01*
X154170234Y-88300500D01*
X150585727Y-88300500D01*
X150585711Y-88300499D01*
X150578115Y-88300499D01*
X150420000Y-88300499D01*
X150343636Y-88320961D01*
X150267271Y-88341423D01*
X150267266Y-88341426D01*
X150130347Y-88420475D01*
X150130339Y-88420481D01*
X137019481Y-101531339D01*
X137019479Y-101531342D01*
X136969361Y-101618151D01*
X136969359Y-101618153D01*
X136940425Y-101668266D01*
X136940424Y-101668267D01*
X136924544Y-101727529D01*
X136899499Y-101821000D01*
X136899499Y-101821002D01*
X136899499Y-101989103D01*
X136899500Y-101989116D01*
X136899500Y-102699903D01*
X136879815Y-102766942D01*
X136863181Y-102787584D01*
X135985339Y-103665425D01*
X135924016Y-103698910D01*
X135921850Y-103699361D01*
X135766508Y-103730261D01*
X135766498Y-103730264D01*
X135620827Y-103790602D01*
X135620814Y-103790609D01*
X135489711Y-103878210D01*
X135489707Y-103878213D01*
X135378213Y-103989707D01*
X135378210Y-103989711D01*
X135290609Y-104120814D01*
X135290602Y-104120827D01*
X135230264Y-104266498D01*
X135230261Y-104266510D01*
X135199500Y-104421153D01*
X135199500Y-104578846D01*
X135230261Y-104733489D01*
X135230264Y-104733501D01*
X135275386Y-104842437D01*
X135282855Y-104911907D01*
X135251579Y-104974386D01*
X135208278Y-105004450D01*
X135120823Y-105040674D01*
X135120814Y-105040679D01*
X134989711Y-105128280D01*
X134989707Y-105128283D01*
X134878213Y-105239777D01*
X134878210Y-105239781D01*
X134790609Y-105370884D01*
X134790602Y-105370897D01*
X134730264Y-105516568D01*
X134730261Y-105516580D01*
X134699500Y-105671223D01*
X131000500Y-105671223D01*
X131000500Y-91409448D01*
X132079500Y-91409448D01*
X132079500Y-91590551D01*
X132107829Y-91769410D01*
X132163787Y-91941636D01*
X132163788Y-91941639D01*
X132246006Y-92102997D01*
X132352441Y-92249494D01*
X132352445Y-92249499D01*
X132480500Y-92377554D01*
X132480505Y-92377558D01*
X132593144Y-92459394D01*
X132627006Y-92483996D01*
X132726033Y-92534453D01*
X132788360Y-92566211D01*
X132788363Y-92566212D01*
X132874476Y-92594191D01*
X132960591Y-92622171D01*
X133043429Y-92635291D01*
X133139449Y-92650500D01*
X133139454Y-92650500D01*
X133320551Y-92650500D01*
X133407259Y-92636765D01*
X133499409Y-92622171D01*
X133671639Y-92566211D01*
X133832994Y-92483996D01*
X133979501Y-92377553D01*
X134107553Y-92249501D01*
X134213996Y-92102994D01*
X134296211Y-91941639D01*
X134352171Y-91769409D01*
X134366765Y-91677259D01*
X134380500Y-91590551D01*
X134380500Y-91409448D01*
X137349500Y-91409448D01*
X137349500Y-91590551D01*
X137377829Y-91769410D01*
X137433787Y-91941636D01*
X137433788Y-91941639D01*
X137516006Y-92102997D01*
X137622441Y-92249494D01*
X137622445Y-92249499D01*
X137750500Y-92377554D01*
X137750505Y-92377558D01*
X137897003Y-92483995D01*
X137901883Y-92486481D01*
X137952680Y-92534453D01*
X137969477Y-92602274D01*
X137946942Y-92668410D01*
X137933273Y-92684648D01*
X137878210Y-92739711D01*
X137790609Y-92870814D01*
X137790602Y-92870827D01*
X137730264Y-93016498D01*
X137730261Y-93016510D01*
X137699500Y-93171153D01*
X137699500Y-93328846D01*
X137730261Y-93483489D01*
X137730264Y-93483501D01*
X137790602Y-93629172D01*
X137790609Y-93629185D01*
X137878210Y-93760288D01*
X137878213Y-93760292D01*
X137989707Y-93871786D01*
X137989711Y-93871789D01*
X138120814Y-93959390D01*
X138120827Y-93959397D01*
X138266498Y-94019735D01*
X138266503Y-94019737D01*
X138421153Y-94050499D01*
X138421156Y-94050500D01*
X138421158Y-94050500D01*
X138578844Y-94050500D01*
X138578845Y-94050499D01*
X138733497Y-94019737D01*
X138879179Y-93959394D01*
X139010289Y-93871789D01*
X139121789Y-93760289D01*
X139209394Y-93629179D01*
X139269737Y-93483497D01*
X139300200Y-93330348D01*
X139332584Y-93268438D01*
X139338848Y-93262387D01*
X139348528Y-93253671D01*
X139386897Y-93231520D01*
X139498701Y-93119716D01*
X139498702Y-93119713D01*
X140231598Y-92386819D01*
X140292921Y-92353334D01*
X140319279Y-92350500D01*
X143420234Y-92350500D01*
X143487273Y-92370185D01*
X143489125Y-92371398D01*
X143620814Y-92459390D01*
X143620827Y-92459397D01*
X143686215Y-92486481D01*
X143766503Y-92519737D01*
X143921153Y-92550499D01*
X143921156Y-92550500D01*
X143921158Y-92550500D01*
X144078844Y-92550500D01*
X144078845Y-92550499D01*
X144233497Y-92519737D01*
X144379179Y-92459394D01*
X144510289Y-92371789D01*
X144621789Y-92260289D01*
X144709394Y-92129179D01*
X144709395Y-92129176D01*
X144709397Y-92129173D01*
X144746082Y-92040606D01*
X144761122Y-92004294D01*
X144804962Y-91949891D01*
X144871256Y-91927826D01*
X144923134Y-91937185D01*
X144983164Y-91962051D01*
X145176455Y-92000499D01*
X145176458Y-92000500D01*
X145176460Y-92000500D01*
X145373542Y-92000500D01*
X145373543Y-92000499D01*
X145566836Y-91962051D01*
X145748914Y-91886631D01*
X145912781Y-91777139D01*
X146412778Y-91277141D01*
X146412782Y-91277139D01*
X146552139Y-91137782D01*
X146595702Y-91072583D01*
X146611115Y-91053803D01*
X153378101Y-84286819D01*
X153439424Y-84253334D01*
X153465782Y-84250500D01*
X154832351Y-84250500D01*
X154899390Y-84270185D01*
X154945145Y-84322989D01*
X154955089Y-84392147D01*
X154953969Y-84398690D01*
X154949500Y-84421158D01*
X154949500Y-84578846D01*
X154980261Y-84733489D01*
X154980264Y-84733501D01*
X155040602Y-84879172D01*
X155040609Y-84879185D01*
X155128602Y-85010874D01*
X155149480Y-85077551D01*
X155149500Y-85079765D01*
X155149500Y-85663330D01*
X155149499Y-85663348D01*
X155149499Y-85829054D01*
X155149498Y-85829054D01*
X155149499Y-85829057D01*
X155190423Y-85981785D01*
X155214088Y-86022774D01*
X155269477Y-86118712D01*
X155269481Y-86118717D01*
X155388349Y-86237585D01*
X155388355Y-86237590D01*
X158015139Y-88864374D01*
X158015149Y-88864385D01*
X158019479Y-88868715D01*
X158019480Y-88868716D01*
X158131284Y-88980520D01*
X158218095Y-89030639D01*
X158218097Y-89030641D01*
X158268213Y-89059576D01*
X158268215Y-89059577D01*
X158420942Y-89100500D01*
X158420943Y-89100500D01*
X163413331Y-89100500D01*
X163413347Y-89100501D01*
X163420943Y-89100501D01*
X163579054Y-89100501D01*
X163579057Y-89100501D01*
X163731785Y-89059577D01*
X163781904Y-89030639D01*
X163868716Y-88980520D01*
X163980520Y-88868716D01*
X163980521Y-88868714D01*
X164480520Y-88368716D01*
X164559577Y-88231784D01*
X164600501Y-88079057D01*
X164600501Y-87920942D01*
X164600501Y-87913347D01*
X164600500Y-87913329D01*
X164600500Y-87079765D01*
X164620185Y-87012726D01*
X164621398Y-87010874D01*
X164709390Y-86879185D01*
X164709390Y-86879184D01*
X164709394Y-86879179D01*
X164769737Y-86733497D01*
X164800500Y-86578842D01*
X164800500Y-86421158D01*
X164800500Y-86421155D01*
X164800499Y-86421153D01*
X164769737Y-86266503D01*
X164769735Y-86266498D01*
X164709397Y-86120827D01*
X164709390Y-86120814D01*
X164621789Y-85989711D01*
X164621786Y-85989707D01*
X164510292Y-85878213D01*
X164510288Y-85878210D01*
X164379185Y-85790609D01*
X164379172Y-85790602D01*
X164233501Y-85730264D01*
X164233489Y-85730261D01*
X164078845Y-85699500D01*
X164078842Y-85699500D01*
X163921158Y-85699500D01*
X163921155Y-85699500D01*
X163766510Y-85730261D01*
X163766498Y-85730264D01*
X163620827Y-85790602D01*
X163620814Y-85790609D01*
X163489711Y-85878210D01*
X163489707Y-85878213D01*
X163378213Y-85989707D01*
X163378210Y-85989711D01*
X163290609Y-86120814D01*
X163290601Y-86120829D01*
X163267735Y-86176032D01*
X163223893Y-86230435D01*
X163157599Y-86252499D01*
X163089900Y-86235219D01*
X163065494Y-86216259D01*
X162131185Y-85281950D01*
X162131183Y-85281947D01*
X162012312Y-85163076D01*
X162012311Y-85163075D01*
X161925499Y-85112955D01*
X161925499Y-85112954D01*
X161925495Y-85112953D01*
X161875380Y-85084018D01*
X161722652Y-85043094D01*
X161564538Y-85043094D01*
X161556942Y-85043094D01*
X161556926Y-85043095D01*
X160953245Y-85043095D01*
X160886206Y-85023410D01*
X160884354Y-85022197D01*
X160752664Y-84934204D01*
X160752651Y-84934197D01*
X160606980Y-84873859D01*
X160606968Y-84873856D01*
X160452324Y-84843095D01*
X160452321Y-84843095D01*
X160294637Y-84843095D01*
X160294634Y-84843095D01*
X160139989Y-84873856D01*
X160139977Y-84873859D01*
X159994306Y-84934197D01*
X159994293Y-84934204D01*
X159863190Y-85021805D01*
X159863186Y-85021808D01*
X159751692Y-85133302D01*
X159751689Y-85133306D01*
X159664088Y-85264409D01*
X159664081Y-85264422D01*
X159603743Y-85410093D01*
X159603740Y-85410105D01*
X159572979Y-85564748D01*
X159572979Y-85722441D01*
X159603740Y-85877084D01*
X159603743Y-85877096D01*
X159664081Y-86022767D01*
X159664088Y-86022780D01*
X159751689Y-86153883D01*
X159751692Y-86153887D01*
X159863186Y-86265381D01*
X159863190Y-86265384D01*
X159994293Y-86352985D01*
X159994306Y-86352992D01*
X160139977Y-86413330D01*
X160139982Y-86413332D01*
X160294632Y-86444094D01*
X160294635Y-86444095D01*
X160294637Y-86444095D01*
X160452323Y-86444095D01*
X160452324Y-86444094D01*
X160606976Y-86413332D01*
X160752658Y-86352989D01*
X160752664Y-86352985D01*
X160884354Y-86264993D01*
X160951032Y-86244115D01*
X160953245Y-86244095D01*
X161343498Y-86244095D01*
X161410537Y-86263780D01*
X161431179Y-86280414D01*
X162519241Y-87368476D01*
X162552726Y-87429799D01*
X162553177Y-87431965D01*
X162583677Y-87585298D01*
X162583680Y-87585308D01*
X162642804Y-87728048D01*
X162650273Y-87797517D01*
X162618997Y-87859996D01*
X162558908Y-87895648D01*
X162528243Y-87899500D01*
X158800097Y-87899500D01*
X158733058Y-87879815D01*
X158712416Y-87863181D01*
X156386819Y-85537584D01*
X156353334Y-85476261D01*
X156350500Y-85449903D01*
X156350500Y-85079765D01*
X156370185Y-85012726D01*
X156371398Y-85010874D01*
X156459390Y-84879185D01*
X156459390Y-84879184D01*
X156459394Y-84879179D01*
X156519737Y-84733497D01*
X156550500Y-84578842D01*
X156550500Y-84421158D01*
X156546031Y-84398690D01*
X156552260Y-84329099D01*
X156595123Y-84273922D01*
X156661013Y-84250678D01*
X156667649Y-84250500D01*
X170577111Y-84250500D01*
X170644150Y-84270185D01*
X170664792Y-84286819D01*
X170772490Y-84394517D01*
X170963566Y-84533343D01*
X171052863Y-84578842D01*
X171174003Y-84640566D01*
X171174005Y-84640566D01*
X171174008Y-84640568D01*
X171268139Y-84671153D01*
X171398631Y-84713553D01*
X171631903Y-84750500D01*
X171631908Y-84750500D01*
X171868097Y-84750500D01*
X172101368Y-84713553D01*
X172325992Y-84640568D01*
X172536434Y-84533343D01*
X172727510Y-84394517D01*
X177564517Y-79557510D01*
X177703343Y-79366434D01*
X177810568Y-79155992D01*
X177883553Y-78931368D01*
X177920500Y-78698097D01*
X177920500Y-67912208D01*
X177940185Y-67845169D01*
X177946124Y-67836722D01*
X177974302Y-67800000D01*
X178106922Y-67627165D01*
X178239615Y-67397335D01*
X178341174Y-67152151D01*
X178409860Y-66895808D01*
X178444500Y-66632693D01*
X178444500Y-66367307D01*
X178444499Y-66367299D01*
X179475500Y-66367299D01*
X179475500Y-66632700D01*
X179501590Y-66830864D01*
X179510140Y-66895808D01*
X179545977Y-67029556D01*
X179573213Y-67131205D01*
X179578826Y-67152151D01*
X179618114Y-67247000D01*
X179680383Y-67397331D01*
X179680388Y-67397342D01*
X179813073Y-67627157D01*
X179813084Y-67627173D01*
X179974632Y-67837708D01*
X179974638Y-67837715D01*
X180162284Y-68025361D01*
X180162291Y-68025367D01*
X180190406Y-68046940D01*
X180372835Y-68186922D01*
X180372842Y-68186926D01*
X180602657Y-68319611D01*
X180602662Y-68319613D01*
X180602665Y-68319615D01*
X180847849Y-68421174D01*
X181104192Y-68489860D01*
X181367307Y-68524500D01*
X181367314Y-68524500D01*
X181632686Y-68524500D01*
X181632693Y-68524500D01*
X181895808Y-68489860D01*
X182152151Y-68421174D01*
X182397335Y-68319615D01*
X182627165Y-68186922D01*
X182837710Y-68025366D01*
X183025366Y-67837710D01*
X183186922Y-67627165D01*
X183319615Y-67397335D01*
X183421174Y-67152151D01*
X183489860Y-66895808D01*
X183524500Y-66632693D01*
X183524500Y-66367307D01*
X183509056Y-66250000D01*
X183505586Y-66223638D01*
X183498410Y-66169136D01*
X183489860Y-66104192D01*
X183421174Y-65847849D01*
X183380643Y-65750000D01*
X185856962Y-65750000D01*
X186858012Y-65750000D01*
X186840795Y-65759940D01*
X186784940Y-65815795D01*
X186745444Y-65884204D01*
X186725000Y-65960504D01*
X186725000Y-66039496D01*
X186745444Y-66115796D01*
X186784940Y-66184205D01*
X186840795Y-66240060D01*
X186858012Y-66250000D01*
X185856962Y-66250000D01*
X185885150Y-66536211D01*
X185955114Y-66887941D01*
X186059220Y-67231136D01*
X186196461Y-67562460D01*
X186196463Y-67562465D01*
X186365508Y-67878726D01*
X186365519Y-67878744D01*
X186564751Y-68176916D01*
X186564761Y-68176930D01*
X186792271Y-68454151D01*
X187045848Y-68707728D01*
X187323069Y-68935238D01*
X187323083Y-68935248D01*
X187621255Y-69134480D01*
X187621273Y-69134491D01*
X187937534Y-69303536D01*
X187937539Y-69303538D01*
X188268863Y-69440779D01*
X188612058Y-69544885D01*
X188963789Y-69614849D01*
X188963788Y-69614849D01*
X189250000Y-69643037D01*
X189250000Y-68641988D01*
X189259940Y-68659205D01*
X189315795Y-68715060D01*
X189384204Y-68754556D01*
X189460504Y-68775000D01*
X189539496Y-68775000D01*
X189615796Y-68754556D01*
X189684205Y-68715060D01*
X189740060Y-68659205D01*
X189750000Y-68641988D01*
X189750000Y-69643036D01*
X190036211Y-69614849D01*
X190387941Y-69544885D01*
X190731136Y-69440779D01*
X191062460Y-69303538D01*
X191062465Y-69303536D01*
X191378726Y-69134491D01*
X191378744Y-69134480D01*
X191676916Y-68935248D01*
X191676930Y-68935238D01*
X191954151Y-68707728D01*
X192207728Y-68454151D01*
X192435238Y-68176930D01*
X192435248Y-68176916D01*
X192634480Y-67878744D01*
X192634491Y-67878726D01*
X192803536Y-67562465D01*
X192803538Y-67562460D01*
X192940779Y-67231136D01*
X193044885Y-66887941D01*
X193114849Y-66536211D01*
X193143038Y-66250000D01*
X192141988Y-66250000D01*
X192159205Y-66240060D01*
X192215060Y-66184205D01*
X192254556Y-66115796D01*
X192275000Y-66039496D01*
X192275000Y-65960504D01*
X192254556Y-65884204D01*
X192215060Y-65815795D01*
X192159205Y-65759940D01*
X192141988Y-65750000D01*
X193143037Y-65750000D01*
X193114849Y-65463788D01*
X193044885Y-65112058D01*
X192940779Y-64768863D01*
X192803538Y-64437539D01*
X192803536Y-64437534D01*
X192634491Y-64121273D01*
X192634480Y-64121255D01*
X192435248Y-63823083D01*
X192435238Y-63823069D01*
X192207728Y-63545848D01*
X191954151Y-63292271D01*
X191676930Y-63064761D01*
X191676916Y-63064751D01*
X191378744Y-62865519D01*
X191378726Y-62865508D01*
X191062465Y-62696463D01*
X191062460Y-62696461D01*
X190731136Y-62559220D01*
X190387941Y-62455114D01*
X190036218Y-62385152D01*
X190036201Y-62385149D01*
X189750001Y-62356960D01*
X189750000Y-62356961D01*
X189750000Y-63358011D01*
X189740060Y-63340795D01*
X189684205Y-63284940D01*
X189615796Y-63245444D01*
X189539496Y-63225000D01*
X189460504Y-63225000D01*
X189384204Y-63245444D01*
X189315795Y-63284940D01*
X189259940Y-63340795D01*
X189250000Y-63358011D01*
X189250000Y-62356961D01*
X189249998Y-62356960D01*
X188963798Y-62385149D01*
X188963781Y-62385152D01*
X188612058Y-62455114D01*
X188268863Y-62559220D01*
X187937539Y-62696461D01*
X187937534Y-62696463D01*
X187621273Y-62865508D01*
X187621255Y-62865519D01*
X187323083Y-63064751D01*
X187323069Y-63064761D01*
X187045848Y-63292271D01*
X186792271Y-63545848D01*
X186564761Y-63823069D01*
X186564751Y-63823083D01*
X186365519Y-64121255D01*
X186365508Y-64121273D01*
X186196463Y-64437534D01*
X186196461Y-64437539D01*
X186059220Y-64768863D01*
X185955114Y-65112058D01*
X185885150Y-65463788D01*
X185856962Y-65750000D01*
X183380643Y-65750000D01*
X183319615Y-65602665D01*
X183319613Y-65602662D01*
X183319611Y-65602657D01*
X183186926Y-65372842D01*
X183186922Y-65372835D01*
X183082773Y-65237105D01*
X183025367Y-65162291D01*
X183025361Y-65162284D01*
X182837715Y-64974638D01*
X182837708Y-64974632D01*
X182627173Y-64813084D01*
X182627171Y-64813082D01*
X182627165Y-64813078D01*
X182627160Y-64813075D01*
X182627157Y-64813073D01*
X182397342Y-64680388D01*
X182397331Y-64680383D01*
X182253708Y-64620892D01*
X182152151Y-64578826D01*
X182152149Y-64578825D01*
X182152148Y-64578825D01*
X182044569Y-64550000D01*
X181895808Y-64510140D01*
X181851836Y-64504351D01*
X181632700Y-64475500D01*
X181632693Y-64475500D01*
X181367307Y-64475500D01*
X181367299Y-64475500D01*
X181116856Y-64508472D01*
X181104192Y-64510140D01*
X181031730Y-64529556D01*
X180847851Y-64578825D01*
X180602668Y-64680383D01*
X180602657Y-64680388D01*
X180372842Y-64813073D01*
X180372826Y-64813084D01*
X180162291Y-64974632D01*
X180162284Y-64974638D01*
X179974638Y-65162284D01*
X179974632Y-65162291D01*
X179813084Y-65372826D01*
X179813073Y-65372842D01*
X179680388Y-65602657D01*
X179680383Y-65602668D01*
X179578825Y-65847851D01*
X179510141Y-66104189D01*
X179510139Y-66104200D01*
X179475500Y-66367299D01*
X178444499Y-66367299D01*
X178409860Y-66104192D01*
X178341174Y-65847849D01*
X178239615Y-65602665D01*
X178239613Y-65602662D01*
X178239611Y-65602657D01*
X178106926Y-65372842D01*
X178106922Y-65372835D01*
X178002773Y-65237105D01*
X177945367Y-65162291D01*
X177945361Y-65162284D01*
X177757715Y-64974638D01*
X177757708Y-64974632D01*
X177547173Y-64813084D01*
X177547171Y-64813082D01*
X177547165Y-64813078D01*
X177547160Y-64813075D01*
X177547157Y-64813073D01*
X177317342Y-64680388D01*
X177317331Y-64680383D01*
X177173708Y-64620892D01*
X177072151Y-64578826D01*
X177072149Y-64578825D01*
X177072148Y-64578825D01*
X176964569Y-64550000D01*
X176815808Y-64510140D01*
X176771836Y-64504351D01*
X176552700Y-64475500D01*
X176552693Y-64475500D01*
X176287307Y-64475500D01*
X176287299Y-64475500D01*
X176036856Y-64508472D01*
X176024192Y-64510140D01*
X175951730Y-64529556D01*
X175767851Y-64578825D01*
X175522668Y-64680383D01*
X175522657Y-64680388D01*
X175292842Y-64813073D01*
X175292826Y-64813084D01*
X175082291Y-64974632D01*
X175082284Y-64974638D01*
X174894638Y-65162284D01*
X174894632Y-65162291D01*
X174733084Y-65372826D01*
X174733073Y-65372842D01*
X174600388Y-65602657D01*
X174600383Y-65602668D01*
X174498825Y-65847851D01*
X174430141Y-66104189D01*
X174430139Y-66104200D01*
X174395500Y-66367299D01*
X174395500Y-66632700D01*
X174421590Y-66830864D01*
X174430140Y-66895808D01*
X174465977Y-67029556D01*
X174493213Y-67131205D01*
X174498826Y-67152151D01*
X174538114Y-67247000D01*
X174600383Y-67397331D01*
X174600388Y-67397342D01*
X174712080Y-67590796D01*
X174733078Y-67627165D01*
X174842065Y-67769201D01*
X174893876Y-67836722D01*
X174919070Y-67901891D01*
X174919500Y-67912208D01*
X174919500Y-70375500D01*
X174899815Y-70442539D01*
X174847011Y-70488294D01*
X174795500Y-70499500D01*
X161672889Y-70499500D01*
X161605850Y-70479815D01*
X161585208Y-70463181D01*
X161477511Y-70355484D01*
X161286434Y-70216657D01*
X161075996Y-70109433D01*
X160851368Y-70036446D01*
X160618097Y-69999500D01*
X160618092Y-69999500D01*
X160381908Y-69999500D01*
X160381903Y-69999500D01*
X160148631Y-70036446D01*
X159924003Y-70109433D01*
X159713565Y-70216657D01*
X159522488Y-70355484D01*
X159355485Y-70522487D01*
X159355485Y-70522488D01*
X159355483Y-70522490D01*
X159216657Y-70713566D01*
X159216655Y-70713569D01*
X159213304Y-70720146D01*
X159165325Y-70770939D01*
X159150279Y-70778403D01*
X159120823Y-70790604D01*
X159120814Y-70790609D01*
X158989711Y-70878210D01*
X158989707Y-70878213D01*
X158878213Y-70989707D01*
X158878210Y-70989711D01*
X158790609Y-71120814D01*
X158790602Y-71120827D01*
X158730264Y-71266498D01*
X158730261Y-71266510D01*
X158699500Y-71421153D01*
X158699500Y-71578846D01*
X158730261Y-71733489D01*
X158730264Y-71733501D01*
X158790602Y-71879172D01*
X158790609Y-71879185D01*
X158878210Y-72010288D01*
X158878213Y-72010292D01*
X158989710Y-72121789D01*
X159063351Y-72170994D01*
X159120821Y-72209394D01*
X159150273Y-72221593D01*
X159204676Y-72265431D01*
X159213307Y-72279859D01*
X159216657Y-72286434D01*
X159355484Y-72477511D01*
X159355485Y-72477512D01*
X160022491Y-73144519D01*
X160022496Y-73144523D01*
X160189155Y-73265606D01*
X160213567Y-73283343D01*
X160347659Y-73351666D01*
X160424003Y-73390566D01*
X160424005Y-73390566D01*
X160424008Y-73390568D01*
X160544412Y-73429689D01*
X160648631Y-73463553D01*
X160881903Y-73500500D01*
X160881908Y-73500500D01*
X161118092Y-73500500D01*
X174795500Y-73500500D01*
X174862539Y-73520185D01*
X174908294Y-73572989D01*
X174919500Y-73624500D01*
X174919500Y-77907111D01*
X174899815Y-77974150D01*
X174883181Y-77994792D01*
X170664792Y-82213181D01*
X170603469Y-82246666D01*
X170577111Y-82249500D01*
X152901455Y-82249500D01*
X152804812Y-82268724D01*
X152708167Y-82287947D01*
X152708161Y-82287949D01*
X152654834Y-82310037D01*
X152654834Y-82310038D01*
X152609315Y-82328892D01*
X152526089Y-82363366D01*
X152526079Y-82363371D01*
X152362219Y-82472859D01*
X152292540Y-82542538D01*
X152222861Y-82612218D01*
X152222858Y-82612221D01*
X145137221Y-89697858D01*
X145137218Y-89697861D01*
X145101056Y-89734023D01*
X144997863Y-89837215D01*
X144954300Y-89902410D01*
X144938880Y-89921198D01*
X144497863Y-90362215D01*
X144497860Y-90362219D01*
X144388372Y-90526079D01*
X144388367Y-90526089D01*
X144312949Y-90708163D01*
X144312947Y-90708169D01*
X144282051Y-90863492D01*
X144249666Y-90925403D01*
X144188950Y-90959977D01*
X144136243Y-90960917D01*
X144078846Y-90949500D01*
X144078842Y-90949500D01*
X143921158Y-90949500D01*
X143921155Y-90949500D01*
X143766510Y-90980261D01*
X143766498Y-90980264D01*
X143620827Y-91040602D01*
X143620814Y-91040609D01*
X143489125Y-91128602D01*
X143422447Y-91149480D01*
X143420234Y-91149500D01*
X140105851Y-91149500D01*
X140105835Y-91149499D01*
X140098239Y-91149499D01*
X139940124Y-91149499D01*
X139864604Y-91169735D01*
X139787395Y-91190423D01*
X139787394Y-91190424D01*
X139769890Y-91200530D01*
X139701989Y-91217000D01*
X139635963Y-91194146D01*
X139592774Y-91139224D01*
X139589962Y-91131459D01*
X139566212Y-91058363D01*
X139566211Y-91058360D01*
X139516560Y-90960917D01*
X139483996Y-90897006D01*
X139450207Y-90850499D01*
X139377558Y-90750505D01*
X139377554Y-90750500D01*
X139249499Y-90622445D01*
X139249494Y-90622441D01*
X139102997Y-90516006D01*
X139102996Y-90516005D01*
X139102994Y-90516004D01*
X139030060Y-90478842D01*
X138941639Y-90433788D01*
X138941636Y-90433787D01*
X138769410Y-90377829D01*
X138590551Y-90349500D01*
X138590546Y-90349500D01*
X138409454Y-90349500D01*
X138409449Y-90349500D01*
X138230589Y-90377829D01*
X138058363Y-90433787D01*
X138058360Y-90433788D01*
X137897002Y-90516006D01*
X137750505Y-90622441D01*
X137750500Y-90622445D01*
X137622445Y-90750500D01*
X137622441Y-90750505D01*
X137516006Y-90897002D01*
X137433788Y-91058360D01*
X137433787Y-91058363D01*
X137377829Y-91230589D01*
X137349500Y-91409448D01*
X134380500Y-91409448D01*
X134358330Y-91269480D01*
X134352171Y-91230591D01*
X134300834Y-91072589D01*
X134296212Y-91058363D01*
X134296211Y-91058360D01*
X134246560Y-90960917D01*
X134213996Y-90897006D01*
X134180207Y-90850499D01*
X134107558Y-90750505D01*
X134107554Y-90750500D01*
X133979499Y-90622445D01*
X133979494Y-90622441D01*
X133832997Y-90516006D01*
X133832996Y-90516005D01*
X133832994Y-90516004D01*
X133760060Y-90478842D01*
X133671639Y-90433788D01*
X133671636Y-90433787D01*
X133499410Y-90377829D01*
X133320551Y-90349500D01*
X133320546Y-90349500D01*
X133139454Y-90349500D01*
X133139449Y-90349500D01*
X132960589Y-90377829D01*
X132788363Y-90433787D01*
X132788360Y-90433788D01*
X132627002Y-90516006D01*
X132480505Y-90622441D01*
X132480500Y-90622445D01*
X132352445Y-90750500D01*
X132352441Y-90750505D01*
X132246006Y-90897002D01*
X132163788Y-91058360D01*
X132163787Y-91058363D01*
X132107829Y-91230589D01*
X132079500Y-91409448D01*
X131000500Y-91409448D01*
X131000500Y-86421153D01*
X137699500Y-86421153D01*
X137699500Y-86578846D01*
X137730261Y-86733489D01*
X137730264Y-86733501D01*
X137790602Y-86879172D01*
X137790609Y-86879185D01*
X137878210Y-87010288D01*
X137878213Y-87010292D01*
X137989707Y-87121786D01*
X137989711Y-87121789D01*
X138120814Y-87209390D01*
X138120827Y-87209397D01*
X138266498Y-87269735D01*
X138266503Y-87269737D01*
X138421153Y-87300499D01*
X138421156Y-87300500D01*
X138421158Y-87300500D01*
X138578844Y-87300500D01*
X138578845Y-87300499D01*
X138733497Y-87269737D01*
X138879179Y-87209394D01*
X138879185Y-87209390D01*
X139010875Y-87121398D01*
X139077553Y-87100520D01*
X139079766Y-87100500D01*
X139913331Y-87100500D01*
X139913347Y-87100501D01*
X139920943Y-87100501D01*
X140079054Y-87100501D01*
X140079057Y-87100501D01*
X140231785Y-87059577D01*
X140281904Y-87030639D01*
X140368716Y-86980520D01*
X140480520Y-86868716D01*
X140480520Y-86868714D01*
X140490728Y-86858507D01*
X140490730Y-86858504D01*
X141608506Y-85740728D01*
X141608511Y-85740724D01*
X141618714Y-85730520D01*
X141618716Y-85730520D01*
X141730520Y-85618716D01*
X141734408Y-85611980D01*
X141788544Y-85518216D01*
X141788545Y-85518214D01*
X141809574Y-85481790D01*
X141809575Y-85481789D01*
X141809575Y-85481787D01*
X141809577Y-85481785D01*
X141850501Y-85329057D01*
X141850501Y-85329054D01*
X141851562Y-85320997D01*
X141853018Y-85321188D01*
X141870186Y-85262725D01*
X141871399Y-85260873D01*
X141959390Y-85129185D01*
X141959390Y-85129184D01*
X141959394Y-85129179D01*
X142019737Y-84983497D01*
X142050500Y-84828842D01*
X142050500Y-84671158D01*
X142050500Y-84671155D01*
X142050499Y-84671153D01*
X142032137Y-84578842D01*
X142019737Y-84516503D01*
X141970938Y-84398690D01*
X141959397Y-84370827D01*
X141959390Y-84370814D01*
X141871789Y-84239711D01*
X141871786Y-84239707D01*
X141760292Y-84128213D01*
X141760288Y-84128210D01*
X141629185Y-84040609D01*
X141629172Y-84040602D01*
X141483501Y-83980264D01*
X141483489Y-83980261D01*
X141328845Y-83949500D01*
X141328842Y-83949500D01*
X141171158Y-83949500D01*
X141171155Y-83949500D01*
X141016510Y-83980261D01*
X141016498Y-83980264D01*
X140870827Y-84040602D01*
X140870814Y-84040609D01*
X140739711Y-84128210D01*
X140739707Y-84128213D01*
X140628213Y-84239707D01*
X140628210Y-84239711D01*
X140540609Y-84370814D01*
X140540602Y-84370827D01*
X140480264Y-84516498D01*
X140480261Y-84516510D01*
X140449500Y-84671153D01*
X140449500Y-84828846D01*
X140480261Y-84983489D01*
X140480264Y-84983501D01*
X140503328Y-85039182D01*
X140510797Y-85108651D01*
X140479522Y-85171130D01*
X140476448Y-85174315D01*
X139787584Y-85863181D01*
X139726261Y-85896666D01*
X139699903Y-85899500D01*
X139079766Y-85899500D01*
X139012727Y-85879815D01*
X139010875Y-85878602D01*
X138879185Y-85790609D01*
X138879172Y-85790602D01*
X138733501Y-85730264D01*
X138733489Y-85730261D01*
X138578845Y-85699500D01*
X138578842Y-85699500D01*
X138421158Y-85699500D01*
X138421155Y-85699500D01*
X138266510Y-85730261D01*
X138266498Y-85730264D01*
X138120827Y-85790602D01*
X138120814Y-85790609D01*
X137989711Y-85878210D01*
X137989707Y-85878213D01*
X137878213Y-85989707D01*
X137878210Y-85989711D01*
X137790609Y-86120814D01*
X137790602Y-86120827D01*
X137730264Y-86266498D01*
X137730261Y-86266510D01*
X137699500Y-86421153D01*
X131000500Y-86421153D01*
X131000500Y-72258675D01*
X131020185Y-72191636D01*
X131036819Y-72170994D01*
X134548608Y-68659205D01*
X140094747Y-63113065D01*
X140156068Y-63079582D01*
X140225760Y-63084566D01*
X140281693Y-63126438D01*
X140306110Y-63191902D01*
X140291784Y-63259201D01*
X140196463Y-63437534D01*
X140196461Y-63437539D01*
X140059220Y-63768863D01*
X139955114Y-64112058D01*
X139885150Y-64463788D01*
X139856962Y-64750000D01*
X140858012Y-64750000D01*
X140840795Y-64759940D01*
X140784940Y-64815795D01*
X140745444Y-64884204D01*
X140725000Y-64960504D01*
X140725000Y-65039496D01*
X140745444Y-65115796D01*
X140784940Y-65184205D01*
X140840795Y-65240060D01*
X140858012Y-65250000D01*
X139856962Y-65250000D01*
X139885150Y-65536211D01*
X139955114Y-65887941D01*
X140059220Y-66231136D01*
X140196461Y-66562460D01*
X140196463Y-66562465D01*
X140365508Y-66878726D01*
X140365519Y-66878744D01*
X140564751Y-67176916D01*
X140564761Y-67176930D01*
X140792271Y-67454151D01*
X141045848Y-67707728D01*
X141323069Y-67935238D01*
X141323083Y-67935248D01*
X141621255Y-68134480D01*
X141621273Y-68134491D01*
X141937534Y-68303536D01*
X141937539Y-68303538D01*
X142268863Y-68440779D01*
X142612058Y-68544885D01*
X142963789Y-68614849D01*
X142963788Y-68614849D01*
X143250000Y-68643037D01*
X143250000Y-67641988D01*
X143259940Y-67659205D01*
X143315795Y-67715060D01*
X143384204Y-67754556D01*
X143460504Y-67775000D01*
X143539496Y-67775000D01*
X143615796Y-67754556D01*
X143684205Y-67715060D01*
X143740060Y-67659205D01*
X143750000Y-67641988D01*
X143750000Y-68643036D01*
X144036211Y-68614849D01*
X144387941Y-68544885D01*
X144731136Y-68440779D01*
X145062460Y-68303538D01*
X145062465Y-68303536D01*
X145378726Y-68134491D01*
X145378744Y-68134480D01*
X145676916Y-67935248D01*
X145676930Y-67935238D01*
X145954151Y-67707728D01*
X146207728Y-67454151D01*
X146435238Y-67176930D01*
X146435248Y-67176916D01*
X146634480Y-66878744D01*
X146634491Y-66878726D01*
X146803536Y-66562465D01*
X146803538Y-66562460D01*
X146884378Y-66367299D01*
X163895500Y-66367299D01*
X163895500Y-66632700D01*
X163921590Y-66830864D01*
X163930140Y-66895808D01*
X163965977Y-67029556D01*
X163993213Y-67131205D01*
X163998826Y-67152151D01*
X164038114Y-67247000D01*
X164100383Y-67397331D01*
X164100388Y-67397342D01*
X164233073Y-67627157D01*
X164233084Y-67627173D01*
X164394632Y-67837708D01*
X164394638Y-67837715D01*
X164582284Y-68025361D01*
X164582291Y-68025367D01*
X164610406Y-68046940D01*
X164792835Y-68186922D01*
X164792842Y-68186926D01*
X165022657Y-68319611D01*
X165022662Y-68319613D01*
X165022665Y-68319615D01*
X165267849Y-68421174D01*
X165524192Y-68489860D01*
X165787307Y-68524500D01*
X165787314Y-68524500D01*
X166052686Y-68524500D01*
X166052693Y-68524500D01*
X166315808Y-68489860D01*
X166572151Y-68421174D01*
X166817335Y-68319615D01*
X167047165Y-68186922D01*
X167257710Y-68025366D01*
X167445366Y-67837710D01*
X167606922Y-67627165D01*
X167739615Y-67397335D01*
X167841174Y-67152151D01*
X167909860Y-66895808D01*
X167944500Y-66632693D01*
X167944500Y-66367307D01*
X167929056Y-66250000D01*
X168991447Y-66250000D01*
X170347502Y-66250000D01*
X170328343Y-66296255D01*
X170301500Y-66431204D01*
X170301500Y-66568796D01*
X170328343Y-66703745D01*
X170347502Y-66750000D01*
X168991448Y-66750000D01*
X169010630Y-66895706D01*
X169079303Y-67151996D01*
X169180828Y-67397101D01*
X169180835Y-67397115D01*
X169313490Y-67626880D01*
X169313495Y-67626887D01*
X169475015Y-67837384D01*
X169662615Y-68024984D01*
X169873112Y-68186504D01*
X169873119Y-68186509D01*
X170102884Y-68319164D01*
X170102898Y-68319171D01*
X170348006Y-68420697D01*
X170348004Y-68420697D01*
X170604294Y-68489369D01*
X170604292Y-68489369D01*
X170749999Y-68508550D01*
X170750000Y-68508550D01*
X170750000Y-67152497D01*
X170796255Y-67171657D01*
X170931204Y-67198500D01*
X171068796Y-67198500D01*
X171203745Y-67171657D01*
X171250000Y-67152497D01*
X171250000Y-68508550D01*
X171395706Y-68489369D01*
X171651994Y-68420697D01*
X171897101Y-68319171D01*
X171897115Y-68319164D01*
X172126880Y-68186509D01*
X172126887Y-68186504D01*
X172337384Y-68024984D01*
X172524984Y-67837384D01*
X172686504Y-67626887D01*
X172686509Y-67626880D01*
X172819164Y-67397115D01*
X172819171Y-67397101D01*
X172920696Y-67151996D01*
X172989369Y-66895706D01*
X173008552Y-66750000D01*
X171652498Y-66750000D01*
X171671657Y-66703745D01*
X171698500Y-66568796D01*
X171698500Y-66431204D01*
X171671657Y-66296255D01*
X171652498Y-66250000D01*
X173008552Y-66250000D01*
X172989369Y-66104293D01*
X172920696Y-65848003D01*
X172819171Y-65602898D01*
X172819164Y-65602884D01*
X172686509Y-65373119D01*
X172686504Y-65373112D01*
X172524984Y-65162615D01*
X172337384Y-64975015D01*
X172126887Y-64813495D01*
X172126880Y-64813490D01*
X171897115Y-64680835D01*
X171897101Y-64680828D01*
X171651996Y-64579303D01*
X171395706Y-64510630D01*
X171250000Y-64491447D01*
X171250000Y-65847502D01*
X171203745Y-65828343D01*
X171068796Y-65801500D01*
X170931204Y-65801500D01*
X170796255Y-65828343D01*
X170750000Y-65847502D01*
X170750000Y-64491447D01*
X170604293Y-64510630D01*
X170348003Y-64579303D01*
X170102898Y-64680828D01*
X170102884Y-64680835D01*
X169873119Y-64813490D01*
X169873112Y-64813495D01*
X169662615Y-64975015D01*
X169475015Y-65162615D01*
X169313495Y-65373112D01*
X169313490Y-65373119D01*
X169180835Y-65602884D01*
X169180828Y-65602898D01*
X169079303Y-65848003D01*
X169010630Y-66104293D01*
X168991447Y-66250000D01*
X167929056Y-66250000D01*
X167909860Y-66104192D01*
X167841174Y-65847849D01*
X167739615Y-65602665D01*
X167739613Y-65602662D01*
X167739611Y-65602657D01*
X167606926Y-65372842D01*
X167606922Y-65372835D01*
X167502773Y-65237105D01*
X167445367Y-65162291D01*
X167445361Y-65162284D01*
X167257715Y-64974638D01*
X167257708Y-64974632D01*
X167047173Y-64813084D01*
X167047171Y-64813082D01*
X167047165Y-64813078D01*
X167047160Y-64813075D01*
X167047157Y-64813073D01*
X166817342Y-64680388D01*
X166817331Y-64680383D01*
X166673708Y-64620892D01*
X166572151Y-64578826D01*
X166572149Y-64578825D01*
X166572148Y-64578825D01*
X166464569Y-64550000D01*
X166315808Y-64510140D01*
X166271836Y-64504351D01*
X166052700Y-64475500D01*
X166052693Y-64475500D01*
X165787307Y-64475500D01*
X165787299Y-64475500D01*
X165536856Y-64508472D01*
X165524192Y-64510140D01*
X165451730Y-64529556D01*
X165267851Y-64578825D01*
X165022668Y-64680383D01*
X165022657Y-64680388D01*
X164792842Y-64813073D01*
X164792826Y-64813084D01*
X164582291Y-64974632D01*
X164582284Y-64974638D01*
X164394638Y-65162284D01*
X164394632Y-65162291D01*
X164233084Y-65372826D01*
X164233073Y-65372842D01*
X164100388Y-65602657D01*
X164100383Y-65602668D01*
X163998825Y-65847851D01*
X163930141Y-66104189D01*
X163930139Y-66104200D01*
X163895500Y-66367299D01*
X146884378Y-66367299D01*
X146905712Y-66315795D01*
X146940779Y-66231136D01*
X147044885Y-65887941D01*
X147114849Y-65536211D01*
X147143038Y-65250000D01*
X146141988Y-65250000D01*
X146159205Y-65240060D01*
X146215060Y-65184205D01*
X146254556Y-65115796D01*
X146275000Y-65039496D01*
X146275000Y-64960504D01*
X146254556Y-64884204D01*
X146215060Y-64815795D01*
X146159205Y-64759940D01*
X146141988Y-64750000D01*
X147143037Y-64750000D01*
X147114849Y-64463788D01*
X147044885Y-64112058D01*
X146940779Y-63768863D01*
X146803538Y-63437539D01*
X146803536Y-63437534D01*
X146634491Y-63121273D01*
X146634480Y-63121255D01*
X146435248Y-62823083D01*
X146435238Y-62823069D01*
X146207728Y-62545848D01*
X145954151Y-62292271D01*
X145676930Y-62064761D01*
X145676916Y-62064751D01*
X145378744Y-61865519D01*
X145378726Y-61865508D01*
X145132425Y-61733858D01*
X145082581Y-61684896D01*
X145067120Y-61616758D01*
X145090952Y-61551079D01*
X145146509Y-61508710D01*
X145190878Y-61500500D01*
X193875500Y-61500500D01*
X193942539Y-61520185D01*
G37*
%TD.AperFunction*%
%TA.AperFunction,Conductor*%
G36*
X190750000Y-114308011D02*
G01*
X190740060Y-114290795D01*
X190684205Y-114234940D01*
X190615796Y-114195444D01*
X190539496Y-114175000D01*
X190460504Y-114175000D01*
X190384204Y-114195444D01*
X190315795Y-114234940D01*
X190259940Y-114290795D01*
X190250000Y-114308011D01*
X190250000Y-113782618D01*
X190382022Y-113800000D01*
X190617978Y-113800000D01*
X190750000Y-113782618D01*
X190750000Y-114308011D01*
G37*
%TD.AperFunction*%
%TA.AperFunction,Conductor*%
G36*
X188700000Y-111882022D02*
G01*
X188700000Y-112117978D01*
X188717381Y-112250000D01*
X188191988Y-112250000D01*
X188209205Y-112240060D01*
X188265060Y-112184205D01*
X188304556Y-112115796D01*
X188325000Y-112039496D01*
X188325000Y-111960504D01*
X188304556Y-111884204D01*
X188265060Y-111815795D01*
X188209205Y-111759940D01*
X188191988Y-111750000D01*
X188717381Y-111750000D01*
X188700000Y-111882022D01*
G37*
%TD.AperFunction*%
%TA.AperFunction,Conductor*%
G36*
X190750000Y-110217381D02*
G01*
X190617978Y-110200000D01*
X190382022Y-110200000D01*
X190250000Y-110217381D01*
X190250000Y-109691988D01*
X190259940Y-109709205D01*
X190315795Y-109765060D01*
X190384204Y-109804556D01*
X190460504Y-109825000D01*
X190539496Y-109825000D01*
X190615796Y-109804556D01*
X190684205Y-109765060D01*
X190740060Y-109709205D01*
X190750000Y-109691988D01*
X190750000Y-110217381D01*
G37*
%TD.AperFunction*%
%TA.AperFunction,Conductor*%
G36*
X143750000Y-67308011D02*
G01*
X143740060Y-67290795D01*
X143684205Y-67234940D01*
X143615796Y-67195444D01*
X143539496Y-67175000D01*
X143460504Y-67175000D01*
X143384204Y-67195444D01*
X143315795Y-67234940D01*
X143259940Y-67290795D01*
X143250000Y-67308011D01*
X143250000Y-66782618D01*
X143382022Y-66800000D01*
X143617978Y-66800000D01*
X143750000Y-66782618D01*
X143750000Y-67308011D01*
G37*
%TD.AperFunction*%
%TA.AperFunction,Conductor*%
G36*
X141700000Y-64882022D02*
G01*
X141700000Y-65117978D01*
X141717381Y-65250000D01*
X141191988Y-65250000D01*
X141209205Y-65240060D01*
X141265060Y-65184205D01*
X141304556Y-65115796D01*
X141325000Y-65039496D01*
X141325000Y-64960504D01*
X141304556Y-64884204D01*
X141265060Y-64815795D01*
X141209205Y-64759940D01*
X141191988Y-64750000D01*
X141717381Y-64750000D01*
X141700000Y-64882022D01*
G37*
%TD.AperFunction*%
%TA.AperFunction,Conductor*%
G36*
X145790795Y-64759940D02*
G01*
X145734940Y-64815795D01*
X145695444Y-64884204D01*
X145675000Y-64960504D01*
X145675000Y-65039496D01*
X145695444Y-65115796D01*
X145734940Y-65184205D01*
X145790795Y-65240060D01*
X145808012Y-65250000D01*
X145282619Y-65250000D01*
X145300000Y-65117978D01*
X145300000Y-64882022D01*
X145282619Y-64750000D01*
X145808012Y-64750000D01*
X145790795Y-64759940D01*
G37*
%TD.AperFunction*%
%TD*%
%TA.AperFunction,NonConductor*%
G36*
X144455703Y-103780384D02*
G01*
X144462181Y-103786416D01*
X144588084Y-103912319D01*
X144592422Y-103920264D01*
X144599670Y-103925690D01*
X144608904Y-103950449D01*
X144621569Y-103973642D01*
X144620923Y-103982671D01*
X144624087Y-103991154D01*
X144618470Y-104016974D01*
X144616585Y-104043334D01*
X144610766Y-104052387D01*
X144609235Y-104059427D01*
X144588084Y-104087681D01*
X144462181Y-104213584D01*
X144400858Y-104247069D01*
X144331166Y-104242085D01*
X144275233Y-104200213D01*
X144250816Y-104134749D01*
X144250500Y-104125903D01*
X144250500Y-103874097D01*
X144270185Y-103807058D01*
X144322989Y-103761303D01*
X144392147Y-103751359D01*
X144455703Y-103780384D01*
G37*
%TD.AperFunction*%
%TA.AperFunction,NonConductor*%
G36*
X146842539Y-100870185D02*
G01*
X146888294Y-100922989D01*
X146899500Y-100974500D01*
X146899500Y-104817059D01*
X146879815Y-104884098D01*
X146863181Y-104904740D01*
X146778213Y-104989707D01*
X146778210Y-104989711D01*
X146690609Y-105120814D01*
X146690602Y-105120827D01*
X146630264Y-105266498D01*
X146630261Y-105266510D01*
X146599500Y-105421153D01*
X146599500Y-105578846D01*
X146630261Y-105733489D01*
X146630264Y-105733501D01*
X146690602Y-105879172D01*
X146690609Y-105879185D01*
X146778210Y-106010288D01*
X146778213Y-106010292D01*
X146889707Y-106121786D01*
X146889711Y-106121789D01*
X147020814Y-106209390D01*
X147020827Y-106209397D01*
X147166498Y-106269735D01*
X147166503Y-106269737D01*
X147276987Y-106291713D01*
X147299691Y-106296230D01*
X147361602Y-106328615D01*
X147396176Y-106389330D01*
X147399500Y-106417847D01*
X147399500Y-109699903D01*
X147379815Y-109766942D01*
X147363181Y-109787584D01*
X145327849Y-111822915D01*
X145266526Y-111856400D01*
X145264360Y-111856851D01*
X145109018Y-111887751D01*
X145109008Y-111887754D01*
X145021952Y-111923814D01*
X144952483Y-111931283D01*
X144890004Y-111900007D01*
X144854352Y-111839918D01*
X144850500Y-111809253D01*
X144850500Y-105575097D01*
X144870185Y-105508058D01*
X144886819Y-105487416D01*
X145205968Y-105168267D01*
X145539662Y-104834572D01*
X145600983Y-104801089D01*
X145603150Y-104800638D01*
X145661085Y-104789113D01*
X145758497Y-104769737D01*
X145904179Y-104709394D01*
X146035289Y-104621789D01*
X146146789Y-104510289D01*
X146234394Y-104379179D01*
X146294737Y-104233497D01*
X146325500Y-104078842D01*
X146325500Y-103921158D01*
X146325500Y-103921155D01*
X146325499Y-103921153D01*
X146316957Y-103878210D01*
X146294737Y-103766503D01*
X146284590Y-103742005D01*
X146234397Y-103620827D01*
X146234390Y-103620814D01*
X146146789Y-103489711D01*
X146146786Y-103489707D01*
X146035292Y-103378213D01*
X146035288Y-103378210D01*
X145904185Y-103290609D01*
X145904172Y-103290602D01*
X145758501Y-103230264D01*
X145758491Y-103230261D01*
X145603149Y-103199361D01*
X145541238Y-103166976D01*
X145539660Y-103165425D01*
X144012590Y-101638355D01*
X144012588Y-101638352D01*
X143893717Y-101519481D01*
X143893716Y-101519480D01*
X143791266Y-101460331D01*
X143791265Y-101460330D01*
X143756783Y-101440422D01*
X143693755Y-101423534D01*
X143604057Y-101399499D01*
X143445943Y-101399499D01*
X143438347Y-101399499D01*
X143438331Y-101399500D01*
X141299154Y-101399500D01*
X141232115Y-101379815D01*
X141186360Y-101327011D01*
X141176416Y-101257853D01*
X141205441Y-101194297D01*
X141211473Y-101187819D01*
X141512473Y-100886819D01*
X141573796Y-100853334D01*
X141600154Y-100850500D01*
X146775500Y-100850500D01*
X146842539Y-100870185D01*
G37*
%TD.AperFunction*%
M02*
