%TF.GenerationSoftware,KiCad,Pcbnew,9.0.6*%
%TF.CreationDate,2026-01-04T20:20:59-05:00*%
%TF.ProjectId,Charge_Indicator,43686172-6765-45f4-996e-64696361746f,rev?*%
%TF.SameCoordinates,Original*%
%TF.FileFunction,Soldermask,Top*%
%TF.FilePolarity,Negative*%
%FSLAX46Y46*%
G04 Gerber Fmt 4.6, Leading zero omitted, Abs format (unit mm)*
G04 Created by KiCad (PCBNEW 9.0.6) date 2026-01-04 20:20:59*
%MOMM*%
%LPD*%
G01*
G04 APERTURE LIST*
%ADD10C,0.001000*%
%ADD11R,1.020000X3.120000*%
%ADD12C,2.000000*%
%ADD13R,0.950000X0.850000*%
%ADD14R,0.900000X1.650000*%
%ADD15C,6.300000*%
%ADD16R,0.500000X0.750000*%
%ADD17R,0.950000X2.650000*%
%ADD18R,0.850000X0.950000*%
%ADD19R,0.900000X0.800000*%
%ADD20R,1.300000X0.850000*%
%ADD21R,1.200000X0.600000*%
%ADD22R,0.600000X0.850000*%
%ADD23R,1.550000X0.700000*%
%ADD24R,1.000000X0.600000*%
%ADD25R,0.750000X0.500000*%
%ADD26R,1.000000X1.200000*%
%ADD27R,0.001000X0.001000*%
%ADD28R,1.500000X0.700000*%
%ADD29R,0.800000X1.000000*%
%ADD30R,3.450000X1.400000*%
%ADD31R,1.750000X0.950000*%
%ADD32R,0.700000X1.550000*%
%ADD33C,1.000000*%
%ADD34O,1.450000X0.600000*%
%ADD35R,0.950000X1.750000*%
%ADD36R,0.600000X1.200000*%
%ADD37R,0.850000X1.400000*%
%ADD38R,1.900000X6.350000*%
%ADD39O,0.300000X1.350000*%
%ADD40O,1.400000X0.400000*%
%ADD41C,3.048000*%
G04 APERTURE END LIST*
D10*
%TO.C,J4*%
X138500000Y-91500000D03*
D11*
X137230000Y-94190000D03*
X137230000Y-88810000D03*
X139770000Y-94190000D03*
X139770000Y-88810000D03*
%TD*%
D12*
%TO.C,FID2*%
X183000000Y-124000000D03*
%TD*%
D13*
%TO.C,C14*%
X151750000Y-91050000D03*
X151750000Y-89450000D03*
%TD*%
D14*
%TO.C,R4*%
X178775000Y-87133930D03*
X175725000Y-87133930D03*
%TD*%
D10*
%TO.C,M1*%
X187025000Y-66000000D03*
X187213000Y-65053000D03*
X187213400Y-66947100D03*
X187750000Y-64250000D03*
X187750000Y-67750000D03*
X188552900Y-63713400D03*
X188553000Y-68287000D03*
X189500000Y-63525000D03*
D15*
X189500000Y-66000000D03*
D10*
X189500000Y-68475000D03*
X190447000Y-63713000D03*
X190447100Y-68286600D03*
X191250000Y-64250000D03*
X191250000Y-67750000D03*
X191786600Y-65052900D03*
X191787000Y-66947000D03*
X191975000Y-66000000D03*
%TD*%
D16*
%TO.C,R21*%
X145275000Y-91000000D03*
X146725000Y-91000000D03*
%TD*%
D17*
%TO.C,C1*%
X172050000Y-83500000D03*
X168950000Y-83500000D03*
%TD*%
D18*
%TO.C,C12*%
X148200000Y-90750000D03*
X149800000Y-90750000D03*
%TD*%
D19*
%TO.C,D1*%
X169000000Y-105585000D03*
X169000000Y-107415000D03*
X171000000Y-106500000D03*
%TD*%
D20*
%TO.C,D4*%
X152250000Y-73375000D03*
X152250000Y-75125000D03*
%TD*%
D21*
%TO.C,Q2*%
X162600000Y-96550000D03*
X162600000Y-98450000D03*
X164400000Y-97500000D03*
%TD*%
D22*
%TO.C,U5*%
X140950000Y-80179999D03*
X140000000Y-80179999D03*
X139050000Y-80179999D03*
X139050000Y-82429999D03*
X140950000Y-82429999D03*
%TD*%
D23*
%TO.C,R29*%
X145000000Y-78075000D03*
X145000000Y-80925000D03*
%TD*%
D16*
%TO.C,R6*%
X145525000Y-103000000D03*
X146975000Y-103000000D03*
%TD*%
D24*
%TO.C,U2*%
X177850000Y-104450000D03*
X177850000Y-103500000D03*
X177850000Y-102550000D03*
X175150000Y-102550000D03*
X175150000Y-103500000D03*
X175150000Y-104450000D03*
%TD*%
D25*
%TO.C,R22*%
X172000000Y-97725000D03*
X172000000Y-96275000D03*
%TD*%
D26*
%TO.C,D9*%
X150750000Y-93400000D03*
X150750000Y-97100000D03*
%TD*%
D27*
%TO.C,SW1*%
X132500000Y-106500000D03*
X132500000Y-109500000D03*
D28*
X134250000Y-105750070D03*
X134250000Y-108750060D03*
X134250000Y-110249930D03*
D29*
X133600000Y-104350020D03*
X131400000Y-104350020D03*
X133600000Y-111649980D03*
X131400000Y-111649980D03*
%TD*%
D16*
%TO.C,R11*%
X154975000Y-94250000D03*
X153525000Y-94250000D03*
%TD*%
%TO.C,R17*%
X135775000Y-111750000D03*
X137225000Y-111750000D03*
%TD*%
%TO.C,R13*%
X149775000Y-80750000D03*
X151225000Y-80750000D03*
%TD*%
D30*
%TO.C,R26*%
X160500000Y-71500000D03*
X160500000Y-65500000D03*
%TD*%
D26*
%TO.C,D7*%
X144250000Y-93400000D03*
X144250000Y-97100000D03*
%TD*%
D31*
%TO.C,C7*%
X144000000Y-82950000D03*
X144000000Y-86050000D03*
%TD*%
D32*
%TO.C,R18*%
X156075000Y-90250000D03*
X158925000Y-90250000D03*
%TD*%
D18*
%TO.C,C10*%
X170700000Y-88000000D03*
X172300000Y-88000000D03*
%TD*%
D33*
%TO.C,TP2*%
X133500000Y-79500000D03*
%TD*%
D16*
%TO.C,R2*%
X176275000Y-112000000D03*
X177725000Y-112000000D03*
%TD*%
%TO.C,R12*%
X149775000Y-78750000D03*
X151225000Y-78750000D03*
%TD*%
%TO.C,R25*%
X154950000Y-91750000D03*
X153500000Y-91750000D03*
%TD*%
D17*
%TO.C,C3*%
X137200000Y-75750000D03*
X140300000Y-75750000D03*
%TD*%
D34*
%TO.C,U4*%
X153525000Y-78690000D03*
X153525000Y-79960000D03*
X153525000Y-81230000D03*
X153525000Y-82500000D03*
X153525000Y-83770000D03*
X153525000Y-85040000D03*
X153525000Y-86310000D03*
X158975000Y-86310000D03*
X158975000Y-85040000D03*
X158975000Y-83770000D03*
X158975000Y-82500000D03*
X158975000Y-81230000D03*
X158975000Y-79960000D03*
X158975000Y-78690000D03*
%TD*%
D13*
%TO.C,C8*%
X162500000Y-85000000D03*
X162500000Y-86600000D03*
%TD*%
D33*
%TO.C,TP1*%
X142000000Y-79500000D03*
%TD*%
D16*
%TO.C,R5*%
X145525000Y-105500000D03*
X146975000Y-105500000D03*
%TD*%
D35*
%TO.C,C6*%
X140300000Y-73000000D03*
X137200000Y-73000000D03*
%TD*%
D36*
%TO.C,Q1*%
X171550000Y-102900000D03*
X173450000Y-102900000D03*
X172500000Y-101100000D03*
%TD*%
D22*
%TO.C,U6*%
X168550000Y-97625000D03*
X169500000Y-97625000D03*
X170450000Y-97625000D03*
X170450000Y-95375000D03*
X168550000Y-95375000D03*
%TD*%
D37*
%TO.C,C2*%
X177000000Y-106500000D03*
X175000000Y-106500000D03*
%TD*%
D10*
%TO.C,M3*%
X133025000Y-120000000D03*
X133213000Y-119053000D03*
X133213400Y-120947100D03*
X133750000Y-118250000D03*
X133750000Y-121750000D03*
X134552900Y-117713400D03*
X134553000Y-122287000D03*
X135500000Y-117525000D03*
D15*
X135500000Y-120000000D03*
D10*
X135500000Y-122475000D03*
X136447000Y-117713000D03*
X136447100Y-122286600D03*
X137250000Y-118250000D03*
X137250000Y-121750000D03*
X137786600Y-119052900D03*
X137787000Y-120947000D03*
X137975000Y-120000000D03*
%TD*%
D25*
%TO.C,R19*%
X167000000Y-98275000D03*
X167000000Y-99725000D03*
%TD*%
D18*
%TO.C,C5*%
X179700000Y-92750000D03*
X181300000Y-92750000D03*
%TD*%
D12*
%TO.C,FID3*%
X131500000Y-115000000D03*
%TD*%
D16*
%TO.C,R24*%
X158225000Y-91750000D03*
X156775000Y-91750000D03*
%TD*%
%TO.C,R15*%
X149775000Y-84750000D03*
X151225000Y-84750000D03*
%TD*%
D25*
%TO.C,R27*%
X170500000Y-98775000D03*
X170500000Y-100225000D03*
%TD*%
D16*
%TO.C,R8*%
X158225000Y-96750000D03*
X156775000Y-96750000D03*
%TD*%
D10*
%TO.C,M4*%
X141025000Y-65000000D03*
X141213000Y-64053000D03*
X141213400Y-65947100D03*
X141750000Y-63250000D03*
X141750000Y-66750000D03*
X142552900Y-62713400D03*
X142553000Y-67287000D03*
X143500000Y-62525000D03*
D15*
X143500000Y-65000000D03*
D10*
X143500000Y-67475000D03*
X144447000Y-62713000D03*
X144447100Y-67286600D03*
X145250000Y-63250000D03*
X145250000Y-66750000D03*
X145786600Y-64052900D03*
X145787000Y-65947000D03*
X145975000Y-65000000D03*
%TD*%
D18*
%TO.C,C9*%
X172300000Y-90500000D03*
X170700000Y-90500000D03*
%TD*%
D20*
%TO.C,D3*%
X146250000Y-73375000D03*
X146250000Y-75125000D03*
%TD*%
D16*
%TO.C,R7*%
X139975000Y-101000000D03*
X138525000Y-101000000D03*
%TD*%
%TO.C,R28*%
X168775000Y-104000000D03*
X170225000Y-104000000D03*
%TD*%
D38*
%TO.C,L2*%
X164450000Y-109500000D03*
X148550000Y-109500000D03*
%TD*%
D20*
%TO.C,D6*%
X150250000Y-73375000D03*
X150250000Y-75125000D03*
%TD*%
D10*
%TO.C,M2*%
X188025000Y-112000000D03*
X188213000Y-111053000D03*
X188213400Y-112947100D03*
X188750000Y-110250000D03*
X188750000Y-113750000D03*
X189552900Y-109713400D03*
X189553000Y-114287000D03*
X190500000Y-109525000D03*
D15*
X190500000Y-112000000D03*
D10*
X190500000Y-114475000D03*
X191447000Y-109713000D03*
X191447100Y-114286600D03*
X192250000Y-110250000D03*
X192250000Y-113750000D03*
X192786600Y-111052900D03*
X192787000Y-112947000D03*
X192975000Y-112000000D03*
%TD*%
D39*
%TO.C,U3*%
X176500000Y-97475000D03*
X177000000Y-97475000D03*
X177500000Y-97475000D03*
X178000000Y-97475000D03*
X178500000Y-97475000D03*
X178500000Y-93025000D03*
X178000000Y-93025000D03*
X177500000Y-93025000D03*
X177000000Y-93025000D03*
X176500000Y-93025000D03*
%TD*%
D37*
%TO.C,C4*%
X175000000Y-109000000D03*
X177000000Y-109000000D03*
%TD*%
D23*
%TO.C,R23*%
X136500000Y-80925000D03*
X136500000Y-78075000D03*
%TD*%
D16*
%TO.C,R20*%
X145275000Y-89000000D03*
X146725000Y-89000000D03*
%TD*%
%TO.C,R10*%
X154975000Y-96750000D03*
X153525000Y-96750000D03*
%TD*%
D25*
%TO.C,R30*%
X164500000Y-101725000D03*
X164500000Y-100275000D03*
%TD*%
D18*
%TO.C,C11*%
X140300000Y-111750000D03*
X138700000Y-111750000D03*
%TD*%
D16*
%TO.C,R14*%
X149775000Y-82750000D03*
X151225000Y-82750000D03*
%TD*%
D20*
%TO.C,D5*%
X154250000Y-73375000D03*
X154250000Y-75125000D03*
%TD*%
%TO.C,D2*%
X148250000Y-73375000D03*
X148250000Y-75125000D03*
%TD*%
D40*
%TO.C,U1*%
X168200000Y-92950000D03*
X168200000Y-92300000D03*
X168200000Y-91650000D03*
X168200000Y-91000000D03*
X168200000Y-90350000D03*
X168200000Y-89700000D03*
X168200000Y-89050000D03*
X162300000Y-89050000D03*
X162300000Y-89700000D03*
X162300000Y-90350000D03*
X162300000Y-91000000D03*
X162300000Y-91650000D03*
X162300000Y-92300000D03*
X162300000Y-92950000D03*
%TD*%
D12*
%TO.C,FID1*%
X131500000Y-72500000D03*
%TD*%
D41*
%TO.C,J3*%
X181500000Y-66500000D03*
X176420000Y-66500000D03*
%TD*%
D16*
%TO.C,R1*%
X172275000Y-112000000D03*
X173725000Y-112000000D03*
%TD*%
D26*
%TO.C,D8*%
X147500000Y-93400000D03*
X147500000Y-97100000D03*
%TD*%
D16*
%TO.C,R16*%
X149775000Y-86750000D03*
X151225000Y-86750000D03*
%TD*%
D10*
%TO.C,J1*%
X133230000Y-91500000D03*
D11*
X131960000Y-94190000D03*
X131960000Y-88810000D03*
X134500000Y-94190000D03*
X134500000Y-88810000D03*
%TD*%
D41*
%TO.C,J2*%
X171000000Y-66500000D03*
X165920000Y-66500000D03*
%TD*%
D25*
%TO.C,R3*%
X177350000Y-100925000D03*
X177350000Y-99475000D03*
%TD*%
D18*
%TO.C,C13*%
X148200000Y-89250000D03*
X149800000Y-89250000D03*
%TD*%
D16*
%TO.C,R9*%
X158225000Y-94250000D03*
X156775000Y-94250000D03*
%TD*%
M02*
