%TF.GenerationSoftware,KiCad,Pcbnew,9.0.6*%
%TF.CreationDate,2026-01-04T20:20:59-05:00*%
%TF.ProjectId,Charge_Indicator,43686172-6765-45f4-996e-64696361746f,rev?*%
%TF.SameCoordinates,Original*%
%TF.FileFunction,Legend,Bot*%
%TF.FilePolarity,Positive*%
%FSLAX46Y46*%
G04 Gerber Fmt 4.6, Leading zero omitted, Abs format (unit mm)*
G04 Created by KiCad (PCBNEW 9.0.6) date 2026-01-04 20:20:59*
%MOMM*%
%LPD*%
G01*
G04 APERTURE LIST*
%ADD10C,0.125000*%
G04 APERTURE END LIST*
D10*
G36*
X193397540Y-71115000D02*
G01*
X193015666Y-71115000D01*
X192923838Y-71110415D01*
X192854099Y-71098208D01*
X192792195Y-71076648D01*
X192744434Y-71048443D01*
X192705206Y-71009769D01*
X192671039Y-70954715D01*
X192648816Y-70891836D01*
X192641363Y-70823862D01*
X192778628Y-70823862D01*
X192783766Y-70870071D01*
X192798473Y-70909103D01*
X192821449Y-70942095D01*
X192849031Y-70965340D01*
X192882288Y-70981445D01*
X192925479Y-70992939D01*
X193015666Y-70997763D01*
X193264977Y-70997763D01*
X193264977Y-70649961D01*
X193033435Y-70649961D01*
X192943492Y-70654858D01*
X192886950Y-70666875D01*
X192855081Y-70681138D01*
X192828791Y-70700600D01*
X192807327Y-70725554D01*
X192791579Y-70754537D01*
X192781959Y-70787026D01*
X192778628Y-70823862D01*
X192641363Y-70823862D01*
X192641303Y-70823312D01*
X192646923Y-70766387D01*
X192663229Y-70716047D01*
X192690151Y-70670905D01*
X192726435Y-70632866D01*
X192772407Y-70602446D01*
X192829858Y-70579619D01*
X192785723Y-70553085D01*
X192751096Y-70522599D01*
X192724712Y-70488028D01*
X192705210Y-70449034D01*
X192693697Y-70408905D01*
X192691294Y-70382759D01*
X192820272Y-70382759D01*
X192827009Y-70432343D01*
X192845917Y-70470809D01*
X192876803Y-70500300D01*
X192922060Y-70521062D01*
X192966523Y-70529191D01*
X193048456Y-70532725D01*
X193264977Y-70532725D01*
X193264977Y-70227909D01*
X193064820Y-70227909D01*
X192964799Y-70232229D01*
X192912473Y-70242015D01*
X192873069Y-70262259D01*
X192844207Y-70294344D01*
X192826420Y-70334927D01*
X192820272Y-70382759D01*
X192691294Y-70382759D01*
X192689846Y-70367006D01*
X192694130Y-70322084D01*
X192707054Y-70278231D01*
X192729169Y-70234748D01*
X192758704Y-70196210D01*
X192794655Y-70165173D01*
X192837796Y-70141081D01*
X192885046Y-70125171D01*
X192945440Y-70114578D01*
X193021833Y-70110673D01*
X193397540Y-70110673D01*
X193397540Y-71115000D01*
G37*
G36*
X192246585Y-70377786D02*
G01*
X192305924Y-70393096D01*
X192359581Y-70418095D01*
X192408478Y-70453101D01*
X192447030Y-70493746D01*
X192477715Y-70542404D01*
X192500647Y-70600370D01*
X192515296Y-70669388D01*
X192520525Y-70751566D01*
X192513816Y-70843636D01*
X192495131Y-70919385D01*
X192465921Y-70981741D01*
X192426613Y-71032995D01*
X192376682Y-71075253D01*
X192319969Y-71105471D01*
X192255143Y-71124120D01*
X192180355Y-71130631D01*
X192118210Y-71125619D01*
X192060103Y-71110834D01*
X192005172Y-71086240D01*
X191955661Y-71052467D01*
X191915162Y-71011165D01*
X191882868Y-70961615D01*
X191860939Y-70906368D01*
X191846291Y-70834290D01*
X191841197Y-70747109D01*
X191967192Y-70747109D01*
X191971746Y-70819731D01*
X191984201Y-70877597D01*
X192003189Y-70923417D01*
X192028009Y-70959417D01*
X192060797Y-70990221D01*
X192096602Y-71011668D01*
X192136108Y-71024592D01*
X192180355Y-71029026D01*
X192224981Y-71024598D01*
X192264715Y-71011713D01*
X192300614Y-70990371D01*
X192333374Y-70959783D01*
X192358299Y-70923897D01*
X192377278Y-70878634D01*
X192389673Y-70821915D01*
X192394190Y-70751200D01*
X192389668Y-70680504D01*
X192377267Y-70623878D01*
X192358288Y-70578756D01*
X192333374Y-70543044D01*
X192300633Y-70512605D01*
X192264740Y-70491354D01*
X192224998Y-70478518D01*
X192180355Y-70474106D01*
X192136447Y-70478508D01*
X192097099Y-70491356D01*
X192061298Y-70512709D01*
X192028375Y-70543410D01*
X192003119Y-70579338D01*
X191984040Y-70623955D01*
X191971672Y-70679117D01*
X191967192Y-70747109D01*
X191841197Y-70747109D01*
X191840858Y-70741308D01*
X191847468Y-70655327D01*
X191866081Y-70583052D01*
X191895571Y-70522062D01*
X191935807Y-70470504D01*
X191986283Y-70427909D01*
X192042962Y-70397590D01*
X192107079Y-70378973D01*
X192180355Y-70372501D01*
X192246585Y-70377786D01*
G37*
G36*
X191480572Y-70379252D02*
G01*
X191555033Y-70398086D01*
X191600269Y-70418414D01*
X191635968Y-70442735D01*
X191663599Y-70470931D01*
X191685405Y-70504138D01*
X191703534Y-70545109D01*
X191717576Y-70595251D01*
X191597348Y-70610882D01*
X191580284Y-70561754D01*
X191559737Y-70527333D01*
X191536226Y-70504270D01*
X191506958Y-70488742D01*
X191465535Y-70478145D01*
X191408121Y-70474106D01*
X191347510Y-70479446D01*
X191302006Y-70493832D01*
X191268108Y-70515811D01*
X191249990Y-70538884D01*
X191237874Y-70572858D01*
X191233243Y-70621751D01*
X191233975Y-70653869D01*
X191314463Y-70674888D01*
X191453244Y-70696245D01*
X191562543Y-70714685D01*
X191609619Y-70731742D01*
X191651020Y-70754986D01*
X191686298Y-70785719D01*
X191714523Y-70825694D01*
X191732618Y-70871678D01*
X191738764Y-70922964D01*
X191734593Y-70967186D01*
X191722529Y-71006161D01*
X191702715Y-71040945D01*
X191674590Y-71072257D01*
X191641102Y-71096608D01*
X191600360Y-71114785D01*
X191550879Y-71126442D01*
X191490797Y-71130631D01*
X191420108Y-71124576D01*
X191355181Y-71106817D01*
X191293123Y-71075971D01*
X191223717Y-71025118D01*
X191214524Y-71074389D01*
X191199110Y-71115000D01*
X191070699Y-71115000D01*
X191090127Y-71071562D01*
X191101779Y-71026523D01*
X191106993Y-70965116D01*
X191109595Y-70809269D01*
X191109595Y-70796079D01*
X191233975Y-70796079D01*
X191239694Y-70871088D01*
X191253759Y-70917468D01*
X191274134Y-70950293D01*
X191300970Y-70978288D01*
X191335031Y-71001854D01*
X191373003Y-71018894D01*
X191414867Y-71029333D01*
X191461427Y-71032934D01*
X191508236Y-71028806D01*
X191543706Y-71017639D01*
X191570420Y-71000511D01*
X191591230Y-70976819D01*
X191603437Y-70950111D01*
X191607606Y-70919300D01*
X191603323Y-70888855D01*
X191590570Y-70861475D01*
X191570184Y-70838810D01*
X191542088Y-70821908D01*
X191504878Y-70810284D01*
X191434804Y-70797545D01*
X191309668Y-70774722D01*
X191233975Y-70751566D01*
X191233975Y-70796079D01*
X191109595Y-70796079D01*
X191109595Y-70645687D01*
X191111511Y-70570214D01*
X191115762Y-70532602D01*
X191131245Y-70485549D01*
X191154047Y-70449132D01*
X191186989Y-70420239D01*
X191239410Y-70394300D01*
X191302171Y-70378549D01*
X191390352Y-70372501D01*
X191480572Y-70379252D01*
G37*
G36*
X190920795Y-71115000D02*
G01*
X190920795Y-70388133D01*
X190810153Y-70388133D01*
X190810153Y-70500790D01*
X190765731Y-70431031D01*
X190731934Y-70397475D01*
X190694218Y-70378722D01*
X190653044Y-70372501D01*
X190612612Y-70376629D01*
X190570735Y-70389420D01*
X190526648Y-70411946D01*
X190568963Y-70525458D01*
X190614776Y-70507275D01*
X190659150Y-70501461D01*
X190697411Y-70507524D01*
X190731568Y-70525703D01*
X190758747Y-70554090D01*
X190777363Y-70592808D01*
X190792545Y-70660224D01*
X190797819Y-70735996D01*
X190797819Y-71115000D01*
X190920795Y-71115000D01*
G37*
G36*
X189990963Y-70472030D02*
G01*
X190027547Y-70432152D01*
X190074310Y-70400101D01*
X190128263Y-70379607D01*
X190191120Y-70372501D01*
X190249351Y-70377831D01*
X190302961Y-70393509D01*
X190352991Y-70419640D01*
X190396703Y-70455112D01*
X190432803Y-70499859D01*
X190461618Y-70555256D01*
X190481417Y-70615194D01*
X190493622Y-70680577D01*
X190497827Y-70752238D01*
X190493130Y-70825581D01*
X190479627Y-70890874D01*
X190457894Y-70949281D01*
X190427031Y-71003027D01*
X190389568Y-71047176D01*
X190345176Y-71082821D01*
X190294910Y-71109460D01*
X190242050Y-71125293D01*
X190185624Y-71130631D01*
X190121280Y-71123515D01*
X190067380Y-71103217D01*
X190021622Y-71069962D01*
X189982719Y-71022187D01*
X189982719Y-71115000D01*
X189868658Y-71115000D01*
X189868658Y-70762130D01*
X189980704Y-70762130D01*
X189984938Y-70831029D01*
X189996506Y-70885866D01*
X190014112Y-70929214D01*
X190037063Y-70963203D01*
X190078175Y-71000344D01*
X190123254Y-71021794D01*
X190174023Y-71029026D01*
X190224236Y-71021591D01*
X190269904Y-70999268D01*
X190312691Y-70960088D01*
X190336679Y-70924520D01*
X190355024Y-70879458D01*
X190367044Y-70822786D01*
X190371432Y-70751933D01*
X190367204Y-70677968D01*
X190355760Y-70620099D01*
X190338563Y-70575298D01*
X190316477Y-70541029D01*
X190286566Y-70511171D01*
X190254218Y-70490595D01*
X190218834Y-70478303D01*
X190179457Y-70474106D01*
X190139173Y-70478444D01*
X190102769Y-70491185D01*
X190069279Y-70512579D01*
X190038101Y-70543715D01*
X190014992Y-70579417D01*
X189997034Y-70625918D01*
X189985105Y-70685796D01*
X189980704Y-70762130D01*
X189868658Y-70762130D01*
X189868658Y-70110673D01*
X189990963Y-70110673D01*
X189990963Y-70472030D01*
G37*
G36*
X189271179Y-71115000D02*
G01*
X188909822Y-71115000D01*
X188821745Y-71110462D01*
X188748988Y-71097903D01*
X188682648Y-71076123D01*
X188629431Y-71047527D01*
X188582856Y-71009160D01*
X188538206Y-70956425D01*
X188501462Y-70893355D01*
X188469940Y-70810184D01*
X188455545Y-70750668D01*
X188446449Y-70683382D01*
X188443257Y-70607341D01*
X188443366Y-70605265D01*
X188579911Y-70605265D01*
X188583159Y-70681252D01*
X188592221Y-70745463D01*
X188606228Y-70799499D01*
X188626967Y-70851134D01*
X188651510Y-70893173D01*
X188679623Y-70926994D01*
X188717540Y-70956125D01*
X188769443Y-70979200D01*
X188831258Y-70992472D01*
X188924842Y-70997763D01*
X189138677Y-70997763D01*
X189138677Y-70227909D01*
X188928262Y-70227909D01*
X188848603Y-70230825D01*
X188793409Y-70238266D01*
X188756803Y-70248548D01*
X188711628Y-70272937D01*
X188670010Y-70310075D01*
X188631507Y-70362304D01*
X188610638Y-70404870D01*
X188594446Y-70458075D01*
X188583792Y-70524058D01*
X188579911Y-70605265D01*
X188443366Y-70605265D01*
X188447912Y-70518466D01*
X188461257Y-70439288D01*
X188482580Y-70368593D01*
X188513692Y-70302222D01*
X188553098Y-70245395D01*
X188601038Y-70197013D01*
X188643742Y-70166260D01*
X188692415Y-70142270D01*
X188747950Y-70125083D01*
X188816288Y-70114865D01*
X188926186Y-70110673D01*
X189271179Y-70110673D01*
X189271179Y-71115000D01*
G37*
G36*
X188052349Y-70379164D02*
G01*
X188116488Y-70398332D01*
X188173099Y-70429589D01*
X188223438Y-70473618D01*
X188263058Y-70526506D01*
X188292382Y-70589980D01*
X188311046Y-70666156D01*
X188317716Y-70757733D01*
X188311148Y-70846071D01*
X188292742Y-70919701D01*
X188263756Y-70981215D01*
X188224476Y-71032629D01*
X188174896Y-71074723D01*
X188117425Y-71105078D01*
X188050517Y-71123980D01*
X187972051Y-71130631D01*
X187908929Y-71126412D01*
X187854085Y-71114400D01*
X187806249Y-71095245D01*
X187764384Y-71069143D01*
X187716582Y-71023441D01*
X187679520Y-70966473D01*
X187653009Y-70896158D01*
X187780076Y-70880526D01*
X187802352Y-70930137D01*
X187827708Y-70967050D01*
X187855914Y-70993611D01*
X187889346Y-71013004D01*
X187927451Y-71024889D01*
X187971379Y-71029026D01*
X188029254Y-71021815D01*
X188079160Y-71000864D01*
X188123054Y-70965645D01*
X188148826Y-70932428D01*
X188168948Y-70891877D01*
X188183151Y-70842595D01*
X188190648Y-70782829D01*
X187649651Y-70782829D01*
X187648918Y-70750040D01*
X187653922Y-70681224D01*
X187778733Y-70681224D01*
X188183810Y-70681224D01*
X188173464Y-70620763D01*
X188152078Y-70571243D01*
X188119940Y-70530465D01*
X188078596Y-70499228D01*
X188031690Y-70480545D01*
X187977486Y-70474106D01*
X187932221Y-70478662D01*
X187892461Y-70491852D01*
X187857039Y-70513615D01*
X187825200Y-70544754D01*
X187804389Y-70577262D01*
X187788514Y-70621658D01*
X187778733Y-70681224D01*
X187653922Y-70681224D01*
X187655449Y-70660218D01*
X187673721Y-70585534D01*
X187702419Y-70523336D01*
X187741181Y-70471542D01*
X187790432Y-70428339D01*
X187845587Y-70397732D01*
X187907836Y-70379001D01*
X187978890Y-70372501D01*
X188052349Y-70379164D01*
G37*
G36*
X187548229Y-70896158D02*
G01*
X187426657Y-70880526D01*
X187415209Y-70926187D01*
X187396144Y-70962313D01*
X187369626Y-70990741D01*
X187336335Y-71011105D01*
X187293582Y-71024232D01*
X187238773Y-71029026D01*
X187183180Y-71024520D01*
X187142479Y-71012557D01*
X187113110Y-70994649D01*
X187089721Y-70969568D01*
X187076471Y-70943005D01*
X187072077Y-70913988D01*
X187076115Y-70888233D01*
X187087896Y-70866836D01*
X187108286Y-70848653D01*
X187143268Y-70833184D01*
X187234010Y-70807131D01*
X187358391Y-70772095D01*
X187421528Y-70748025D01*
X187468044Y-70717791D01*
X187500785Y-70679026D01*
X187520975Y-70632820D01*
X187527773Y-70581634D01*
X187522185Y-70534703D01*
X187505608Y-70491753D01*
X187479377Y-70453921D01*
X187445097Y-70423060D01*
X187413092Y-70404384D01*
X187366878Y-70387217D01*
X187316165Y-70376265D01*
X187260633Y-70372501D01*
X187178459Y-70378973D01*
X187110729Y-70397048D01*
X187069589Y-70416402D01*
X187038386Y-70438613D01*
X187015413Y-70463543D01*
X186990300Y-70510295D01*
X186973037Y-70575711D01*
X187093265Y-70591343D01*
X187102481Y-70556445D01*
X187118276Y-70528114D01*
X187140771Y-70505125D01*
X187168615Y-70488710D01*
X187204845Y-70478032D01*
X187251779Y-70474106D01*
X187308010Y-70477957D01*
X187346788Y-70487856D01*
X187372679Y-70502011D01*
X187393488Y-70522577D01*
X187405083Y-70544079D01*
X187408888Y-70567346D01*
X187405151Y-70589919D01*
X187393867Y-70610211D01*
X187375585Y-70627514D01*
X187346728Y-70642817D01*
X187238101Y-70674141D01*
X187117885Y-70708851D01*
X187056079Y-70731233D01*
X187009610Y-70758794D01*
X186975113Y-70795774D01*
X186959192Y-70825318D01*
X186949252Y-70860013D01*
X186945743Y-70901043D01*
X186949681Y-70940987D01*
X186961499Y-70979373D01*
X186981646Y-71016875D01*
X187008513Y-71049775D01*
X187042654Y-71077727D01*
X187085144Y-71100894D01*
X187131086Y-71117117D01*
X187181814Y-71127156D01*
X187238101Y-71130631D01*
X187309940Y-71126273D01*
X187368330Y-71114255D01*
X187415588Y-71095789D01*
X187453646Y-71071524D01*
X187486301Y-71039615D01*
X187512976Y-71000568D01*
X187533759Y-70953258D01*
X187548229Y-70896158D01*
G37*
G36*
X186798831Y-70247449D02*
G01*
X186798831Y-70110673D01*
X186675915Y-70110673D01*
X186675915Y-70247449D01*
X186798831Y-70247449D01*
G37*
G36*
X186798831Y-71115000D02*
G01*
X186798831Y-70388133D01*
X186675915Y-70388133D01*
X186675915Y-71115000D01*
X186798831Y-71115000D01*
G37*
G36*
X186284512Y-70378060D02*
G01*
X186339959Y-70394116D01*
X186389480Y-70420373D01*
X186432728Y-70456135D01*
X186468970Y-70500951D01*
X186498473Y-70556111D01*
X186519129Y-70615675D01*
X186531724Y-70679347D01*
X186536025Y-70747841D01*
X186530623Y-70822603D01*
X186514974Y-70889963D01*
X186489504Y-70951106D01*
X186454082Y-71006983D01*
X186409142Y-71054002D01*
X186356682Y-71087281D01*
X186295214Y-71107794D01*
X186222418Y-71115000D01*
X186164210Y-71109265D01*
X186112150Y-71092553D01*
X186064907Y-71064843D01*
X186021589Y-71025118D01*
X186024125Y-71132765D01*
X186030443Y-71179480D01*
X186045062Y-71217243D01*
X186065943Y-71248073D01*
X186093335Y-71273025D01*
X186126039Y-71290617D01*
X186169045Y-71302200D01*
X186225165Y-71306486D01*
X186276884Y-71302009D01*
X186317818Y-71289682D01*
X186350218Y-71270460D01*
X186369200Y-71250327D01*
X186383234Y-71222661D01*
X186391861Y-71185341D01*
X186511418Y-71169710D01*
X186507150Y-71228407D01*
X186492531Y-71276430D01*
X186468384Y-71316025D01*
X186434237Y-71348679D01*
X186393199Y-71373676D01*
X186345403Y-71392206D01*
X186289651Y-71403938D01*
X186224494Y-71408091D01*
X186152567Y-71403117D01*
X186091820Y-71389124D01*
X186040396Y-71367058D01*
X185994316Y-71335865D01*
X185958256Y-71298808D01*
X185931097Y-71255378D01*
X185914033Y-71206250D01*
X185901549Y-71129468D01*
X185896598Y-71015287D01*
X185896598Y-70743079D01*
X186011392Y-70743079D01*
X186015753Y-70814397D01*
X186027607Y-70870505D01*
X186045539Y-70914271D01*
X186068789Y-70948060D01*
X186110556Y-70984681D01*
X186157301Y-71006100D01*
X186210877Y-71013394D01*
X186264807Y-71006035D01*
X186311531Y-70984481D01*
X186352965Y-70947693D01*
X186375792Y-70913842D01*
X186393508Y-70869550D01*
X186405281Y-70812283D01*
X186409630Y-70738988D01*
X186405392Y-70672323D01*
X186393735Y-70618543D01*
X186375840Y-70575346D01*
X186352294Y-70540846D01*
X186310448Y-70503197D01*
X186264563Y-70481442D01*
X186212892Y-70474106D01*
X186160342Y-70481543D01*
X186113461Y-70503629D01*
X186070498Y-70541884D01*
X186046195Y-70576951D01*
X186027754Y-70620826D01*
X186015752Y-70675422D01*
X186011392Y-70743079D01*
X185896598Y-70743079D01*
X185896598Y-70388133D01*
X186009987Y-70388133D01*
X186009987Y-70478014D01*
X186055523Y-70430982D01*
X186105247Y-70398559D01*
X186160127Y-70379148D01*
X186221746Y-70372501D01*
X186284512Y-70378060D01*
G37*
G36*
X185711217Y-71115000D02*
G01*
X185711217Y-70388133D01*
X185600514Y-70388133D01*
X185600514Y-70491264D01*
X185565382Y-70448187D01*
X185525520Y-70415461D01*
X185480362Y-70392022D01*
X185428875Y-70377551D01*
X185369644Y-70372501D01*
X185306042Y-70378543D01*
X185249110Y-70396132D01*
X185199765Y-70424335D01*
X185166800Y-70457986D01*
X185143868Y-70499110D01*
X185128515Y-70548906D01*
X185123782Y-70589494D01*
X185121676Y-70668524D01*
X185121676Y-71115000D01*
X185244652Y-71115000D01*
X185244652Y-70672554D01*
X185248864Y-70602076D01*
X185259002Y-70559897D01*
X185278693Y-70526565D01*
X185309926Y-70500301D01*
X185348857Y-70483781D01*
X185395594Y-70478014D01*
X185446102Y-70483691D01*
X185490847Y-70500267D01*
X185531210Y-70528023D01*
X185553724Y-70554652D01*
X185571506Y-70592702D01*
X185583641Y-70645619D01*
X185588241Y-70717739D01*
X185588241Y-71115000D01*
X185711217Y-71115000D01*
G37*
G36*
X184709153Y-70379164D02*
G01*
X184773292Y-70398332D01*
X184829903Y-70429589D01*
X184880242Y-70473618D01*
X184919862Y-70526506D01*
X184949185Y-70589980D01*
X184967850Y-70666156D01*
X184974520Y-70757733D01*
X184967952Y-70846071D01*
X184949546Y-70919701D01*
X184920560Y-70981215D01*
X184881280Y-71032629D01*
X184831699Y-71074723D01*
X184774228Y-71105078D01*
X184707321Y-71123980D01*
X184628855Y-71130631D01*
X184565733Y-71126412D01*
X184510889Y-71114400D01*
X184463053Y-71095245D01*
X184421188Y-71069143D01*
X184373386Y-71023441D01*
X184336324Y-70966473D01*
X184309813Y-70896158D01*
X184436880Y-70880526D01*
X184459155Y-70930137D01*
X184484511Y-70967050D01*
X184512718Y-70993611D01*
X184546150Y-71013004D01*
X184584255Y-71024889D01*
X184628183Y-71029026D01*
X184686058Y-71021815D01*
X184735964Y-71000864D01*
X184779858Y-70965645D01*
X184805630Y-70932428D01*
X184825752Y-70891877D01*
X184839955Y-70842595D01*
X184847452Y-70782829D01*
X184306454Y-70782829D01*
X184305722Y-70750040D01*
X184310725Y-70681224D01*
X184435537Y-70681224D01*
X184840614Y-70681224D01*
X184830268Y-70620763D01*
X184808882Y-70571243D01*
X184776744Y-70530465D01*
X184735399Y-70499228D01*
X184688494Y-70480545D01*
X184634289Y-70474106D01*
X184589025Y-70478662D01*
X184549265Y-70491852D01*
X184513843Y-70513615D01*
X184482004Y-70544754D01*
X184461193Y-70577262D01*
X184445318Y-70621658D01*
X184435537Y-70681224D01*
X184310725Y-70681224D01*
X184312252Y-70660218D01*
X184330525Y-70585534D01*
X184359223Y-70523336D01*
X184397984Y-70471542D01*
X184447236Y-70428339D01*
X184502390Y-70397732D01*
X184564640Y-70379001D01*
X184635694Y-70372501D01*
X184709153Y-70379164D01*
G37*
G36*
X184157222Y-71115000D02*
G01*
X184157222Y-70388133D01*
X184046580Y-70388133D01*
X184046580Y-70500790D01*
X184002158Y-70431031D01*
X183968361Y-70397475D01*
X183930645Y-70378722D01*
X183889471Y-70372501D01*
X183849039Y-70376629D01*
X183807162Y-70389420D01*
X183763075Y-70411946D01*
X183805390Y-70525458D01*
X183851203Y-70507275D01*
X183895577Y-70501461D01*
X183933838Y-70507524D01*
X183967995Y-70525703D01*
X183995174Y-70554090D01*
X184013790Y-70592808D01*
X184028972Y-70660224D01*
X184034246Y-70735996D01*
X184034246Y-71115000D01*
X184157222Y-71115000D01*
G37*
G36*
X183655669Y-70524909D02*
G01*
X183655669Y-70388133D01*
X183515657Y-70388133D01*
X183515657Y-70524909D01*
X183655669Y-70524909D01*
G37*
G36*
X183655669Y-71115000D02*
G01*
X183655669Y-70978224D01*
X183515657Y-70978224D01*
X183515657Y-71115000D01*
X183655669Y-71115000D01*
G37*
G36*
X193393449Y-72795000D02*
G01*
X193393449Y-71790673D01*
X193257466Y-71790673D01*
X192731489Y-72579333D01*
X192731489Y-71790673D01*
X192604422Y-71790673D01*
X192604422Y-72795000D01*
X192740343Y-72795000D01*
X193266381Y-72006217D01*
X193266381Y-72795000D01*
X193393449Y-72795000D01*
G37*
G36*
X192181061Y-72059252D02*
G01*
X192255521Y-72078086D01*
X192300758Y-72098414D01*
X192336457Y-72122735D01*
X192364087Y-72150931D01*
X192385893Y-72184138D01*
X192404022Y-72225109D01*
X192418065Y-72275251D01*
X192297836Y-72290882D01*
X192280773Y-72241754D01*
X192260226Y-72207333D01*
X192236714Y-72184270D01*
X192207446Y-72168742D01*
X192166023Y-72158145D01*
X192108609Y-72154106D01*
X192047998Y-72159446D01*
X192002495Y-72173832D01*
X191968597Y-72195811D01*
X191950479Y-72218884D01*
X191938362Y-72252858D01*
X191933731Y-72301751D01*
X191934464Y-72333869D01*
X192014951Y-72354888D01*
X192153733Y-72376245D01*
X192263032Y-72394685D01*
X192310108Y-72411742D01*
X192351509Y-72434986D01*
X192386786Y-72465719D01*
X192415012Y-72505694D01*
X192433106Y-72551678D01*
X192439253Y-72602964D01*
X192435081Y-72647186D01*
X192423017Y-72686161D01*
X192403204Y-72720945D01*
X192375078Y-72752257D01*
X192341591Y-72776608D01*
X192300849Y-72794785D01*
X192251367Y-72806442D01*
X192191285Y-72810631D01*
X192120597Y-72804576D01*
X192055669Y-72786817D01*
X191993611Y-72755971D01*
X191924206Y-72705118D01*
X191915012Y-72754389D01*
X191899598Y-72795000D01*
X191771188Y-72795000D01*
X191790615Y-72751562D01*
X191802267Y-72706523D01*
X191807481Y-72645116D01*
X191810083Y-72489269D01*
X191810083Y-72476079D01*
X191934464Y-72476079D01*
X191940183Y-72551088D01*
X191954248Y-72597468D01*
X191974622Y-72630293D01*
X192001458Y-72658288D01*
X192035519Y-72681854D01*
X192073491Y-72698894D01*
X192115355Y-72709333D01*
X192161915Y-72712934D01*
X192208725Y-72708806D01*
X192244195Y-72697639D01*
X192270908Y-72680511D01*
X192291718Y-72656819D01*
X192303925Y-72630111D01*
X192308094Y-72599300D01*
X192303811Y-72568855D01*
X192291058Y-72541475D01*
X192270673Y-72518810D01*
X192242576Y-72501908D01*
X192205366Y-72490284D01*
X192135293Y-72477545D01*
X192010156Y-72454722D01*
X191934464Y-72431566D01*
X191934464Y-72476079D01*
X191810083Y-72476079D01*
X191810083Y-72325687D01*
X191811999Y-72250214D01*
X191816250Y-72212602D01*
X191831734Y-72165549D01*
X191854535Y-72129132D01*
X191887478Y-72100239D01*
X191939898Y-72074300D01*
X192002659Y-72058549D01*
X192090840Y-72052501D01*
X192181061Y-72059252D01*
G37*
G36*
X191351456Y-72683014D02*
G01*
X191333688Y-72791641D01*
X191384444Y-72800210D01*
X191426561Y-72802815D01*
X191489112Y-72796863D01*
X191530425Y-72781627D01*
X191562239Y-72756621D01*
X191582327Y-72725818D01*
X191592497Y-72681710D01*
X191597348Y-72580310D01*
X191597348Y-72161922D01*
X191687534Y-72161922D01*
X191687534Y-72068133D01*
X191597348Y-72068133D01*
X191597348Y-71888492D01*
X191475104Y-71814670D01*
X191475104Y-72068133D01*
X191351456Y-72068133D01*
X191351456Y-72161922D01*
X191475104Y-72161922D01*
X191475104Y-72585317D01*
X191472978Y-72633197D01*
X191468632Y-72652850D01*
X191460127Y-72666263D01*
X191447444Y-72676725D01*
X191430860Y-72683085D01*
X191405434Y-72685579D01*
X191351456Y-72683014D01*
G37*
G36*
X191231106Y-72795000D02*
G01*
X191231106Y-71790673D01*
X191108129Y-71790673D01*
X191108129Y-72151908D01*
X191061673Y-72107965D01*
X191010730Y-72077336D01*
X190954304Y-72058853D01*
X190890875Y-72052501D01*
X190837921Y-72056267D01*
X190791602Y-72067034D01*
X190750863Y-72084314D01*
X190714375Y-72108691D01*
X190686356Y-72137831D01*
X190665806Y-72172180D01*
X190652669Y-72210591D01*
X190643601Y-72263526D01*
X190640160Y-72334846D01*
X190640160Y-72795000D01*
X190763136Y-72795000D01*
X190763136Y-72334541D01*
X190768400Y-72274133D01*
X190782305Y-72230739D01*
X190803131Y-72200085D01*
X190832284Y-72177355D01*
X190869192Y-72163135D01*
X190916154Y-72158014D01*
X190969040Y-72165072D01*
X191018981Y-72186407D01*
X191048374Y-72207898D01*
X191071042Y-72233415D01*
X191087674Y-72263405D01*
X191102336Y-72316919D01*
X191108129Y-72397494D01*
X191108129Y-72795000D01*
X191231106Y-72795000D01*
G37*
G36*
X190236888Y-72059252D02*
G01*
X190311348Y-72078086D01*
X190356585Y-72098414D01*
X190392283Y-72122735D01*
X190419914Y-72150931D01*
X190441720Y-72184138D01*
X190459849Y-72225109D01*
X190473892Y-72275251D01*
X190353663Y-72290882D01*
X190336600Y-72241754D01*
X190316053Y-72207333D01*
X190292541Y-72184270D01*
X190263273Y-72168742D01*
X190221850Y-72158145D01*
X190164436Y-72154106D01*
X190103825Y-72159446D01*
X190058322Y-72173832D01*
X190024424Y-72195811D01*
X190006306Y-72218884D01*
X189994189Y-72252858D01*
X189989558Y-72301751D01*
X189990291Y-72333869D01*
X190070778Y-72354888D01*
X190209560Y-72376245D01*
X190318859Y-72394685D01*
X190365935Y-72411742D01*
X190407336Y-72434986D01*
X190442613Y-72465719D01*
X190470839Y-72505694D01*
X190488933Y-72551678D01*
X190495080Y-72602964D01*
X190490908Y-72647186D01*
X190478844Y-72686161D01*
X190459031Y-72720945D01*
X190430905Y-72752257D01*
X190397418Y-72776608D01*
X190356676Y-72794785D01*
X190307194Y-72806442D01*
X190247112Y-72810631D01*
X190176424Y-72804576D01*
X190111496Y-72786817D01*
X190049438Y-72755971D01*
X189980033Y-72705118D01*
X189970839Y-72754389D01*
X189955425Y-72795000D01*
X189827015Y-72795000D01*
X189846442Y-72751562D01*
X189858094Y-72706523D01*
X189863308Y-72645116D01*
X189865910Y-72489269D01*
X189865910Y-72476079D01*
X189990291Y-72476079D01*
X189996009Y-72551088D01*
X190010075Y-72597468D01*
X190030449Y-72630293D01*
X190057285Y-72658288D01*
X190091346Y-72681854D01*
X190129318Y-72698894D01*
X190171182Y-72709333D01*
X190217742Y-72712934D01*
X190264552Y-72708806D01*
X190300022Y-72697639D01*
X190326735Y-72680511D01*
X190347545Y-72656819D01*
X190359752Y-72630111D01*
X190363921Y-72599300D01*
X190359638Y-72568855D01*
X190346885Y-72541475D01*
X190326500Y-72518810D01*
X190298403Y-72501908D01*
X190261193Y-72490284D01*
X190191120Y-72477545D01*
X190065983Y-72454722D01*
X189990291Y-72431566D01*
X189990291Y-72476079D01*
X189865910Y-72476079D01*
X189865910Y-72325687D01*
X189867826Y-72250214D01*
X189872077Y-72212602D01*
X189887561Y-72165549D01*
X189910362Y-72129132D01*
X189943305Y-72100239D01*
X189995725Y-72074300D01*
X190058486Y-72058549D01*
X190146667Y-72052501D01*
X190236888Y-72059252D01*
G37*
G36*
X189675767Y-72795000D02*
G01*
X189675767Y-72068133D01*
X189565064Y-72068133D01*
X189565064Y-72171264D01*
X189529932Y-72128187D01*
X189490070Y-72095461D01*
X189444912Y-72072022D01*
X189393425Y-72057551D01*
X189334193Y-72052501D01*
X189270592Y-72058543D01*
X189213660Y-72076132D01*
X189164315Y-72104335D01*
X189131350Y-72137986D01*
X189108418Y-72179110D01*
X189093065Y-72228906D01*
X189088332Y-72269494D01*
X189086226Y-72348524D01*
X189086226Y-72795000D01*
X189209202Y-72795000D01*
X189209202Y-72352554D01*
X189213414Y-72282076D01*
X189223551Y-72239897D01*
X189243243Y-72206565D01*
X189274476Y-72180301D01*
X189313407Y-72163781D01*
X189360144Y-72158014D01*
X189410652Y-72163691D01*
X189455397Y-72180267D01*
X189495760Y-72208023D01*
X189518274Y-72234652D01*
X189536056Y-72272702D01*
X189548191Y-72325619D01*
X189552791Y-72397739D01*
X189552791Y-72795000D01*
X189675767Y-72795000D01*
G37*
G36*
X188486671Y-72795000D02*
G01*
X188486671Y-71790673D01*
X187811095Y-71790673D01*
X187811095Y-71907909D01*
X188354169Y-71907909D01*
X188354169Y-72220540D01*
X187884185Y-72220540D01*
X187884185Y-72337777D01*
X188354169Y-72337777D01*
X188354169Y-72795000D01*
X188486671Y-72795000D01*
G37*
G36*
X187653681Y-71927449D02*
G01*
X187653681Y-71790673D01*
X187530765Y-71790673D01*
X187530765Y-71927449D01*
X187653681Y-71927449D01*
G37*
G36*
X187653681Y-72795000D02*
G01*
X187653681Y-72068133D01*
X187530765Y-72068133D01*
X187530765Y-72795000D01*
X187653681Y-72795000D01*
G37*
G36*
X187343004Y-72795000D02*
G01*
X187343004Y-71790673D01*
X187220088Y-71790673D01*
X187220088Y-72362690D01*
X186929073Y-72068133D01*
X186769888Y-72068133D01*
X187047226Y-72338143D01*
X186741861Y-72795000D01*
X186893536Y-72795000D01*
X187133321Y-72423384D01*
X187220088Y-72506854D01*
X187220088Y-72795000D01*
X187343004Y-72795000D01*
G37*
G36*
X186419830Y-72059164D02*
G01*
X186483969Y-72078332D01*
X186540579Y-72109589D01*
X186590919Y-72153618D01*
X186630538Y-72206506D01*
X186659862Y-72269980D01*
X186678527Y-72346156D01*
X186685197Y-72437733D01*
X186678629Y-72526071D01*
X186660222Y-72599701D01*
X186631237Y-72661215D01*
X186591957Y-72712629D01*
X186542376Y-72754723D01*
X186484905Y-72785078D01*
X186417998Y-72803980D01*
X186339532Y-72810631D01*
X186276409Y-72806412D01*
X186221565Y-72794400D01*
X186173730Y-72775245D01*
X186131864Y-72749143D01*
X186084062Y-72703441D01*
X186047001Y-72646473D01*
X186020490Y-72576158D01*
X186147557Y-72560526D01*
X186169832Y-72610137D01*
X186195188Y-72647050D01*
X186223394Y-72673611D01*
X186256827Y-72693004D01*
X186294932Y-72704889D01*
X186338860Y-72709026D01*
X186396735Y-72701815D01*
X186446641Y-72680864D01*
X186490535Y-72645645D01*
X186516307Y-72612428D01*
X186536429Y-72571877D01*
X186550632Y-72522595D01*
X186558129Y-72462829D01*
X186017131Y-72462829D01*
X186016399Y-72430040D01*
X186021402Y-72361224D01*
X186146214Y-72361224D01*
X186551290Y-72361224D01*
X186540944Y-72300763D01*
X186519559Y-72251243D01*
X186487421Y-72210465D01*
X186446076Y-72179228D01*
X186399171Y-72160545D01*
X186344966Y-72154106D01*
X186299701Y-72158662D01*
X186259942Y-72171852D01*
X186224520Y-72193615D01*
X186192681Y-72224754D01*
X186171870Y-72257262D01*
X186155995Y-72301658D01*
X186146214Y-72361224D01*
X186021402Y-72361224D01*
X186022929Y-72340218D01*
X186041202Y-72265534D01*
X186069900Y-72203336D01*
X186108661Y-72151542D01*
X186157913Y-72108339D01*
X186213067Y-72077732D01*
X186275317Y-72059001D01*
X186346371Y-72052501D01*
X186419830Y-72059164D01*
G37*
G36*
X185915710Y-72576158D02*
G01*
X185794138Y-72560526D01*
X185782690Y-72606187D01*
X185763625Y-72642313D01*
X185737107Y-72670741D01*
X185703816Y-72691105D01*
X185661063Y-72704232D01*
X185606254Y-72709026D01*
X185550661Y-72704520D01*
X185509960Y-72692557D01*
X185480591Y-72674649D01*
X185457202Y-72649568D01*
X185443952Y-72623005D01*
X185439558Y-72593988D01*
X185443595Y-72568233D01*
X185455377Y-72546836D01*
X185475767Y-72528653D01*
X185510749Y-72513184D01*
X185601491Y-72487131D01*
X185725872Y-72452095D01*
X185789009Y-72428025D01*
X185835525Y-72397791D01*
X185868265Y-72359026D01*
X185888456Y-72312820D01*
X185895254Y-72261634D01*
X185889666Y-72214703D01*
X185873089Y-72171753D01*
X185846858Y-72133921D01*
X185812578Y-72103060D01*
X185780573Y-72084384D01*
X185734359Y-72067217D01*
X185683646Y-72056265D01*
X185628114Y-72052501D01*
X185545939Y-72058973D01*
X185478210Y-72077048D01*
X185437070Y-72096402D01*
X185405867Y-72118613D01*
X185382894Y-72143543D01*
X185357780Y-72190295D01*
X185340518Y-72255711D01*
X185460746Y-72271343D01*
X185469962Y-72236445D01*
X185485757Y-72208114D01*
X185508251Y-72185125D01*
X185536096Y-72168710D01*
X185572326Y-72158032D01*
X185619260Y-72154106D01*
X185675491Y-72157957D01*
X185714268Y-72167856D01*
X185740160Y-72182011D01*
X185760969Y-72202577D01*
X185772564Y-72224079D01*
X185776369Y-72247346D01*
X185772631Y-72269919D01*
X185761348Y-72290211D01*
X185743066Y-72307514D01*
X185714209Y-72322817D01*
X185605582Y-72354141D01*
X185485366Y-72388851D01*
X185423560Y-72411233D01*
X185377091Y-72438794D01*
X185342594Y-72475774D01*
X185326673Y-72505318D01*
X185316733Y-72540013D01*
X185313224Y-72581043D01*
X185317162Y-72620987D01*
X185328980Y-72659373D01*
X185349127Y-72696875D01*
X185375993Y-72729775D01*
X185410134Y-72757727D01*
X185452625Y-72780894D01*
X185498567Y-72797117D01*
X185549295Y-72807156D01*
X185605582Y-72810631D01*
X185677421Y-72806273D01*
X185735811Y-72794255D01*
X185783069Y-72775789D01*
X185821127Y-72751524D01*
X185853781Y-72719615D01*
X185880457Y-72680568D01*
X185901240Y-72633258D01*
X185915710Y-72576158D01*
G37*
G36*
X193392044Y-76155000D02*
G01*
X193030687Y-76155000D01*
X192942611Y-76150462D01*
X192869853Y-76137903D01*
X192803513Y-76116123D01*
X192750296Y-76087527D01*
X192703721Y-76049160D01*
X192659071Y-75996425D01*
X192622327Y-75933355D01*
X192590806Y-75850184D01*
X192576410Y-75790668D01*
X192567314Y-75723382D01*
X192564122Y-75647341D01*
X192564231Y-75645265D01*
X192700776Y-75645265D01*
X192704024Y-75721252D01*
X192713087Y-75785463D01*
X192727093Y-75839499D01*
X192747832Y-75891134D01*
X192772376Y-75933173D01*
X192800488Y-75966994D01*
X192838405Y-75996125D01*
X192890308Y-76019200D01*
X192952124Y-76032472D01*
X193045708Y-76037763D01*
X193259542Y-76037763D01*
X193259542Y-75267909D01*
X193049127Y-75267909D01*
X192969469Y-75270825D01*
X192914274Y-75278266D01*
X192877669Y-75288548D01*
X192832494Y-75312937D01*
X192790876Y-75350075D01*
X192752372Y-75402304D01*
X192731504Y-75444870D01*
X192715311Y-75498075D01*
X192704657Y-75564058D01*
X192700776Y-75645265D01*
X192564231Y-75645265D01*
X192568778Y-75558466D01*
X192582123Y-75479288D01*
X192603445Y-75408593D01*
X192634557Y-75342222D01*
X192673963Y-75285395D01*
X192721903Y-75237013D01*
X192764607Y-75206260D01*
X192813280Y-75182270D01*
X192868815Y-75165083D01*
X192937154Y-75154865D01*
X193047051Y-75150673D01*
X193392044Y-75150673D01*
X193392044Y-76155000D01*
G37*
G36*
X192173214Y-75419164D02*
G01*
X192237353Y-75438332D01*
X192293964Y-75469589D01*
X192344303Y-75513618D01*
X192383923Y-75566506D01*
X192413247Y-75629980D01*
X192431912Y-75706156D01*
X192438581Y-75797733D01*
X192432014Y-75886071D01*
X192413607Y-75959701D01*
X192384622Y-76021215D01*
X192345341Y-76072629D01*
X192295761Y-76114723D01*
X192238290Y-76145078D01*
X192171383Y-76163980D01*
X192092916Y-76170631D01*
X192029794Y-76166412D01*
X191974950Y-76154400D01*
X191927114Y-76135245D01*
X191885249Y-76109143D01*
X191837447Y-76063441D01*
X191800386Y-76006473D01*
X191773874Y-75936158D01*
X191900942Y-75920526D01*
X191923217Y-75970137D01*
X191948573Y-76007050D01*
X191976779Y-76033611D01*
X192010211Y-76053004D01*
X192048316Y-76064889D01*
X192092245Y-76069026D01*
X192150119Y-76061815D01*
X192200025Y-76040864D01*
X192243920Y-76005645D01*
X192269691Y-75972428D01*
X192289814Y-75931877D01*
X192304017Y-75882595D01*
X192311514Y-75822829D01*
X191770516Y-75822829D01*
X191769783Y-75790040D01*
X191774787Y-75721224D01*
X191899598Y-75721224D01*
X192304675Y-75721224D01*
X192294329Y-75660763D01*
X192272944Y-75611243D01*
X192240806Y-75570465D01*
X192199461Y-75539228D01*
X192152555Y-75520545D01*
X192098351Y-75514106D01*
X192053086Y-75518662D01*
X192013327Y-75531852D01*
X191977905Y-75553615D01*
X191946065Y-75584754D01*
X191925254Y-75617262D01*
X191909379Y-75661658D01*
X191899598Y-75721224D01*
X191774787Y-75721224D01*
X191776314Y-75700218D01*
X191794586Y-75625534D01*
X191823285Y-75563336D01*
X191862046Y-75511542D01*
X191911298Y-75468339D01*
X191966452Y-75437732D01*
X192028701Y-75419001D01*
X192099755Y-75412501D01*
X192173214Y-75419164D01*
G37*
G36*
X191669094Y-75936158D02*
G01*
X191547522Y-75920526D01*
X191536074Y-75966187D01*
X191517010Y-76002313D01*
X191490491Y-76030741D01*
X191457200Y-76051105D01*
X191414447Y-76064232D01*
X191359638Y-76069026D01*
X191304046Y-76064520D01*
X191263345Y-76052557D01*
X191233975Y-76034649D01*
X191210587Y-76009568D01*
X191197337Y-75983005D01*
X191192943Y-75953988D01*
X191196980Y-75928233D01*
X191208761Y-75906836D01*
X191229152Y-75888653D01*
X191264133Y-75873184D01*
X191354876Y-75847131D01*
X191479256Y-75812095D01*
X191542393Y-75788025D01*
X191588909Y-75757791D01*
X191621650Y-75719026D01*
X191641840Y-75672820D01*
X191648639Y-75621634D01*
X191643051Y-75574703D01*
X191626474Y-75531753D01*
X191600242Y-75493921D01*
X191565963Y-75463060D01*
X191533957Y-75444384D01*
X191487744Y-75427217D01*
X191437030Y-75416265D01*
X191381498Y-75412501D01*
X191299324Y-75418973D01*
X191231594Y-75437048D01*
X191190454Y-75456402D01*
X191159251Y-75478613D01*
X191136278Y-75503543D01*
X191111165Y-75550295D01*
X191093902Y-75615711D01*
X191214131Y-75631343D01*
X191223346Y-75596445D01*
X191239141Y-75568114D01*
X191261636Y-75545125D01*
X191289480Y-75528710D01*
X191325710Y-75518032D01*
X191372644Y-75514106D01*
X191428875Y-75517957D01*
X191467653Y-75527856D01*
X191493545Y-75542011D01*
X191514354Y-75562577D01*
X191525948Y-75584079D01*
X191529754Y-75607346D01*
X191526016Y-75629919D01*
X191514733Y-75650211D01*
X191496450Y-75667514D01*
X191467594Y-75682817D01*
X191358967Y-75714141D01*
X191238751Y-75748851D01*
X191176945Y-75771233D01*
X191130476Y-75798794D01*
X191095978Y-75835774D01*
X191080058Y-75865318D01*
X191070118Y-75900013D01*
X191066608Y-75941043D01*
X191070546Y-75980987D01*
X191082364Y-76019373D01*
X191102512Y-76056875D01*
X191129378Y-76089775D01*
X191163519Y-76117727D01*
X191206010Y-76140894D01*
X191251951Y-76157117D01*
X191302679Y-76167156D01*
X191358967Y-76170631D01*
X191430805Y-76166273D01*
X191489195Y-76154255D01*
X191536454Y-76135789D01*
X191574511Y-76111524D01*
X191607166Y-76079615D01*
X191633841Y-76040568D01*
X191654624Y-75993258D01*
X191669094Y-75936158D01*
G37*
G36*
X190919696Y-75287449D02*
G01*
X190919696Y-75150673D01*
X190796781Y-75150673D01*
X190796781Y-75287449D01*
X190919696Y-75287449D01*
G37*
G36*
X190919696Y-76155000D02*
G01*
X190919696Y-75428133D01*
X190796781Y-75428133D01*
X190796781Y-76155000D01*
X190919696Y-76155000D01*
G37*
G36*
X190405378Y-75418060D02*
G01*
X190460825Y-75434116D01*
X190510345Y-75460373D01*
X190553593Y-75496135D01*
X190589835Y-75540951D01*
X190619338Y-75596111D01*
X190639995Y-75655675D01*
X190652590Y-75719347D01*
X190656891Y-75787841D01*
X190651489Y-75862603D01*
X190635839Y-75929963D01*
X190610369Y-75991106D01*
X190574947Y-76046983D01*
X190530007Y-76094002D01*
X190477547Y-76127281D01*
X190416079Y-76147794D01*
X190343283Y-76155000D01*
X190285075Y-76149265D01*
X190233016Y-76132553D01*
X190185772Y-76104843D01*
X190142454Y-76065118D01*
X190144990Y-76172765D01*
X190151308Y-76219480D01*
X190165927Y-76257243D01*
X190186808Y-76288073D01*
X190214200Y-76313025D01*
X190246904Y-76330617D01*
X190289910Y-76342200D01*
X190346031Y-76346486D01*
X190397749Y-76342009D01*
X190438683Y-76329682D01*
X190471083Y-76310460D01*
X190490066Y-76290327D01*
X190504099Y-76262661D01*
X190512726Y-76225341D01*
X190632283Y-76209710D01*
X190628015Y-76268407D01*
X190613397Y-76316430D01*
X190589250Y-76356025D01*
X190555102Y-76388679D01*
X190514065Y-76413676D01*
X190466269Y-76432206D01*
X190410516Y-76443938D01*
X190345359Y-76448091D01*
X190273433Y-76443117D01*
X190212686Y-76429124D01*
X190161261Y-76407058D01*
X190115181Y-76375865D01*
X190079121Y-76338808D01*
X190051962Y-76295378D01*
X190034899Y-76246250D01*
X190022415Y-76169468D01*
X190017463Y-76055287D01*
X190017463Y-75783079D01*
X190132257Y-75783079D01*
X190136618Y-75854397D01*
X190148473Y-75910505D01*
X190166405Y-75954271D01*
X190189654Y-75988060D01*
X190231421Y-76024681D01*
X190278166Y-76046100D01*
X190331742Y-76053394D01*
X190385673Y-76046035D01*
X190432396Y-76024481D01*
X190473831Y-75987693D01*
X190496657Y-75953842D01*
X190514373Y-75909550D01*
X190526147Y-75852283D01*
X190530495Y-75778988D01*
X190526258Y-75712323D01*
X190514600Y-75658543D01*
X190496705Y-75615346D01*
X190473159Y-75580846D01*
X190431313Y-75543197D01*
X190385429Y-75521442D01*
X190333757Y-75514106D01*
X190281208Y-75521543D01*
X190234326Y-75543629D01*
X190191364Y-75581884D01*
X190167061Y-75616951D01*
X190148619Y-75660826D01*
X190136617Y-75715422D01*
X190132257Y-75783079D01*
X190017463Y-75783079D01*
X190017463Y-75428133D01*
X190130853Y-75428133D01*
X190130853Y-75518014D01*
X190176388Y-75470982D01*
X190226113Y-75438559D01*
X190280992Y-75419148D01*
X190342611Y-75412501D01*
X190405378Y-75418060D01*
G37*
G36*
X189832083Y-76155000D02*
G01*
X189832083Y-75428133D01*
X189721379Y-75428133D01*
X189721379Y-75531264D01*
X189686247Y-75488187D01*
X189646385Y-75455461D01*
X189601227Y-75432022D01*
X189549740Y-75417551D01*
X189490509Y-75412501D01*
X189426907Y-75418543D01*
X189369975Y-75436132D01*
X189320630Y-75464335D01*
X189287665Y-75497986D01*
X189264733Y-75539110D01*
X189249380Y-75588906D01*
X189244647Y-75629494D01*
X189242541Y-75708524D01*
X189242541Y-76155000D01*
X189365518Y-76155000D01*
X189365518Y-75712554D01*
X189369729Y-75642076D01*
X189379867Y-75599897D01*
X189399558Y-75566565D01*
X189430792Y-75540301D01*
X189469723Y-75523781D01*
X189516460Y-75518014D01*
X189566968Y-75523691D01*
X189611712Y-75540267D01*
X189652076Y-75568023D01*
X189674590Y-75594652D01*
X189692372Y-75632702D01*
X189704506Y-75685619D01*
X189709106Y-75757739D01*
X189709106Y-76155000D01*
X189832083Y-76155000D01*
G37*
G36*
X187935293Y-75801031D02*
G01*
X187802791Y-75834187D01*
X187829105Y-75914635D01*
X187863046Y-75982034D01*
X187904221Y-76038194D01*
X187952756Y-76084474D01*
X188008923Y-76121643D01*
X188071001Y-76148415D01*
X188140061Y-76164915D01*
X188217454Y-76170631D01*
X188299113Y-76165991D01*
X188369148Y-76152901D01*
X188429235Y-76132309D01*
X188480809Y-76104747D01*
X188527770Y-76068732D01*
X188568994Y-76025414D01*
X188604789Y-75974102D01*
X188635170Y-75913810D01*
X188664406Y-75829049D01*
X188682106Y-75739848D01*
X188688110Y-75645326D01*
X188681038Y-75542440D01*
X188660802Y-75452128D01*
X188628332Y-75372445D01*
X188594817Y-75317034D01*
X188555500Y-75269510D01*
X188510157Y-75229142D01*
X188458278Y-75195491D01*
X188382744Y-75162077D01*
X188302187Y-75141904D01*
X188215378Y-75135041D01*
X188140703Y-75140217D01*
X188074519Y-75155090D01*
X188015520Y-75179070D01*
X187962648Y-75212100D01*
X187916055Y-75253745D01*
X187876868Y-75303100D01*
X187844771Y-75361055D01*
X187819888Y-75428866D01*
X187950314Y-75459335D01*
X187978836Y-75390244D01*
X188012673Y-75338798D01*
X188051430Y-75301676D01*
X188097886Y-75274877D01*
X188152754Y-75258178D01*
X188218065Y-75252278D01*
X188293332Y-75258825D01*
X188356935Y-75277372D01*
X188411078Y-75307110D01*
X188457612Y-75347759D01*
X188493729Y-75396421D01*
X188520071Y-75454267D01*
X188537507Y-75516457D01*
X188547955Y-75579818D01*
X188551456Y-75644715D01*
X188546997Y-75728483D01*
X188534328Y-75801653D01*
X188514270Y-75865633D01*
X188484110Y-75924393D01*
X188445648Y-75970869D01*
X188398438Y-76006744D01*
X188344481Y-76032709D01*
X188288070Y-76048182D01*
X188228323Y-76053394D01*
X188173375Y-76049198D01*
X188124259Y-76037067D01*
X188079998Y-76017330D01*
X188039829Y-75989830D01*
X188005641Y-75955759D01*
X187976750Y-75913807D01*
X187953157Y-75862759D01*
X187935293Y-75801031D01*
G37*
G36*
X187427185Y-75417786D02*
G01*
X187486525Y-75433096D01*
X187540181Y-75458095D01*
X187589078Y-75493101D01*
X187627630Y-75533746D01*
X187658315Y-75582404D01*
X187681247Y-75640370D01*
X187695896Y-75709388D01*
X187701125Y-75791566D01*
X187694416Y-75883636D01*
X187675731Y-75959385D01*
X187646521Y-76021741D01*
X187607213Y-76072995D01*
X187557282Y-76115253D01*
X187500569Y-76145471D01*
X187435743Y-76164120D01*
X187360956Y-76170631D01*
X187298810Y-76165619D01*
X187240703Y-76150834D01*
X187185772Y-76126240D01*
X187136261Y-76092467D01*
X187095763Y-76051165D01*
X187063468Y-76001615D01*
X187041539Y-75946368D01*
X187026891Y-75874290D01*
X187021797Y-75787109D01*
X187147793Y-75787109D01*
X187152346Y-75859731D01*
X187164801Y-75917597D01*
X187183790Y-75963417D01*
X187208609Y-75999417D01*
X187241397Y-76030221D01*
X187277202Y-76051668D01*
X187316708Y-76064592D01*
X187360956Y-76069026D01*
X187405581Y-76064598D01*
X187445316Y-76051713D01*
X187481214Y-76030371D01*
X187513974Y-75999783D01*
X187538899Y-75963897D01*
X187557879Y-75918634D01*
X187570274Y-75861915D01*
X187574790Y-75791200D01*
X187570269Y-75720504D01*
X187557867Y-75663878D01*
X187538888Y-75618756D01*
X187513974Y-75583044D01*
X187481233Y-75552605D01*
X187445340Y-75531354D01*
X187405598Y-75518518D01*
X187360956Y-75514106D01*
X187317047Y-75518508D01*
X187277699Y-75531356D01*
X187241898Y-75552709D01*
X187208975Y-75583410D01*
X187183719Y-75619338D01*
X187164640Y-75663955D01*
X187152273Y-75719117D01*
X187147793Y-75787109D01*
X187021797Y-75787109D01*
X187021458Y-75781308D01*
X187028068Y-75695327D01*
X187046681Y-75623052D01*
X187076171Y-75562062D01*
X187116407Y-75510504D01*
X187166883Y-75467909D01*
X187223563Y-75437590D01*
X187287679Y-75418973D01*
X187360956Y-75412501D01*
X187427185Y-75417786D01*
G37*
G36*
X186880408Y-76155000D02*
G01*
X186880408Y-75150673D01*
X186757493Y-75150673D01*
X186757493Y-76155000D01*
X186880408Y-76155000D01*
G37*
G36*
X186569731Y-76155000D02*
G01*
X186569731Y-75150673D01*
X186446816Y-75150673D01*
X186446816Y-76155000D01*
X186569731Y-76155000D01*
G37*
G36*
X186039818Y-75419252D02*
G01*
X186114279Y-75438086D01*
X186159516Y-75458414D01*
X186195214Y-75482735D01*
X186222845Y-75510931D01*
X186244651Y-75544138D01*
X186262780Y-75585109D01*
X186276823Y-75635251D01*
X186156594Y-75650882D01*
X186139531Y-75601754D01*
X186118983Y-75567333D01*
X186095472Y-75544270D01*
X186066204Y-75528742D01*
X186024781Y-75518145D01*
X185967367Y-75514106D01*
X185906756Y-75519446D01*
X185861252Y-75533832D01*
X185827355Y-75555811D01*
X185809237Y-75578884D01*
X185797120Y-75612858D01*
X185792489Y-75661751D01*
X185793222Y-75693869D01*
X185873709Y-75714888D01*
X186012491Y-75736245D01*
X186121789Y-75754685D01*
X186168866Y-75771742D01*
X186210266Y-75794986D01*
X186245544Y-75825719D01*
X186273770Y-75865694D01*
X186291864Y-75911678D01*
X186298011Y-75962964D01*
X186293839Y-76007186D01*
X186281775Y-76046161D01*
X186261962Y-76080945D01*
X186233836Y-76112257D01*
X186200349Y-76136608D01*
X186159607Y-76154785D01*
X186110125Y-76166442D01*
X186050043Y-76170631D01*
X185979355Y-76164576D01*
X185914427Y-76146817D01*
X185852369Y-76115971D01*
X185782964Y-76065118D01*
X185773770Y-76114389D01*
X185758356Y-76155000D01*
X185629945Y-76155000D01*
X185649373Y-76111562D01*
X185661025Y-76066523D01*
X185666239Y-76005116D01*
X185668841Y-75849269D01*
X185668841Y-75836079D01*
X185793222Y-75836079D01*
X185798940Y-75911088D01*
X185813005Y-75957468D01*
X185833380Y-75990293D01*
X185860216Y-76018288D01*
X185894277Y-76041854D01*
X185932249Y-76058894D01*
X185974113Y-76069333D01*
X186020673Y-76072934D01*
X186067483Y-76068806D01*
X186102953Y-76057639D01*
X186129666Y-76040511D01*
X186150476Y-76016819D01*
X186162683Y-75990111D01*
X186166852Y-75959300D01*
X186162569Y-75928855D01*
X186149816Y-75901475D01*
X186129430Y-75878810D01*
X186101334Y-75861908D01*
X186064124Y-75850284D01*
X185994050Y-75837545D01*
X185868914Y-75814722D01*
X185793222Y-75791566D01*
X185793222Y-75836079D01*
X185668841Y-75836079D01*
X185668841Y-75685687D01*
X185670757Y-75610214D01*
X185675008Y-75572602D01*
X185690492Y-75525549D01*
X185713293Y-75489132D01*
X185746236Y-75460239D01*
X185798656Y-75434300D01*
X185861417Y-75418549D01*
X185949598Y-75412501D01*
X186039818Y-75419252D01*
G37*
G36*
X185479370Y-76155000D02*
G01*
X185365308Y-76155000D01*
X185365308Y-76062859D01*
X185324516Y-76110737D01*
X185278189Y-76143786D01*
X185225246Y-76163724D01*
X185163747Y-76170631D01*
X185101569Y-76164285D01*
X185044776Y-76145607D01*
X184992036Y-76114283D01*
X184942463Y-76068904D01*
X184903871Y-76015828D01*
X184875149Y-75951676D01*
X184856783Y-75874215D01*
X184850922Y-75790894D01*
X184975924Y-75790894D01*
X184980287Y-75861226D01*
X184992269Y-75917821D01*
X185010613Y-75963129D01*
X185034665Y-75999173D01*
X185066575Y-76030684D01*
X185100014Y-76052131D01*
X185135532Y-76064767D01*
X185174005Y-76069026D01*
X185220683Y-76063178D01*
X185261561Y-76046076D01*
X185298135Y-76017146D01*
X185331114Y-75974260D01*
X185349029Y-75933658D01*
X185361711Y-75873170D01*
X185366652Y-75786132D01*
X185362363Y-75719214D01*
X185350498Y-75664580D01*
X185332169Y-75620099D01*
X185307911Y-75584021D01*
X185275997Y-75552479D01*
X185242557Y-75531014D01*
X185207040Y-75518369D01*
X185168571Y-75514106D01*
X185118361Y-75521468D01*
X185073505Y-75543404D01*
X185032283Y-75581639D01*
X185009488Y-75616319D01*
X184991866Y-75661102D01*
X184980210Y-75718348D01*
X184975924Y-75790894D01*
X184850922Y-75790894D01*
X184850200Y-75780636D01*
X184855774Y-75703761D01*
X184872060Y-75633114D01*
X184898674Y-75568058D01*
X184932510Y-75515327D01*
X184976083Y-75472187D01*
X185030879Y-75439490D01*
X185092288Y-75419282D01*
X185157580Y-75412501D01*
X185215696Y-75418712D01*
X185267299Y-75436819D01*
X185313891Y-75467001D01*
X185356393Y-75510687D01*
X185356393Y-75150673D01*
X185479370Y-75150673D01*
X185479370Y-76155000D01*
G37*
G36*
X184472824Y-75417786D02*
G01*
X184532163Y-75433096D01*
X184585819Y-75458095D01*
X184634717Y-75493101D01*
X184673268Y-75533746D01*
X184703954Y-75582404D01*
X184726886Y-75640370D01*
X184741535Y-75709388D01*
X184746763Y-75791566D01*
X184740054Y-75883636D01*
X184721369Y-75959385D01*
X184692160Y-76021741D01*
X184652852Y-76072995D01*
X184602921Y-76115253D01*
X184546207Y-76145471D01*
X184481382Y-76164120D01*
X184406594Y-76170631D01*
X184344449Y-76165619D01*
X184286342Y-76150834D01*
X184231411Y-76126240D01*
X184181899Y-76092467D01*
X184141401Y-76051165D01*
X184109106Y-76001615D01*
X184087178Y-75946368D01*
X184072530Y-75874290D01*
X184067435Y-75787109D01*
X184193431Y-75787109D01*
X184197985Y-75859731D01*
X184210440Y-75917597D01*
X184229428Y-75963417D01*
X184254248Y-75999417D01*
X184287036Y-76030221D01*
X184322840Y-76051668D01*
X184362346Y-76064592D01*
X184406594Y-76069026D01*
X184451219Y-76064598D01*
X184490954Y-76051713D01*
X184526853Y-76030371D01*
X184559612Y-75999783D01*
X184584537Y-75963897D01*
X184603517Y-75918634D01*
X184615912Y-75861915D01*
X184620429Y-75791200D01*
X184615907Y-75720504D01*
X184603505Y-75663878D01*
X184584526Y-75618756D01*
X184559612Y-75583044D01*
X184526871Y-75552605D01*
X184490979Y-75531354D01*
X184451237Y-75518518D01*
X184406594Y-75514106D01*
X184362686Y-75518508D01*
X184323338Y-75531356D01*
X184287536Y-75552709D01*
X184254614Y-75583410D01*
X184229357Y-75619338D01*
X184210278Y-75663955D01*
X184197911Y-75719117D01*
X184193431Y-75787109D01*
X184067435Y-75787109D01*
X184067096Y-75781308D01*
X184073707Y-75695327D01*
X184092319Y-75623052D01*
X184121810Y-75562062D01*
X184162046Y-75510504D01*
X184212521Y-75467909D01*
X184269201Y-75437590D01*
X184333317Y-75418973D01*
X184406594Y-75412501D01*
X184472824Y-75417786D01*
G37*
G36*
X183924703Y-76155000D02*
G01*
X183924703Y-75428133D01*
X183814061Y-75428133D01*
X183814061Y-75540790D01*
X183769639Y-75471031D01*
X183735842Y-75437475D01*
X183698126Y-75418722D01*
X183656952Y-75412501D01*
X183616520Y-75416629D01*
X183574643Y-75429420D01*
X183530556Y-75451946D01*
X183572871Y-75565458D01*
X183618684Y-75547275D01*
X183663058Y-75541461D01*
X183701319Y-75547524D01*
X183735476Y-75565703D01*
X183762655Y-75594090D01*
X183781271Y-75632808D01*
X183796453Y-75700224D01*
X183801727Y-75775996D01*
X183801727Y-76155000D01*
X183924703Y-76155000D01*
G37*
G36*
X183240795Y-75419252D02*
G01*
X183315256Y-75438086D01*
X183360493Y-75458414D01*
X183396191Y-75482735D01*
X183423822Y-75510931D01*
X183445628Y-75544138D01*
X183463757Y-75585109D01*
X183477800Y-75635251D01*
X183357571Y-75650882D01*
X183340508Y-75601754D01*
X183319960Y-75567333D01*
X183296449Y-75544270D01*
X183267181Y-75528742D01*
X183225758Y-75518145D01*
X183168344Y-75514106D01*
X183107733Y-75519446D01*
X183062229Y-75533832D01*
X183028332Y-75555811D01*
X183010214Y-75578884D01*
X182998097Y-75612858D01*
X182993466Y-75661751D01*
X182994199Y-75693869D01*
X183074686Y-75714888D01*
X183213468Y-75736245D01*
X183322766Y-75754685D01*
X183369843Y-75771742D01*
X183411243Y-75794986D01*
X183446521Y-75825719D01*
X183474747Y-75865694D01*
X183492841Y-75911678D01*
X183498988Y-75962964D01*
X183494816Y-76007186D01*
X183482752Y-76046161D01*
X183462939Y-76080945D01*
X183434813Y-76112257D01*
X183401326Y-76136608D01*
X183360584Y-76154785D01*
X183311102Y-76166442D01*
X183251020Y-76170631D01*
X183180332Y-76164576D01*
X183115404Y-76146817D01*
X183053346Y-76115971D01*
X182983941Y-76065118D01*
X182974747Y-76114389D01*
X182959333Y-76155000D01*
X182830922Y-76155000D01*
X182850350Y-76111562D01*
X182862002Y-76066523D01*
X182867216Y-76005116D01*
X182869818Y-75849269D01*
X182869818Y-75836079D01*
X182994199Y-75836079D01*
X182999917Y-75911088D01*
X183013982Y-75957468D01*
X183034357Y-75990293D01*
X183061193Y-76018288D01*
X183095254Y-76041854D01*
X183133226Y-76058894D01*
X183175090Y-76069333D01*
X183221650Y-76072934D01*
X183268460Y-76068806D01*
X183303930Y-76057639D01*
X183330643Y-76040511D01*
X183351453Y-76016819D01*
X183363660Y-75990111D01*
X183367829Y-75959300D01*
X183363546Y-75928855D01*
X183350793Y-75901475D01*
X183330407Y-75878810D01*
X183302311Y-75861908D01*
X183265101Y-75850284D01*
X183195027Y-75837545D01*
X183069891Y-75814722D01*
X182994199Y-75791566D01*
X182994199Y-75836079D01*
X182869818Y-75836079D01*
X182869818Y-75685687D01*
X182871734Y-75610214D01*
X182875985Y-75572602D01*
X182891469Y-75525549D01*
X182914270Y-75489132D01*
X182947213Y-75460239D01*
X182999633Y-75434300D01*
X183062394Y-75418549D01*
X183150575Y-75412501D01*
X183240795Y-75419252D01*
G37*
G36*
X182411191Y-76043014D02*
G01*
X182393422Y-76151641D01*
X182444179Y-76160210D01*
X182486296Y-76162815D01*
X182548847Y-76156863D01*
X182590160Y-76141627D01*
X182621973Y-76116621D01*
X182642062Y-76085818D01*
X182652232Y-76041710D01*
X182657083Y-75940310D01*
X182657083Y-75521922D01*
X182747269Y-75521922D01*
X182747269Y-75428133D01*
X182657083Y-75428133D01*
X182657083Y-75248492D01*
X182534839Y-75174670D01*
X182534839Y-75428133D01*
X182411191Y-75428133D01*
X182411191Y-75521922D01*
X182534839Y-75521922D01*
X182534839Y-75945317D01*
X182532713Y-75993197D01*
X182528367Y-76012850D01*
X182519861Y-76026263D01*
X182507178Y-76036725D01*
X182490595Y-76043085D01*
X182465169Y-76045579D01*
X182411191Y-76043014D01*
G37*
G36*
X182062635Y-75417786D02*
G01*
X182121975Y-75433096D01*
X182175631Y-75458095D01*
X182224528Y-75493101D01*
X182263080Y-75533746D01*
X182293765Y-75582404D01*
X182316697Y-75640370D01*
X182331346Y-75709388D01*
X182336575Y-75791566D01*
X182329866Y-75883636D01*
X182311181Y-75959385D01*
X182281971Y-76021741D01*
X182242663Y-76072995D01*
X182192732Y-76115253D01*
X182136019Y-76145471D01*
X182071193Y-76164120D01*
X181996406Y-76170631D01*
X181934260Y-76165619D01*
X181876153Y-76150834D01*
X181821222Y-76126240D01*
X181771711Y-76092467D01*
X181731213Y-76051165D01*
X181698918Y-76001615D01*
X181676990Y-75946368D01*
X181662341Y-75874290D01*
X181657247Y-75787109D01*
X181783243Y-75787109D01*
X181787796Y-75859731D01*
X181800251Y-75917597D01*
X181819240Y-75963417D01*
X181844059Y-75999417D01*
X181876847Y-76030221D01*
X181912652Y-76051668D01*
X181952158Y-76064592D01*
X181996406Y-76069026D01*
X182041031Y-76064598D01*
X182080766Y-76051713D01*
X182116664Y-76030371D01*
X182149424Y-75999783D01*
X182174349Y-75963897D01*
X182193329Y-75918634D01*
X182205724Y-75861915D01*
X182210240Y-75791200D01*
X182205719Y-75720504D01*
X182193317Y-75663878D01*
X182174338Y-75618756D01*
X182149424Y-75583044D01*
X182116683Y-75552605D01*
X182080791Y-75531354D01*
X182041049Y-75518518D01*
X181996406Y-75514106D01*
X181952498Y-75518508D01*
X181913149Y-75531356D01*
X181877348Y-75552709D01*
X181844426Y-75583410D01*
X181819169Y-75619338D01*
X181800090Y-75663955D01*
X181787723Y-75719117D01*
X181783243Y-75787109D01*
X181657247Y-75787109D01*
X181656908Y-75781308D01*
X181663518Y-75695327D01*
X181682131Y-75623052D01*
X181711621Y-75562062D01*
X181751857Y-75510504D01*
X181802333Y-75467909D01*
X181859013Y-75437590D01*
X181923129Y-75418973D01*
X181996406Y-75412501D01*
X182062635Y-75417786D01*
G37*
G36*
X181514515Y-76155000D02*
G01*
X181514515Y-75428133D01*
X181403872Y-75428133D01*
X181403872Y-75540790D01*
X181359451Y-75471031D01*
X181325654Y-75437475D01*
X181287937Y-75418722D01*
X181246763Y-75412501D01*
X181206332Y-75416629D01*
X181164455Y-75429420D01*
X181120368Y-75451946D01*
X181162683Y-75565458D01*
X181208496Y-75547275D01*
X181252869Y-75541461D01*
X181291131Y-75547524D01*
X181325287Y-75565703D01*
X181352466Y-75594090D01*
X181371083Y-75632808D01*
X181386264Y-75700224D01*
X181391538Y-75775996D01*
X181391538Y-76155000D01*
X181514515Y-76155000D01*
G37*
G36*
X181012962Y-75564909D02*
G01*
X181012962Y-75428133D01*
X180872950Y-75428133D01*
X180872950Y-75564909D01*
X181012962Y-75564909D01*
G37*
G36*
X181012962Y-76155000D02*
G01*
X181012962Y-76018224D01*
X180872950Y-76018224D01*
X180872950Y-76155000D01*
X181012962Y-76155000D01*
G37*
G36*
X193389357Y-77835000D02*
G01*
X193389357Y-76830673D01*
X192665239Y-76830673D01*
X192665239Y-76947909D01*
X193256795Y-76947909D01*
X193256795Y-77256632D01*
X192702791Y-77256632D01*
X192702791Y-77373869D01*
X193256795Y-77373869D01*
X193256795Y-77717763D01*
X192641974Y-77717763D01*
X192641974Y-77835000D01*
X193389357Y-77835000D01*
G37*
G36*
X192477477Y-77835000D02*
G01*
X192477477Y-76830673D01*
X192354562Y-76830673D01*
X192354562Y-77835000D01*
X192477477Y-77835000D01*
G37*
G36*
X192163381Y-76967449D02*
G01*
X192163381Y-76830673D01*
X192040465Y-76830673D01*
X192040465Y-76967449D01*
X192163381Y-76967449D01*
G37*
G36*
X192163381Y-77835000D02*
G01*
X192163381Y-77108133D01*
X192040465Y-77108133D01*
X192040465Y-77835000D01*
X192163381Y-77835000D01*
G37*
G36*
X191444757Y-77835000D02*
G01*
X191444757Y-76830673D01*
X191312255Y-76830673D01*
X191312255Y-77244909D01*
X190791713Y-77244909D01*
X190791713Y-76830673D01*
X190659211Y-76830673D01*
X190659211Y-77835000D01*
X190791713Y-77835000D01*
X190791713Y-77362145D01*
X191312255Y-77362145D01*
X191312255Y-77835000D01*
X191444757Y-77835000D01*
G37*
G36*
X189978934Y-77835000D02*
G01*
X189978934Y-77728021D01*
X190016185Y-77773111D01*
X190057176Y-77807001D01*
X190102359Y-77830974D01*
X190152606Y-77845587D01*
X190209132Y-77850631D01*
X190271623Y-77844399D01*
X190329056Y-77826024D01*
X190378996Y-77797142D01*
X190411671Y-77764169D01*
X190434217Y-77723716D01*
X190449590Y-77672883D01*
X190454854Y-77631321D01*
X190457100Y-77558028D01*
X190457100Y-77108133D01*
X190334185Y-77108133D01*
X190334185Y-77511133D01*
X190331805Y-77599801D01*
X190326674Y-77641132D01*
X190315842Y-77671619D01*
X190299541Y-77696759D01*
X190277520Y-77717397D01*
X190251194Y-77732491D01*
X190220561Y-77741836D01*
X190184586Y-77745118D01*
X190131074Y-77738047D01*
X190080783Y-77716725D01*
X190051208Y-77695184D01*
X190028552Y-77669570D01*
X190012090Y-77639422D01*
X189997760Y-77584734D01*
X189991939Y-77497456D01*
X189991939Y-77108133D01*
X189868963Y-77108133D01*
X189868963Y-77835000D01*
X189978934Y-77835000D01*
G37*
G36*
X189472370Y-77098060D02*
G01*
X189527817Y-77114116D01*
X189577337Y-77140373D01*
X189620585Y-77176135D01*
X189656827Y-77220951D01*
X189686331Y-77276111D01*
X189706987Y-77335675D01*
X189719582Y-77399347D01*
X189723883Y-77467841D01*
X189718481Y-77542603D01*
X189702832Y-77609963D01*
X189677361Y-77671106D01*
X189641939Y-77726983D01*
X189596999Y-77774002D01*
X189544540Y-77807281D01*
X189483072Y-77827794D01*
X189410275Y-77835000D01*
X189352068Y-77829265D01*
X189300008Y-77812553D01*
X189252764Y-77784843D01*
X189209446Y-77745118D01*
X189211983Y-77852765D01*
X189218300Y-77899480D01*
X189232920Y-77937243D01*
X189253800Y-77968073D01*
X189281193Y-77993025D01*
X189313897Y-78010617D01*
X189356902Y-78022200D01*
X189413023Y-78026486D01*
X189464741Y-78022009D01*
X189505675Y-78009682D01*
X189538075Y-77990460D01*
X189557058Y-77970327D01*
X189571091Y-77942661D01*
X189579719Y-77905341D01*
X189699275Y-77889710D01*
X189695008Y-77948407D01*
X189680389Y-77996430D01*
X189656242Y-78036025D01*
X189622095Y-78068679D01*
X189581057Y-78093676D01*
X189533261Y-78112206D01*
X189477508Y-78123938D01*
X189412351Y-78128091D01*
X189340425Y-78123117D01*
X189279678Y-78109124D01*
X189228253Y-78087058D01*
X189182174Y-78055865D01*
X189146113Y-78018808D01*
X189118954Y-77975378D01*
X189101891Y-77926250D01*
X189089407Y-77849468D01*
X189084455Y-77735287D01*
X189084455Y-77463079D01*
X189199249Y-77463079D01*
X189203611Y-77534397D01*
X189215465Y-77590505D01*
X189233397Y-77634271D01*
X189256646Y-77668060D01*
X189298414Y-77704681D01*
X189345158Y-77726100D01*
X189398735Y-77733394D01*
X189452665Y-77726035D01*
X189499388Y-77704481D01*
X189540823Y-77667693D01*
X189563649Y-77633842D01*
X189581365Y-77589550D01*
X189593139Y-77532283D01*
X189597487Y-77458988D01*
X189593250Y-77392323D01*
X189581593Y-77338543D01*
X189563698Y-77295346D01*
X189540151Y-77260846D01*
X189498305Y-77223197D01*
X189452421Y-77201442D01*
X189400750Y-77194106D01*
X189348200Y-77201543D01*
X189301318Y-77223629D01*
X189258356Y-77261884D01*
X189234053Y-77296951D01*
X189215611Y-77340826D01*
X189203610Y-77395422D01*
X189199249Y-77463079D01*
X189084455Y-77463079D01*
X189084455Y-77108133D01*
X189197845Y-77108133D01*
X189197845Y-77198014D01*
X189243381Y-77150982D01*
X189293105Y-77118559D01*
X189347984Y-77099148D01*
X189409603Y-77092501D01*
X189472370Y-77098060D01*
G37*
G36*
X188899075Y-77835000D02*
G01*
X188899075Y-76830673D01*
X188776099Y-76830673D01*
X188776099Y-77191908D01*
X188729642Y-77147965D01*
X188678699Y-77117336D01*
X188622274Y-77098853D01*
X188558845Y-77092501D01*
X188505890Y-77096267D01*
X188459572Y-77107034D01*
X188418832Y-77124314D01*
X188382344Y-77148691D01*
X188354326Y-77177831D01*
X188333775Y-77212180D01*
X188320638Y-77250591D01*
X188311570Y-77303526D01*
X188308129Y-77374846D01*
X188308129Y-77835000D01*
X188431106Y-77835000D01*
X188431106Y-77374541D01*
X188436369Y-77314133D01*
X188450274Y-77270739D01*
X188471100Y-77240085D01*
X188500253Y-77217355D01*
X188537161Y-77203135D01*
X188584124Y-77198014D01*
X188637009Y-77205072D01*
X188686950Y-77226407D01*
X188716344Y-77247898D01*
X188739011Y-77273415D01*
X188755643Y-77303405D01*
X188770305Y-77356919D01*
X188776099Y-77437494D01*
X188776099Y-77835000D01*
X188899075Y-77835000D01*
G37*
G36*
X187897010Y-77099164D02*
G01*
X187961149Y-77118332D01*
X188017760Y-77149589D01*
X188068100Y-77193618D01*
X188107719Y-77246506D01*
X188137043Y-77309980D01*
X188155708Y-77386156D01*
X188162377Y-77477733D01*
X188155810Y-77566071D01*
X188137403Y-77639701D01*
X188108418Y-77701215D01*
X188069138Y-77752629D01*
X188019557Y-77794723D01*
X187962086Y-77825078D01*
X187895179Y-77843980D01*
X187816713Y-77850631D01*
X187753590Y-77846412D01*
X187698746Y-77834400D01*
X187650911Y-77815245D01*
X187609045Y-77789143D01*
X187561243Y-77743441D01*
X187524182Y-77686473D01*
X187497670Y-77616158D01*
X187624738Y-77600526D01*
X187647013Y-77650137D01*
X187672369Y-77687050D01*
X187700575Y-77713611D01*
X187734008Y-77733004D01*
X187772112Y-77744889D01*
X187816041Y-77749026D01*
X187873916Y-77741815D01*
X187923822Y-77720864D01*
X187967716Y-77685645D01*
X187993488Y-77652428D01*
X188013610Y-77611877D01*
X188027813Y-77562595D01*
X188035310Y-77502829D01*
X187494312Y-77502829D01*
X187493579Y-77470040D01*
X187498583Y-77401224D01*
X187623394Y-77401224D01*
X188028471Y-77401224D01*
X188018125Y-77340763D01*
X187996740Y-77291243D01*
X187964602Y-77250465D01*
X187923257Y-77219228D01*
X187876351Y-77200545D01*
X187822147Y-77194106D01*
X187776882Y-77198662D01*
X187737123Y-77211852D01*
X187701701Y-77233615D01*
X187669862Y-77264754D01*
X187649050Y-77297262D01*
X187633176Y-77341658D01*
X187623394Y-77401224D01*
X187498583Y-77401224D01*
X187500110Y-77380218D01*
X187518383Y-77305534D01*
X187547081Y-77243336D01*
X187585842Y-77191542D01*
X187635094Y-77148339D01*
X187690248Y-77117732D01*
X187752498Y-77099001D01*
X187823551Y-77092501D01*
X187897010Y-77099164D01*
G37*
G36*
X187392890Y-77616158D02*
G01*
X187271318Y-77600526D01*
X187259871Y-77646187D01*
X187240806Y-77682313D01*
X187214288Y-77710741D01*
X187180996Y-77731105D01*
X187138244Y-77744232D01*
X187083435Y-77749026D01*
X187027842Y-77744520D01*
X186987141Y-77732557D01*
X186957772Y-77714649D01*
X186934383Y-77689568D01*
X186921133Y-77663005D01*
X186916739Y-77633988D01*
X186920776Y-77608233D01*
X186932557Y-77586836D01*
X186952948Y-77568653D01*
X186987929Y-77553184D01*
X187078672Y-77527131D01*
X187203052Y-77492095D01*
X187266189Y-77468025D01*
X187312706Y-77437791D01*
X187345446Y-77399026D01*
X187365636Y-77352820D01*
X187372435Y-77301634D01*
X187366847Y-77254703D01*
X187350270Y-77211753D01*
X187324038Y-77173921D01*
X187289759Y-77143060D01*
X187257753Y-77124384D01*
X187211540Y-77107217D01*
X187160826Y-77096265D01*
X187105294Y-77092501D01*
X187023120Y-77098973D01*
X186955390Y-77117048D01*
X186914251Y-77136402D01*
X186883047Y-77158613D01*
X186860075Y-77183543D01*
X186834961Y-77230295D01*
X186817698Y-77295711D01*
X186937927Y-77311343D01*
X186947143Y-77276445D01*
X186962937Y-77248114D01*
X186985432Y-77225125D01*
X187013277Y-77208710D01*
X187049506Y-77198032D01*
X187096441Y-77194106D01*
X187152672Y-77197957D01*
X187191449Y-77207856D01*
X187217341Y-77222011D01*
X187238150Y-77242577D01*
X187249745Y-77264079D01*
X187253550Y-77287346D01*
X187249812Y-77309919D01*
X187238529Y-77330211D01*
X187220246Y-77347514D01*
X187191390Y-77362817D01*
X187082763Y-77394141D01*
X186962547Y-77428851D01*
X186900741Y-77451233D01*
X186854272Y-77478794D01*
X186819774Y-77515774D01*
X186803854Y-77545318D01*
X186793914Y-77580013D01*
X186790404Y-77621043D01*
X186794342Y-77660987D01*
X186806160Y-77699373D01*
X186826308Y-77736875D01*
X186853174Y-77769775D01*
X186887315Y-77797727D01*
X186929806Y-77820894D01*
X186975747Y-77837117D01*
X187026475Y-77847156D01*
X187082763Y-77850631D01*
X187154602Y-77846273D01*
X187212992Y-77834255D01*
X187260250Y-77815789D01*
X187298307Y-77791524D01*
X187330962Y-77759615D01*
X187357637Y-77720568D01*
X187378420Y-77673258D01*
X187392890Y-77616158D01*
G37*
G36*
X186252643Y-78112459D02*
G01*
X186252643Y-76830673D01*
X185981411Y-76830673D01*
X185981411Y-76932278D01*
X186129666Y-76932278D01*
X186129666Y-78010854D01*
X185981411Y-78010854D01*
X185981411Y-78112459D01*
X186252643Y-78112459D01*
G37*
G36*
X185675924Y-77835000D02*
G01*
X185941660Y-76830673D01*
X185805739Y-76830673D01*
X185653393Y-77489945D01*
X185611078Y-77694560D01*
X185565954Y-77510157D01*
X185375383Y-76830673D01*
X185215526Y-76830673D01*
X185072095Y-77340591D01*
X185024788Y-77527371D01*
X184994181Y-77694560D01*
X184944356Y-77477611D01*
X184787185Y-76830673D01*
X184654012Y-76830673D01*
X184928602Y-77835000D01*
X185056341Y-77835000D01*
X185267428Y-77071618D01*
X185298874Y-76951939D01*
X185328244Y-77071069D01*
X185540675Y-77835000D01*
X185675924Y-77835000D01*
G37*
G36*
X184380921Y-77099252D02*
G01*
X184455382Y-77118086D01*
X184500618Y-77138414D01*
X184536317Y-77162735D01*
X184563948Y-77190931D01*
X184585754Y-77224138D01*
X184603883Y-77265109D01*
X184617925Y-77315251D01*
X184497697Y-77330882D01*
X184480633Y-77281754D01*
X184460086Y-77247333D01*
X184436575Y-77224270D01*
X184407307Y-77208742D01*
X184365883Y-77198145D01*
X184308469Y-77194106D01*
X184247858Y-77199446D01*
X184202355Y-77213832D01*
X184168457Y-77235811D01*
X184150339Y-77258884D01*
X184138223Y-77292858D01*
X184133592Y-77341751D01*
X184134324Y-77373869D01*
X184214811Y-77394888D01*
X184353593Y-77416245D01*
X184462892Y-77434685D01*
X184509968Y-77451742D01*
X184551369Y-77474986D01*
X184586647Y-77505719D01*
X184614872Y-77545694D01*
X184632967Y-77591678D01*
X184639113Y-77642964D01*
X184634942Y-77687186D01*
X184622878Y-77726161D01*
X184603064Y-77760945D01*
X184574938Y-77792257D01*
X184541451Y-77816608D01*
X184500709Y-77834785D01*
X184451228Y-77846442D01*
X184391146Y-77850631D01*
X184320457Y-77844576D01*
X184255530Y-77826817D01*
X184193472Y-77795971D01*
X184124066Y-77745118D01*
X184114873Y-77794389D01*
X184099459Y-77835000D01*
X183971048Y-77835000D01*
X183990476Y-77791562D01*
X184002128Y-77746523D01*
X184007342Y-77685116D01*
X184009944Y-77529269D01*
X184009944Y-77516079D01*
X184134324Y-77516079D01*
X184140043Y-77591088D01*
X184154108Y-77637468D01*
X184174483Y-77670293D01*
X184201319Y-77698288D01*
X184235380Y-77721854D01*
X184273352Y-77738894D01*
X184315216Y-77749333D01*
X184361775Y-77752934D01*
X184408585Y-77748806D01*
X184444055Y-77737639D01*
X184470769Y-77720511D01*
X184491579Y-77696819D01*
X184503785Y-77670111D01*
X184507955Y-77639300D01*
X184503672Y-77608855D01*
X184490919Y-77581475D01*
X184470533Y-77558810D01*
X184442437Y-77541908D01*
X184405227Y-77530284D01*
X184335153Y-77517545D01*
X184210017Y-77494722D01*
X184134324Y-77471566D01*
X184134324Y-77516079D01*
X184009944Y-77516079D01*
X184009944Y-77365687D01*
X184011860Y-77290214D01*
X184016111Y-77252602D01*
X184031594Y-77205549D01*
X184054396Y-77169132D01*
X184087338Y-77140239D01*
X184139759Y-77114300D01*
X184202519Y-77098549D01*
X184290701Y-77092501D01*
X184380921Y-77099252D01*
G37*
G36*
X183618239Y-77835000D02*
G01*
X183894234Y-77108133D01*
X183764419Y-77108133D01*
X183608714Y-77543435D01*
X183562247Y-77689919D01*
X183516451Y-77551678D01*
X183355251Y-77108133D01*
X183228855Y-77108133D01*
X183503506Y-77835000D01*
X183618239Y-77835000D01*
G37*
G36*
X182895894Y-77099164D02*
G01*
X182960033Y-77118332D01*
X183016644Y-77149589D01*
X183066983Y-77193618D01*
X183106603Y-77246506D01*
X183135927Y-77309980D01*
X183154591Y-77386156D01*
X183161261Y-77477733D01*
X183154693Y-77566071D01*
X183136287Y-77639701D01*
X183107301Y-77701215D01*
X183068021Y-77752629D01*
X183018441Y-77794723D01*
X182960970Y-77825078D01*
X182894062Y-77843980D01*
X182815596Y-77850631D01*
X182752474Y-77846412D01*
X182697630Y-77834400D01*
X182649794Y-77815245D01*
X182607929Y-77789143D01*
X182560127Y-77743441D01*
X182523065Y-77686473D01*
X182496554Y-77616158D01*
X182623621Y-77600526D01*
X182645897Y-77650137D01*
X182671253Y-77687050D01*
X182699459Y-77713611D01*
X182732891Y-77733004D01*
X182770996Y-77744889D01*
X182814924Y-77749026D01*
X182872799Y-77741815D01*
X182922705Y-77720864D01*
X182966599Y-77685645D01*
X182992371Y-77652428D01*
X183012493Y-77611877D01*
X183026696Y-77562595D01*
X183034193Y-77502829D01*
X182493196Y-77502829D01*
X182492463Y-77470040D01*
X182497467Y-77401224D01*
X182622278Y-77401224D01*
X183027355Y-77401224D01*
X183017009Y-77340763D01*
X182995623Y-77291243D01*
X182963485Y-77250465D01*
X182922141Y-77219228D01*
X182875235Y-77200545D01*
X182821031Y-77194106D01*
X182775766Y-77198662D01*
X182736006Y-77211852D01*
X182700584Y-77233615D01*
X182668745Y-77264754D01*
X182647934Y-77297262D01*
X182632059Y-77341658D01*
X182622278Y-77401224D01*
X182497467Y-77401224D01*
X182498994Y-77380218D01*
X182517266Y-77305534D01*
X182545964Y-77243336D01*
X182584726Y-77191542D01*
X182633977Y-77148339D01*
X182689132Y-77117732D01*
X182751381Y-77099001D01*
X182822435Y-77092501D01*
X182895894Y-77099164D01*
G37*
G36*
X182342620Y-77835000D02*
G01*
X182342620Y-77108133D01*
X182231917Y-77108133D01*
X182231917Y-77211264D01*
X182196785Y-77168187D01*
X182156923Y-77135461D01*
X182111764Y-77112022D01*
X182060277Y-77097551D01*
X182001046Y-77092501D01*
X181937445Y-77098543D01*
X181880512Y-77116132D01*
X181831167Y-77144335D01*
X181798203Y-77177986D01*
X181775270Y-77219110D01*
X181759918Y-77268906D01*
X181755184Y-77309494D01*
X181753079Y-77388524D01*
X181753079Y-77835000D01*
X181876055Y-77835000D01*
X181876055Y-77392554D01*
X181880267Y-77322076D01*
X181890404Y-77279897D01*
X181910096Y-77246565D01*
X181941329Y-77220301D01*
X181980260Y-77203781D01*
X182026997Y-77198014D01*
X182077505Y-77203691D01*
X182122249Y-77220267D01*
X182162613Y-77248023D01*
X182185127Y-77274652D01*
X182202909Y-77312702D01*
X182215044Y-77365619D01*
X182219644Y-77437739D01*
X182219644Y-77835000D01*
X182342620Y-77835000D01*
G37*
G36*
X181089471Y-77835000D02*
G01*
X181089471Y-77728021D01*
X181126722Y-77773111D01*
X181167713Y-77807001D01*
X181212897Y-77830974D01*
X181263144Y-77845587D01*
X181319670Y-77850631D01*
X181382160Y-77844399D01*
X181439593Y-77826024D01*
X181489533Y-77797142D01*
X181522208Y-77764169D01*
X181544755Y-77723716D01*
X181560127Y-77672883D01*
X181565391Y-77631321D01*
X181567637Y-77558028D01*
X181567637Y-77108133D01*
X181444722Y-77108133D01*
X181444722Y-77511133D01*
X181442342Y-77599801D01*
X181437212Y-77641132D01*
X181426379Y-77671619D01*
X181410078Y-77696759D01*
X181388058Y-77717397D01*
X181361731Y-77732491D01*
X181331098Y-77741836D01*
X181295123Y-77745118D01*
X181241611Y-77738047D01*
X181191320Y-77716725D01*
X181161745Y-77695184D01*
X181139089Y-77669570D01*
X181122627Y-77639422D01*
X181108298Y-77584734D01*
X181102477Y-77497456D01*
X181102477Y-77108133D01*
X180979501Y-77108133D01*
X180979501Y-77835000D01*
X181089471Y-77835000D01*
G37*
G36*
X180787281Y-77835000D02*
G01*
X180787281Y-77108133D01*
X180677250Y-77108133D01*
X180677250Y-77209677D01*
X180637682Y-77162204D01*
X180586453Y-77124680D01*
X180547505Y-77107016D01*
X180504727Y-77096219D01*
X180457309Y-77092501D01*
X180404453Y-77096570D01*
X180360987Y-77107915D01*
X180325174Y-77125718D01*
X180294190Y-77150765D01*
X180270086Y-77181448D01*
X180252390Y-77218592D01*
X180214289Y-77171553D01*
X180173387Y-77136616D01*
X180129317Y-77112217D01*
X180081318Y-77097525D01*
X180028297Y-77092501D01*
X179974576Y-77096710D01*
X179930062Y-77108492D01*
X179893073Y-77127067D01*
X179862334Y-77152341D01*
X179838462Y-77183648D01*
X179820372Y-77223419D01*
X179808571Y-77273583D01*
X179804265Y-77336561D01*
X179804265Y-77835000D01*
X179926509Y-77835000D01*
X179926509Y-77376800D01*
X179930119Y-77308028D01*
X179938476Y-77270310D01*
X179955123Y-77241171D01*
X179981891Y-77217920D01*
X180015419Y-77203155D01*
X180055652Y-77198014D01*
X180104526Y-77203876D01*
X180146327Y-77220815D01*
X180182719Y-77249061D01*
X180209123Y-77286401D01*
X180226657Y-77339120D01*
X180233278Y-77412398D01*
X180233278Y-77835000D01*
X180356193Y-77835000D01*
X180356193Y-77362390D01*
X180360156Y-77308158D01*
X180370671Y-77268158D01*
X180386296Y-77239108D01*
X180409320Y-77217093D01*
X180441086Y-77203157D01*
X180484603Y-77198014D01*
X180534602Y-77204870D01*
X180580652Y-77225430D01*
X180607072Y-77246248D01*
X180628269Y-77272662D01*
X180644521Y-77305542D01*
X180658590Y-77364297D01*
X180664305Y-77457583D01*
X180664305Y-77835000D01*
X180787281Y-77835000D01*
G37*
G36*
X179622426Y-77835000D02*
G01*
X179508365Y-77835000D01*
X179508365Y-77742859D01*
X179467572Y-77790737D01*
X179421246Y-77823786D01*
X179368303Y-77843724D01*
X179306803Y-77850631D01*
X179244625Y-77844285D01*
X179187832Y-77825607D01*
X179135092Y-77794283D01*
X179085519Y-77748904D01*
X179046928Y-77695828D01*
X179018205Y-77631676D01*
X178999839Y-77554215D01*
X178993979Y-77470894D01*
X179118981Y-77470894D01*
X179123343Y-77541226D01*
X179135325Y-77597821D01*
X179153670Y-77643129D01*
X179177721Y-77679173D01*
X179209631Y-77710684D01*
X179243070Y-77732131D01*
X179278588Y-77744767D01*
X179317062Y-77749026D01*
X179363740Y-77743178D01*
X179404618Y-77726076D01*
X179441192Y-77697146D01*
X179474171Y-77654260D01*
X179492085Y-77613658D01*
X179504767Y-77553170D01*
X179509708Y-77466132D01*
X179505419Y-77399214D01*
X179493555Y-77344580D01*
X179475226Y-77300099D01*
X179450968Y-77264021D01*
X179419054Y-77232479D01*
X179385614Y-77211014D01*
X179350097Y-77198369D01*
X179311627Y-77194106D01*
X179261418Y-77201468D01*
X179216561Y-77223404D01*
X179175340Y-77261639D01*
X179152544Y-77296319D01*
X179134922Y-77341102D01*
X179123267Y-77398348D01*
X179118981Y-77470894D01*
X178993979Y-77470894D01*
X178993257Y-77460636D01*
X178998831Y-77383761D01*
X179015116Y-77313114D01*
X179041731Y-77248058D01*
X179075566Y-77195327D01*
X179119139Y-77152187D01*
X179173935Y-77119490D01*
X179235345Y-77099282D01*
X179300636Y-77092501D01*
X179358753Y-77098712D01*
X179410356Y-77116819D01*
X179456947Y-77147001D01*
X179499450Y-77190687D01*
X179499450Y-76830673D01*
X179622426Y-76830673D01*
X179622426Y-77835000D01*
G37*
G36*
X178619690Y-77099164D02*
G01*
X178683829Y-77118332D01*
X178740440Y-77149589D01*
X178790779Y-77193618D01*
X178830399Y-77246506D01*
X178859723Y-77309980D01*
X178878388Y-77386156D01*
X178885057Y-77477733D01*
X178878490Y-77566071D01*
X178860083Y-77639701D01*
X178831098Y-77701215D01*
X178791817Y-77752629D01*
X178742237Y-77794723D01*
X178684766Y-77825078D01*
X178617859Y-77843980D01*
X178539392Y-77850631D01*
X178476270Y-77846412D01*
X178421426Y-77834400D01*
X178373590Y-77815245D01*
X178331725Y-77789143D01*
X178283923Y-77743441D01*
X178246862Y-77686473D01*
X178220350Y-77616158D01*
X178347418Y-77600526D01*
X178369693Y-77650137D01*
X178395049Y-77687050D01*
X178423255Y-77713611D01*
X178456687Y-77733004D01*
X178494792Y-77744889D01*
X178538721Y-77749026D01*
X178596595Y-77741815D01*
X178646501Y-77720864D01*
X178690396Y-77685645D01*
X178716167Y-77652428D01*
X178736289Y-77611877D01*
X178750493Y-77562595D01*
X178757990Y-77502829D01*
X178216992Y-77502829D01*
X178216259Y-77470040D01*
X178221263Y-77401224D01*
X178346074Y-77401224D01*
X178751151Y-77401224D01*
X178740805Y-77340763D01*
X178719420Y-77291243D01*
X178687281Y-77250465D01*
X178645937Y-77219228D01*
X178599031Y-77200545D01*
X178544827Y-77194106D01*
X178499562Y-77198662D01*
X178459803Y-77211852D01*
X178424381Y-77233615D01*
X178392541Y-77264754D01*
X178371730Y-77297262D01*
X178355855Y-77341658D01*
X178346074Y-77401224D01*
X178221263Y-77401224D01*
X178222790Y-77380218D01*
X178241062Y-77305534D01*
X178269761Y-77243336D01*
X178308522Y-77191542D01*
X178357774Y-77148339D01*
X178412928Y-77117732D01*
X178475177Y-77099001D01*
X178546231Y-77092501D01*
X178619690Y-77099164D01*
G37*
G36*
X178067759Y-77835000D02*
G01*
X178067759Y-77108133D01*
X177957117Y-77108133D01*
X177957117Y-77220790D01*
X177912696Y-77151031D01*
X177878899Y-77117475D01*
X177841182Y-77098722D01*
X177800008Y-77092501D01*
X177759576Y-77096629D01*
X177717700Y-77109420D01*
X177673613Y-77131946D01*
X177715928Y-77245458D01*
X177761741Y-77227275D01*
X177806114Y-77221461D01*
X177844376Y-77227524D01*
X177878532Y-77245703D01*
X177905711Y-77274090D01*
X177924328Y-77312808D01*
X177939509Y-77380224D01*
X177944783Y-77455996D01*
X177944783Y-77835000D01*
X178067759Y-77835000D01*
G37*
G36*
X177201308Y-77835000D02*
G01*
X177201308Y-76830673D01*
X177068745Y-76830673D01*
X177068745Y-77717763D01*
X176575558Y-77717763D01*
X176575558Y-77835000D01*
X177201308Y-77835000D01*
G37*
G36*
X176423639Y-77835000D02*
G01*
X176423639Y-76830673D01*
X176291076Y-76830673D01*
X176291076Y-77717763D01*
X175797889Y-77717763D01*
X175797889Y-77835000D01*
X176423639Y-77835000D01*
G37*
G36*
X174925942Y-77481031D02*
G01*
X174793440Y-77514187D01*
X174819754Y-77594635D01*
X174853695Y-77662034D01*
X174894870Y-77718194D01*
X174943405Y-77764474D01*
X174999572Y-77801643D01*
X175061650Y-77828415D01*
X175130710Y-77844915D01*
X175208103Y-77850631D01*
X175289762Y-77845991D01*
X175359797Y-77832901D01*
X175419884Y-77812309D01*
X175471458Y-77784747D01*
X175518419Y-77748732D01*
X175559643Y-77705414D01*
X175595438Y-77654102D01*
X175625819Y-77593810D01*
X175655055Y-77509049D01*
X175672755Y-77419848D01*
X175678759Y-77325326D01*
X175671687Y-77222440D01*
X175651451Y-77132128D01*
X175618981Y-77052445D01*
X175585466Y-76997034D01*
X175546149Y-76949510D01*
X175500806Y-76909142D01*
X175448927Y-76875491D01*
X175373393Y-76842077D01*
X175292836Y-76821904D01*
X175206027Y-76815041D01*
X175131352Y-76820217D01*
X175065168Y-76835090D01*
X175006169Y-76859070D01*
X174953297Y-76892100D01*
X174906704Y-76933745D01*
X174867517Y-76983100D01*
X174835420Y-77041055D01*
X174810537Y-77108866D01*
X174940963Y-77139335D01*
X174969485Y-77070244D01*
X175003322Y-77018798D01*
X175042079Y-76981676D01*
X175088535Y-76954877D01*
X175143403Y-76938178D01*
X175208714Y-76932278D01*
X175283981Y-76938825D01*
X175347584Y-76957372D01*
X175401727Y-76987110D01*
X175448261Y-77027759D01*
X175484378Y-77076421D01*
X175510720Y-77134267D01*
X175528156Y-77196457D01*
X175538604Y-77259818D01*
X175542105Y-77324715D01*
X175537646Y-77408483D01*
X175524977Y-77481653D01*
X175504919Y-77545633D01*
X175474759Y-77604393D01*
X175436297Y-77650869D01*
X175389087Y-77686744D01*
X175335130Y-77712709D01*
X175278719Y-77728182D01*
X175218972Y-77733394D01*
X175164024Y-77729198D01*
X175114908Y-77717067D01*
X175070647Y-77697330D01*
X175030478Y-77669830D01*
X174996290Y-77635759D01*
X174967399Y-77593807D01*
X174943806Y-77542759D01*
X174925942Y-77481031D01*
G37*
G36*
X174440387Y-78112459D02*
G01*
X174711618Y-78112459D01*
X174711618Y-78010854D01*
X174563363Y-78010854D01*
X174563363Y-76932278D01*
X174711618Y-76932278D01*
X174711618Y-76830673D01*
X174440387Y-76830673D01*
X174440387Y-78112459D01*
G37*
G36*
X193437168Y-80870645D02*
G01*
X193312116Y-80858921D01*
X193303051Y-80908911D01*
X193289112Y-80950196D01*
X193270839Y-80984157D01*
X193246314Y-81013603D01*
X193213241Y-81039967D01*
X193170027Y-81063230D01*
X193123590Y-81079713D01*
X193072608Y-81089883D01*
X193016338Y-81093394D01*
X192943307Y-81087384D01*
X192882493Y-81070497D01*
X192845657Y-81052492D01*
X192817313Y-81031546D01*
X192796092Y-81007726D01*
X192774688Y-80965982D01*
X192767698Y-80921814D01*
X192774628Y-80877793D01*
X192795054Y-80840237D01*
X192828781Y-80809729D01*
X192885179Y-80781435D01*
X192937768Y-80764707D01*
X193063476Y-80732526D01*
X193190505Y-80697051D01*
X193256795Y-80669877D01*
X193302032Y-80641694D01*
X193337206Y-80610577D01*
X193363712Y-80576454D01*
X193383176Y-80537963D01*
X193394892Y-80496582D01*
X193398883Y-80451524D01*
X193394129Y-80402138D01*
X193379924Y-80355089D01*
X193355835Y-80309558D01*
X193323402Y-80269709D01*
X193281976Y-80236363D01*
X193230172Y-80209296D01*
X193174109Y-80190551D01*
X193113102Y-80179013D01*
X193046379Y-80175041D01*
X192972853Y-80179318D01*
X192907778Y-80191559D01*
X192850008Y-80211128D01*
X192796733Y-80239553D01*
X192753558Y-80274823D01*
X192719216Y-80317252D01*
X192693538Y-80365694D01*
X192677131Y-80418275D01*
X192670001Y-80475949D01*
X192797069Y-80483764D01*
X192810125Y-80423459D01*
X192833393Y-80376708D01*
X192866434Y-80340699D01*
X192908564Y-80315288D01*
X192965291Y-80298522D01*
X193040945Y-80292278D01*
X193120308Y-80298207D01*
X193176827Y-80313710D01*
X193216189Y-80336425D01*
X193247431Y-80368819D01*
X193265209Y-80403821D01*
X193271144Y-80442793D01*
X193266708Y-80477081D01*
X193253845Y-80506298D01*
X193232187Y-80531697D01*
X193202858Y-80550532D01*
X193141954Y-80574212D01*
X193032397Y-80603260D01*
X192884028Y-80641086D01*
X192810746Y-80667130D01*
X192755312Y-80697821D01*
X192712974Y-80731824D01*
X192681664Y-80769101D01*
X192658675Y-80811865D01*
X192644744Y-80858888D01*
X192639959Y-80911250D01*
X192644990Y-80963137D01*
X192660074Y-81012983D01*
X192685755Y-81061643D01*
X192720059Y-81104571D01*
X192763454Y-81141082D01*
X192817219Y-81171430D01*
X192875552Y-81192865D01*
X192939569Y-81206073D01*
X193010232Y-81210631D01*
X193100349Y-81205719D01*
X193175517Y-81192048D01*
X193238049Y-81170881D01*
X193295487Y-81139532D01*
X193343175Y-81099836D01*
X193382213Y-81051263D01*
X193411373Y-80996060D01*
X193429689Y-80936228D01*
X193437168Y-80870645D01*
G37*
G36*
X192199021Y-80455863D02*
G01*
X192238969Y-80465386D01*
X192273290Y-80480528D01*
X192319539Y-80514541D01*
X192362744Y-80564487D01*
X192362744Y-80468133D01*
X192474790Y-80468133D01*
X192474790Y-81472459D01*
X192351814Y-81472459D01*
X192351814Y-81118613D01*
X192316459Y-81154653D01*
X192271580Y-81184558D01*
X192220286Y-81203943D01*
X192161243Y-81210631D01*
X192106540Y-81205444D01*
X192053435Y-81189832D01*
X192001081Y-81163187D01*
X191954766Y-81127333D01*
X191916190Y-81082222D01*
X191884944Y-81026594D01*
X191863079Y-80965975D01*
X191849601Y-80899479D01*
X191844949Y-80826132D01*
X191844964Y-80825887D01*
X191970612Y-80825887D01*
X191975045Y-80899989D01*
X191987111Y-80958527D01*
X192005377Y-81004387D01*
X192029047Y-81039966D01*
X192060714Y-81070983D01*
X192094233Y-81092203D01*
X192130171Y-81104771D01*
X192169426Y-81109026D01*
X192220150Y-81101726D01*
X192265352Y-81080025D01*
X192306751Y-81042348D01*
X192329727Y-81007973D01*
X192347437Y-80963742D01*
X192359124Y-80907365D01*
X192363415Y-80836085D01*
X192358979Y-80765361D01*
X192346729Y-80707797D01*
X192327857Y-80661109D01*
X192302965Y-80623410D01*
X192269987Y-80590025D01*
X192236234Y-80567594D01*
X192201169Y-80554550D01*
X192163930Y-80550198D01*
X192114217Y-80557630D01*
X192069351Y-80579897D01*
X192027643Y-80618953D01*
X192004387Y-80654326D01*
X191986567Y-80699136D01*
X191974880Y-80755481D01*
X191970612Y-80825887D01*
X191844964Y-80825887D01*
X191849112Y-80757629D01*
X191861274Y-80694222D01*
X191881158Y-80635195D01*
X191909782Y-80580568D01*
X191945442Y-80536027D01*
X191988442Y-80500312D01*
X192037674Y-80473970D01*
X192091887Y-80457993D01*
X192152329Y-80452501D01*
X192199021Y-80455863D01*
G37*
G36*
X191472726Y-80459164D02*
G01*
X191536865Y-80478332D01*
X191593476Y-80509589D01*
X191643815Y-80553618D01*
X191683434Y-80606506D01*
X191712758Y-80669980D01*
X191731423Y-80746156D01*
X191738093Y-80837733D01*
X191731525Y-80926071D01*
X191713119Y-80999701D01*
X191684133Y-81061215D01*
X191644853Y-81112629D01*
X191595272Y-81154723D01*
X191537801Y-81185078D01*
X191470894Y-81203980D01*
X191392428Y-81210631D01*
X191329305Y-81206412D01*
X191274461Y-81194400D01*
X191226626Y-81175245D01*
X191184760Y-81149143D01*
X191136959Y-81103441D01*
X191099897Y-81046473D01*
X191073386Y-80976158D01*
X191200453Y-80960526D01*
X191222728Y-81010137D01*
X191248084Y-81047050D01*
X191276290Y-81073611D01*
X191309723Y-81093004D01*
X191347828Y-81104889D01*
X191391756Y-81109026D01*
X191449631Y-81101815D01*
X191499537Y-81080864D01*
X191543431Y-81045645D01*
X191569203Y-81012428D01*
X191589325Y-80971877D01*
X191603528Y-80922595D01*
X191611025Y-80862829D01*
X191070027Y-80862829D01*
X191069295Y-80830040D01*
X191074298Y-80761224D01*
X191199110Y-80761224D01*
X191604187Y-80761224D01*
X191593840Y-80700763D01*
X191572455Y-80651243D01*
X191540317Y-80610465D01*
X191498972Y-80579228D01*
X191452067Y-80560545D01*
X191397862Y-80554106D01*
X191352597Y-80558662D01*
X191312838Y-80571852D01*
X191277416Y-80593615D01*
X191245577Y-80624754D01*
X191224766Y-80657262D01*
X191208891Y-80701658D01*
X191199110Y-80761224D01*
X191074298Y-80761224D01*
X191075825Y-80740218D01*
X191094098Y-80665534D01*
X191122796Y-80603336D01*
X191161557Y-80551542D01*
X191210809Y-80508339D01*
X191265963Y-80477732D01*
X191328213Y-80459001D01*
X191399267Y-80452501D01*
X191472726Y-80459164D01*
G37*
G36*
X190446048Y-80929263D02*
G01*
X190325148Y-80944895D01*
X190339576Y-81005945D01*
X190361421Y-81057998D01*
X190390355Y-81102392D01*
X190426570Y-81140106D01*
X190469237Y-81170681D01*
X190516279Y-81192560D01*
X190568534Y-81205987D01*
X190627093Y-81210631D01*
X190700070Y-81204144D01*
X190763144Y-81185575D01*
X190818183Y-81155470D01*
X190866512Y-81113300D01*
X190904322Y-81062429D01*
X190932487Y-81000576D01*
X190950526Y-80925486D01*
X190957004Y-80834314D01*
X190952374Y-80756746D01*
X190939164Y-80688660D01*
X190918108Y-80628722D01*
X190887151Y-80574219D01*
X190847863Y-80530608D01*
X190799590Y-80496587D01*
X190745083Y-80472140D01*
X190687620Y-80457467D01*
X190626360Y-80452501D01*
X190567479Y-80456615D01*
X190516429Y-80468325D01*
X190471969Y-80487026D01*
X190433103Y-80512585D01*
X190399574Y-80544952D01*
X190372402Y-80583515D01*
X190351376Y-80629147D01*
X190336749Y-80683066D01*
X190456306Y-80698698D01*
X190471488Y-80652714D01*
X190491746Y-80617271D01*
X190516756Y-80590437D01*
X190547357Y-80570409D01*
X190581934Y-80558295D01*
X190621598Y-80554106D01*
X190666759Y-80558442D01*
X190706271Y-80570952D01*
X190741275Y-80591469D01*
X190772540Y-80620601D01*
X190795985Y-80654891D01*
X190814133Y-80699607D01*
X190826169Y-80757262D01*
X190830608Y-80830894D01*
X190826279Y-80905850D01*
X190814590Y-80964125D01*
X190797073Y-81008918D01*
X190774616Y-81042897D01*
X190744319Y-81071937D01*
X190710417Y-81092324D01*
X190672167Y-81104730D01*
X190628436Y-81109026D01*
X190581869Y-81103909D01*
X190542067Y-81089197D01*
X190507536Y-81064940D01*
X190480523Y-81032469D01*
X190459749Y-80988293D01*
X190446048Y-80929263D01*
G37*
G36*
X190219207Y-80327449D02*
G01*
X190219207Y-80190673D01*
X190096292Y-80190673D01*
X190096292Y-80327449D01*
X190219207Y-80327449D01*
G37*
G36*
X190219207Y-81195000D02*
G01*
X190219207Y-80468133D01*
X190096292Y-80468133D01*
X190096292Y-81195000D01*
X190219207Y-81195000D01*
G37*
G36*
X189692714Y-80459252D02*
G01*
X189767175Y-80478086D01*
X189812412Y-80498414D01*
X189848110Y-80522735D01*
X189875741Y-80550931D01*
X189897547Y-80584138D01*
X189915676Y-80625109D01*
X189929719Y-80675251D01*
X189809490Y-80690882D01*
X189792427Y-80641754D01*
X189771879Y-80607333D01*
X189748368Y-80584270D01*
X189719100Y-80568742D01*
X189677677Y-80558145D01*
X189620263Y-80554106D01*
X189559652Y-80559446D01*
X189514148Y-80573832D01*
X189480251Y-80595811D01*
X189462133Y-80618884D01*
X189450016Y-80652858D01*
X189445385Y-80701751D01*
X189446118Y-80733869D01*
X189526605Y-80754888D01*
X189665387Y-80776245D01*
X189774685Y-80794685D01*
X189821762Y-80811742D01*
X189863162Y-80834986D01*
X189898440Y-80865719D01*
X189926666Y-80905694D01*
X189944760Y-80951678D01*
X189950907Y-81002964D01*
X189946735Y-81047186D01*
X189934671Y-81086161D01*
X189914858Y-81120945D01*
X189886732Y-81152257D01*
X189853245Y-81176608D01*
X189812503Y-81194785D01*
X189763021Y-81206442D01*
X189702939Y-81210631D01*
X189632251Y-81204576D01*
X189567323Y-81186817D01*
X189505265Y-81155971D01*
X189435860Y-81105118D01*
X189426666Y-81154389D01*
X189411252Y-81195000D01*
X189282841Y-81195000D01*
X189302269Y-81151562D01*
X189313921Y-81106523D01*
X189319135Y-81045116D01*
X189321737Y-80889269D01*
X189321737Y-80876079D01*
X189446118Y-80876079D01*
X189451836Y-80951088D01*
X189465901Y-80997468D01*
X189486276Y-81030293D01*
X189513112Y-81058288D01*
X189547173Y-81081854D01*
X189585145Y-81098894D01*
X189627009Y-81109333D01*
X189673569Y-81112934D01*
X189720379Y-81108806D01*
X189755849Y-81097639D01*
X189782562Y-81080511D01*
X189803372Y-81056819D01*
X189815579Y-81030111D01*
X189819748Y-80999300D01*
X189815465Y-80968855D01*
X189802712Y-80941475D01*
X189782326Y-80918810D01*
X189754230Y-80901908D01*
X189717020Y-80890284D01*
X189646946Y-80877545D01*
X189521810Y-80854722D01*
X189446118Y-80831566D01*
X189446118Y-80876079D01*
X189321737Y-80876079D01*
X189321737Y-80725687D01*
X189323653Y-80650214D01*
X189327904Y-80612602D01*
X189343388Y-80565549D01*
X189366189Y-80529132D01*
X189399132Y-80500239D01*
X189451552Y-80474300D01*
X189514313Y-80458549D01*
X189602494Y-80452501D01*
X189692714Y-80459252D01*
G37*
G36*
X189134281Y-81195000D02*
G01*
X189134281Y-80190673D01*
X189011366Y-80190673D01*
X189011366Y-81195000D01*
X189134281Y-81195000D01*
G37*
G36*
X188186924Y-81195000D02*
G01*
X188186924Y-80307909D01*
X188516896Y-80307909D01*
X188516896Y-80190673D01*
X187723107Y-80190673D01*
X187723107Y-80307909D01*
X188054422Y-80307909D01*
X188054422Y-81195000D01*
X188186924Y-81195000D01*
G37*
G36*
X187602634Y-81195000D02*
G01*
X187602634Y-80190673D01*
X187479658Y-80190673D01*
X187479658Y-80551908D01*
X187433201Y-80507965D01*
X187382258Y-80477336D01*
X187325832Y-80458853D01*
X187262404Y-80452501D01*
X187209449Y-80456267D01*
X187163131Y-80467034D01*
X187122391Y-80484314D01*
X187085903Y-80508691D01*
X187057885Y-80537831D01*
X187037334Y-80572180D01*
X187024197Y-80610591D01*
X187015129Y-80663526D01*
X187011688Y-80734846D01*
X187011688Y-81195000D01*
X187134665Y-81195000D01*
X187134665Y-80734541D01*
X187139928Y-80674133D01*
X187153833Y-80630739D01*
X187174659Y-80600085D01*
X187203812Y-80577355D01*
X187240720Y-80563135D01*
X187287683Y-80558014D01*
X187340568Y-80565072D01*
X187390509Y-80586407D01*
X187419903Y-80607898D01*
X187442570Y-80633415D01*
X187459202Y-80663405D01*
X187473864Y-80716919D01*
X187479658Y-80797494D01*
X187479658Y-81195000D01*
X187602634Y-81195000D01*
G37*
G36*
X186608416Y-80459252D02*
G01*
X186682876Y-80478086D01*
X186728113Y-80498414D01*
X186763812Y-80522735D01*
X186791442Y-80550931D01*
X186813248Y-80584138D01*
X186831377Y-80625109D01*
X186845420Y-80675251D01*
X186725191Y-80690882D01*
X186708128Y-80641754D01*
X186687581Y-80607333D01*
X186664070Y-80584270D01*
X186634801Y-80568742D01*
X186593378Y-80558145D01*
X186535964Y-80554106D01*
X186475353Y-80559446D01*
X186429850Y-80573832D01*
X186395952Y-80595811D01*
X186377834Y-80618884D01*
X186365717Y-80652858D01*
X186361086Y-80701751D01*
X186361819Y-80733869D01*
X186442306Y-80754888D01*
X186581088Y-80776245D01*
X186690387Y-80794685D01*
X186737463Y-80811742D01*
X186778864Y-80834986D01*
X186814141Y-80865719D01*
X186842367Y-80905694D01*
X186860461Y-80951678D01*
X186866608Y-81002964D01*
X186862437Y-81047186D01*
X186850372Y-81086161D01*
X186830559Y-81120945D01*
X186802433Y-81152257D01*
X186768946Y-81176608D01*
X186728204Y-81194785D01*
X186678723Y-81206442D01*
X186618640Y-81210631D01*
X186547952Y-81204576D01*
X186483025Y-81186817D01*
X186420966Y-81155971D01*
X186351561Y-81105118D01*
X186342368Y-81154389D01*
X186326953Y-81195000D01*
X186198543Y-81195000D01*
X186217971Y-81151562D01*
X186229623Y-81106523D01*
X186234836Y-81045116D01*
X186237438Y-80889269D01*
X186237438Y-80876079D01*
X186361819Y-80876079D01*
X186367538Y-80951088D01*
X186381603Y-80997468D01*
X186401978Y-81030293D01*
X186428813Y-81058288D01*
X186462875Y-81081854D01*
X186500846Y-81098894D01*
X186542711Y-81109333D01*
X186589270Y-81112934D01*
X186636080Y-81108806D01*
X186671550Y-81097639D01*
X186698264Y-81080511D01*
X186719073Y-81056819D01*
X186731280Y-81030111D01*
X186735450Y-80999300D01*
X186731166Y-80968855D01*
X186718414Y-80941475D01*
X186698028Y-80918810D01*
X186669931Y-80901908D01*
X186632721Y-80890284D01*
X186562648Y-80877545D01*
X186437512Y-80854722D01*
X186361819Y-80831566D01*
X186361819Y-80876079D01*
X186237438Y-80876079D01*
X186237438Y-80725687D01*
X186239354Y-80650214D01*
X186243606Y-80612602D01*
X186259089Y-80565549D01*
X186281891Y-80529132D01*
X186314833Y-80500239D01*
X186367254Y-80474300D01*
X186430014Y-80458549D01*
X186518196Y-80452501D01*
X186608416Y-80459252D01*
G37*
G36*
X186047295Y-81195000D02*
G01*
X186047295Y-80468133D01*
X185936592Y-80468133D01*
X185936592Y-80571264D01*
X185901460Y-80528187D01*
X185861598Y-80495461D01*
X185816440Y-80472022D01*
X185764953Y-80457551D01*
X185705722Y-80452501D01*
X185642120Y-80458543D01*
X185585188Y-80476132D01*
X185535843Y-80504335D01*
X185502878Y-80537986D01*
X185479946Y-80579110D01*
X185464593Y-80628906D01*
X185459860Y-80669494D01*
X185457754Y-80748524D01*
X185457754Y-81195000D01*
X185580730Y-81195000D01*
X185580730Y-80752554D01*
X185584942Y-80682076D01*
X185595080Y-80639897D01*
X185614771Y-80606565D01*
X185646004Y-80580301D01*
X185684935Y-80563781D01*
X185731673Y-80558014D01*
X185782181Y-80563691D01*
X185826925Y-80580267D01*
X185867288Y-80608023D01*
X185889802Y-80634652D01*
X185907585Y-80672702D01*
X185919719Y-80725619D01*
X185924319Y-80797739D01*
X185924319Y-81195000D01*
X186047295Y-81195000D01*
G37*
G36*
X185268893Y-81195000D02*
G01*
X185268893Y-80190673D01*
X185145978Y-80190673D01*
X185145978Y-80762690D01*
X184854963Y-80468133D01*
X184695778Y-80468133D01*
X184973115Y-80738143D01*
X184667751Y-81195000D01*
X184819426Y-81195000D01*
X185059211Y-80823384D01*
X185145978Y-80906854D01*
X185145978Y-81195000D01*
X185268893Y-81195000D01*
G37*
G36*
X184619269Y-80976158D02*
G01*
X184497697Y-80960526D01*
X184486249Y-81006187D01*
X184467184Y-81042313D01*
X184440666Y-81070741D01*
X184407375Y-81091105D01*
X184364622Y-81104232D01*
X184309813Y-81109026D01*
X184254220Y-81104520D01*
X184213519Y-81092557D01*
X184184150Y-81074649D01*
X184160761Y-81049568D01*
X184147511Y-81023005D01*
X184143117Y-80993988D01*
X184147154Y-80968233D01*
X184158936Y-80946836D01*
X184179326Y-80928653D01*
X184214308Y-80913184D01*
X184305050Y-80887131D01*
X184429431Y-80852095D01*
X184492568Y-80828025D01*
X184539084Y-80797791D01*
X184571824Y-80759026D01*
X184592015Y-80712820D01*
X184598813Y-80661634D01*
X184593225Y-80614703D01*
X184576648Y-80571753D01*
X184550417Y-80533921D01*
X184516137Y-80503060D01*
X184484132Y-80484384D01*
X184437918Y-80467217D01*
X184387205Y-80456265D01*
X184331673Y-80452501D01*
X184249498Y-80458973D01*
X184181769Y-80477048D01*
X184140629Y-80496402D01*
X184109426Y-80518613D01*
X184086453Y-80543543D01*
X184061339Y-80590295D01*
X184044077Y-80655711D01*
X184164305Y-80671343D01*
X184173521Y-80636445D01*
X184189316Y-80608114D01*
X184211810Y-80585125D01*
X184239655Y-80568710D01*
X184275885Y-80558032D01*
X184322819Y-80554106D01*
X184379050Y-80557957D01*
X184417827Y-80567856D01*
X184443719Y-80582011D01*
X184464528Y-80602577D01*
X184476123Y-80624079D01*
X184479928Y-80647346D01*
X184476190Y-80669919D01*
X184464907Y-80690211D01*
X184446625Y-80707514D01*
X184417768Y-80722817D01*
X184309141Y-80754141D01*
X184188925Y-80788851D01*
X184127119Y-80811233D01*
X184080650Y-80838794D01*
X184046153Y-80875774D01*
X184030232Y-80905318D01*
X184020292Y-80940013D01*
X184016782Y-80981043D01*
X184020721Y-81020987D01*
X184032539Y-81059373D01*
X184052686Y-81096875D01*
X184079552Y-81129775D01*
X184113693Y-81157727D01*
X184156184Y-81180894D01*
X184202126Y-81197117D01*
X184252854Y-81207156D01*
X184309141Y-81210631D01*
X184380980Y-81206273D01*
X184439370Y-81194255D01*
X184486628Y-81175789D01*
X184524685Y-81151524D01*
X184557340Y-81119615D01*
X184584016Y-81080568D01*
X184604799Y-81033258D01*
X184619269Y-80976158D01*
G37*
G36*
X183836409Y-80604909D02*
G01*
X183836409Y-80468133D01*
X183696397Y-80468133D01*
X183696397Y-80604909D01*
X183836409Y-80604909D01*
G37*
G36*
X183836409Y-81195000D02*
G01*
X183836409Y-81058224D01*
X183696397Y-81058224D01*
X183696397Y-81195000D01*
X183836409Y-81195000D01*
G37*
G36*
X193396135Y-82875000D02*
G01*
X193396135Y-81870673D01*
X193196711Y-81870673D01*
X192959673Y-82579771D01*
X192911863Y-82727965D01*
X192858557Y-82567437D01*
X192618771Y-81870673D01*
X192440474Y-81870673D01*
X192440474Y-82875000D01*
X192568213Y-82875000D01*
X192568213Y-82034804D01*
X192859228Y-82875000D01*
X192978785Y-82875000D01*
X193268396Y-82023080D01*
X193268396Y-82875000D01*
X193396135Y-82875000D01*
G37*
G36*
X192241538Y-82007449D02*
G01*
X192241538Y-81870673D01*
X192118623Y-81870673D01*
X192118623Y-82007449D01*
X192241538Y-82007449D01*
G37*
G36*
X192241538Y-82875000D02*
G01*
X192241538Y-82148133D01*
X192118623Y-82148133D01*
X192118623Y-82875000D01*
X192241538Y-82875000D01*
G37*
G36*
X191930861Y-82875000D02*
G01*
X191930861Y-81870673D01*
X191807946Y-81870673D01*
X191807946Y-82442690D01*
X191516931Y-82148133D01*
X191357745Y-82148133D01*
X191635083Y-82418143D01*
X191329719Y-82875000D01*
X191481393Y-82875000D01*
X191721179Y-82503384D01*
X191807946Y-82586854D01*
X191807946Y-82875000D01*
X191930861Y-82875000D01*
G37*
G36*
X191007687Y-82139164D02*
G01*
X191071826Y-82158332D01*
X191128437Y-82189589D01*
X191178777Y-82233618D01*
X191218396Y-82286506D01*
X191247720Y-82349980D01*
X191266385Y-82426156D01*
X191273054Y-82517733D01*
X191266487Y-82606071D01*
X191248080Y-82679701D01*
X191219095Y-82741215D01*
X191179815Y-82792629D01*
X191130234Y-82834723D01*
X191072763Y-82865078D01*
X191005856Y-82883980D01*
X190927390Y-82890631D01*
X190864267Y-82886412D01*
X190809423Y-82874400D01*
X190761588Y-82855245D01*
X190719722Y-82829143D01*
X190671920Y-82783441D01*
X190634859Y-82726473D01*
X190608347Y-82656158D01*
X190735415Y-82640526D01*
X190757690Y-82690137D01*
X190783046Y-82727050D01*
X190811252Y-82753611D01*
X190844685Y-82773004D01*
X190882789Y-82784889D01*
X190926718Y-82789026D01*
X190984592Y-82781815D01*
X191034499Y-82760864D01*
X191078393Y-82725645D01*
X191104165Y-82692428D01*
X191124287Y-82651877D01*
X191138490Y-82602595D01*
X191145987Y-82542829D01*
X190604989Y-82542829D01*
X190604256Y-82510040D01*
X190609260Y-82441224D01*
X190734071Y-82441224D01*
X191139148Y-82441224D01*
X191128802Y-82380763D01*
X191107417Y-82331243D01*
X191075279Y-82290465D01*
X191033934Y-82259228D01*
X190987028Y-82240545D01*
X190932824Y-82234106D01*
X190887559Y-82238662D01*
X190847800Y-82251852D01*
X190812378Y-82273615D01*
X190780539Y-82304754D01*
X190759727Y-82337262D01*
X190743853Y-82381658D01*
X190734071Y-82441224D01*
X190609260Y-82441224D01*
X190610787Y-82420218D01*
X190629059Y-82345534D01*
X190657758Y-82283336D01*
X190696519Y-82231542D01*
X190745771Y-82188339D01*
X190800925Y-82157732D01*
X190863175Y-82139001D01*
X190934228Y-82132501D01*
X191007687Y-82139164D01*
G37*
G36*
X190042986Y-82875000D02*
G01*
X190042986Y-81870673D01*
X189367411Y-81870673D01*
X189367411Y-81987909D01*
X189910484Y-81987909D01*
X189910484Y-82300540D01*
X189440500Y-82300540D01*
X189440500Y-82417777D01*
X189910484Y-82417777D01*
X189910484Y-82875000D01*
X190042986Y-82875000D01*
G37*
G36*
X189209996Y-82007449D02*
G01*
X189209996Y-81870673D01*
X189087081Y-81870673D01*
X189087081Y-82007449D01*
X189209996Y-82007449D01*
G37*
G36*
X189209996Y-82875000D02*
G01*
X189209996Y-82148133D01*
X189087081Y-82148133D01*
X189087081Y-82875000D01*
X189209996Y-82875000D01*
G37*
G36*
X188899319Y-82875000D02*
G01*
X188899319Y-81870673D01*
X188776404Y-81870673D01*
X188776404Y-82442690D01*
X188485389Y-82148133D01*
X188326203Y-82148133D01*
X188603541Y-82418143D01*
X188298176Y-82875000D01*
X188449851Y-82875000D01*
X188689637Y-82503384D01*
X188776404Y-82586854D01*
X188776404Y-82875000D01*
X188899319Y-82875000D01*
G37*
G36*
X187976145Y-82139164D02*
G01*
X188040284Y-82158332D01*
X188096895Y-82189589D01*
X188147234Y-82233618D01*
X188186854Y-82286506D01*
X188216178Y-82349980D01*
X188234843Y-82426156D01*
X188241512Y-82517733D01*
X188234945Y-82606071D01*
X188216538Y-82679701D01*
X188187553Y-82741215D01*
X188148272Y-82792629D01*
X188098692Y-82834723D01*
X188041221Y-82865078D01*
X187974314Y-82883980D01*
X187895847Y-82890631D01*
X187832725Y-82886412D01*
X187777881Y-82874400D01*
X187730045Y-82855245D01*
X187688180Y-82829143D01*
X187640378Y-82783441D01*
X187603317Y-82726473D01*
X187576805Y-82656158D01*
X187703872Y-82640526D01*
X187726148Y-82690137D01*
X187751504Y-82727050D01*
X187779710Y-82753611D01*
X187813142Y-82773004D01*
X187851247Y-82784889D01*
X187895176Y-82789026D01*
X187953050Y-82781815D01*
X188002956Y-82760864D01*
X188046851Y-82725645D01*
X188072622Y-82692428D01*
X188092744Y-82651877D01*
X188106948Y-82602595D01*
X188114445Y-82542829D01*
X187573447Y-82542829D01*
X187572714Y-82510040D01*
X187577718Y-82441224D01*
X187702529Y-82441224D01*
X188107606Y-82441224D01*
X188097260Y-82380763D01*
X188075875Y-82331243D01*
X188043736Y-82290465D01*
X188002392Y-82259228D01*
X187955486Y-82240545D01*
X187901282Y-82234106D01*
X187856017Y-82238662D01*
X187816258Y-82251852D01*
X187780836Y-82273615D01*
X187748996Y-82304754D01*
X187728185Y-82337262D01*
X187712310Y-82381658D01*
X187702529Y-82441224D01*
X187577718Y-82441224D01*
X187579245Y-82420218D01*
X187597517Y-82345534D01*
X187626216Y-82283336D01*
X187664977Y-82231542D01*
X187714229Y-82188339D01*
X187769383Y-82157732D01*
X187831632Y-82139001D01*
X187902686Y-82132501D01*
X187976145Y-82139164D01*
G37*
G36*
X187472025Y-82656158D02*
G01*
X187350453Y-82640526D01*
X187339005Y-82686187D01*
X187319941Y-82722313D01*
X187293422Y-82750741D01*
X187260131Y-82771105D01*
X187217378Y-82784232D01*
X187162569Y-82789026D01*
X187106977Y-82784520D01*
X187066275Y-82772557D01*
X187036906Y-82754649D01*
X187013518Y-82729568D01*
X187000268Y-82703005D01*
X186995874Y-82673988D01*
X186999911Y-82648233D01*
X187011692Y-82626836D01*
X187032083Y-82608653D01*
X187067064Y-82593184D01*
X187157807Y-82567131D01*
X187282187Y-82532095D01*
X187345324Y-82508025D01*
X187391840Y-82477791D01*
X187424581Y-82439026D01*
X187444771Y-82392820D01*
X187451570Y-82341634D01*
X187445982Y-82294703D01*
X187429405Y-82251753D01*
X187403173Y-82213921D01*
X187368893Y-82183060D01*
X187336888Y-82164384D01*
X187290675Y-82147217D01*
X187239961Y-82136265D01*
X187184429Y-82132501D01*
X187102255Y-82138973D01*
X187034525Y-82157048D01*
X186993385Y-82176402D01*
X186962182Y-82198613D01*
X186939209Y-82223543D01*
X186914096Y-82270295D01*
X186896833Y-82335711D01*
X187017062Y-82351343D01*
X187026277Y-82316445D01*
X187042072Y-82288114D01*
X187064567Y-82265125D01*
X187092411Y-82248710D01*
X187128641Y-82238032D01*
X187175575Y-82234106D01*
X187231806Y-82237957D01*
X187270584Y-82247856D01*
X187296475Y-82262011D01*
X187317284Y-82282577D01*
X187328879Y-82304079D01*
X187332684Y-82327346D01*
X187328947Y-82349919D01*
X187317663Y-82370211D01*
X187299381Y-82387514D01*
X187270525Y-82402817D01*
X187161898Y-82434141D01*
X187041682Y-82468851D01*
X186979876Y-82491233D01*
X186933407Y-82518794D01*
X186898909Y-82555774D01*
X186882989Y-82585318D01*
X186873049Y-82620013D01*
X186869539Y-82661043D01*
X186873477Y-82700987D01*
X186885295Y-82739373D01*
X186905443Y-82776875D01*
X186932309Y-82809775D01*
X186966450Y-82837727D01*
X187008941Y-82860894D01*
X187054882Y-82877117D01*
X187105610Y-82887156D01*
X187161898Y-82890631D01*
X187233736Y-82886273D01*
X187292126Y-82874255D01*
X187339385Y-82855789D01*
X187377442Y-82831524D01*
X187410097Y-82799615D01*
X187436772Y-82760568D01*
X187457555Y-82713258D01*
X187472025Y-82656158D01*
G37*
G36*
X193502076Y-84555000D02*
G01*
X193361331Y-84555000D01*
X193251360Y-84250184D01*
X192832606Y-84250184D01*
X192715797Y-84555000D01*
X192564794Y-84555000D01*
X192733858Y-84140764D01*
X192873578Y-84140764D01*
X193213075Y-84140764D01*
X193103105Y-83849687D01*
X193072120Y-83753354D01*
X193049127Y-83656186D01*
X193021743Y-83743990D01*
X192978114Y-83865502D01*
X192873578Y-84140764D01*
X192733858Y-84140764D01*
X192974694Y-83550673D01*
X193117454Y-83550673D01*
X193502076Y-84555000D01*
G37*
G36*
X191999310Y-84555000D02*
G01*
X191999310Y-84448021D01*
X192036562Y-84493111D01*
X192077553Y-84527001D01*
X192122736Y-84550974D01*
X192172983Y-84565587D01*
X192229509Y-84570631D01*
X192292000Y-84564399D01*
X192349433Y-84546024D01*
X192399373Y-84517142D01*
X192432048Y-84484169D01*
X192454594Y-84443716D01*
X192469966Y-84392883D01*
X192475231Y-84351321D01*
X192477477Y-84278028D01*
X192477477Y-83828133D01*
X192354562Y-83828133D01*
X192354562Y-84231133D01*
X192352182Y-84319801D01*
X192347051Y-84361132D01*
X192336219Y-84391619D01*
X192319918Y-84416759D01*
X192297897Y-84437397D01*
X192271571Y-84452491D01*
X192240937Y-84461836D01*
X192204963Y-84465118D01*
X192151451Y-84458047D01*
X192101160Y-84436725D01*
X192071585Y-84415184D01*
X192048929Y-84389570D01*
X192032466Y-84359422D01*
X192018137Y-84304734D01*
X192012316Y-84217456D01*
X192012316Y-83828133D01*
X191889340Y-83828133D01*
X191889340Y-84555000D01*
X191999310Y-84555000D01*
G37*
G36*
X191428637Y-84443014D02*
G01*
X191410868Y-84551641D01*
X191461625Y-84560210D01*
X191503742Y-84562815D01*
X191566293Y-84556863D01*
X191607606Y-84541627D01*
X191639419Y-84516621D01*
X191659508Y-84485818D01*
X191669678Y-84441710D01*
X191674528Y-84340310D01*
X191674528Y-83921922D01*
X191764715Y-83921922D01*
X191764715Y-83828133D01*
X191674528Y-83828133D01*
X191674528Y-83648492D01*
X191552285Y-83574670D01*
X191552285Y-83828133D01*
X191428637Y-83828133D01*
X191428637Y-83921922D01*
X191552285Y-83921922D01*
X191552285Y-84345317D01*
X191550159Y-84393197D01*
X191545812Y-84412850D01*
X191537307Y-84426263D01*
X191524624Y-84436725D01*
X191508041Y-84443085D01*
X191482615Y-84445579D01*
X191428637Y-84443014D01*
G37*
G36*
X191080081Y-83817786D02*
G01*
X191139421Y-83833096D01*
X191193077Y-83858095D01*
X191241974Y-83893101D01*
X191280526Y-83933746D01*
X191311211Y-83982404D01*
X191334143Y-84040370D01*
X191348792Y-84109388D01*
X191354021Y-84191566D01*
X191347312Y-84283636D01*
X191328627Y-84359385D01*
X191299417Y-84421741D01*
X191260109Y-84472995D01*
X191210178Y-84515253D01*
X191153465Y-84545471D01*
X191088639Y-84564120D01*
X191013852Y-84570631D01*
X190951706Y-84565619D01*
X190893599Y-84550834D01*
X190838668Y-84526240D01*
X190789157Y-84492467D01*
X190748659Y-84451165D01*
X190716364Y-84401615D01*
X190694435Y-84346368D01*
X190679787Y-84274290D01*
X190674693Y-84187109D01*
X190800689Y-84187109D01*
X190805242Y-84259731D01*
X190817697Y-84317597D01*
X190836686Y-84363417D01*
X190861505Y-84399417D01*
X190894293Y-84430221D01*
X190930098Y-84451668D01*
X190969604Y-84464592D01*
X191013852Y-84469026D01*
X191058477Y-84464598D01*
X191098212Y-84451713D01*
X191134110Y-84430371D01*
X191166870Y-84399783D01*
X191191795Y-84363897D01*
X191210775Y-84318634D01*
X191223170Y-84261915D01*
X191227686Y-84191200D01*
X191223165Y-84120504D01*
X191210763Y-84063878D01*
X191191784Y-84018756D01*
X191166870Y-83983044D01*
X191134129Y-83952605D01*
X191098237Y-83931354D01*
X191058495Y-83918518D01*
X191013852Y-83914106D01*
X190969944Y-83918508D01*
X190930595Y-83931356D01*
X190894794Y-83952709D01*
X190861871Y-83983410D01*
X190836615Y-84019338D01*
X190817536Y-84063955D01*
X190805169Y-84119117D01*
X190800689Y-84187109D01*
X190674693Y-84187109D01*
X190674354Y-84181308D01*
X190680964Y-84095327D01*
X190699577Y-84023052D01*
X190729067Y-83962062D01*
X190769303Y-83910504D01*
X190819779Y-83867909D01*
X190876459Y-83837590D01*
X190940575Y-83818973D01*
X191013852Y-83812501D01*
X191080081Y-83817786D01*
G37*
G36*
X190516268Y-84555000D02*
G01*
X190516268Y-83550673D01*
X190380286Y-83550673D01*
X189854309Y-84339333D01*
X189854309Y-83550673D01*
X189727241Y-83550673D01*
X189727241Y-84555000D01*
X189863162Y-84555000D01*
X190389200Y-83766217D01*
X190389200Y-84555000D01*
X190516268Y-84555000D01*
G37*
G36*
X189303880Y-83819252D02*
G01*
X189378340Y-83838086D01*
X189423577Y-83858414D01*
X189459276Y-83882735D01*
X189486906Y-83910931D01*
X189508712Y-83944138D01*
X189526841Y-83985109D01*
X189540884Y-84035251D01*
X189420655Y-84050882D01*
X189403592Y-84001754D01*
X189383045Y-83967333D01*
X189359534Y-83944270D01*
X189330266Y-83928742D01*
X189288842Y-83918145D01*
X189231428Y-83914106D01*
X189170817Y-83919446D01*
X189125314Y-83933832D01*
X189091416Y-83955811D01*
X189073298Y-83978884D01*
X189061182Y-84012858D01*
X189056550Y-84061751D01*
X189057283Y-84093869D01*
X189137770Y-84114888D01*
X189276552Y-84136245D01*
X189385851Y-84154685D01*
X189432927Y-84171742D01*
X189474328Y-84194986D01*
X189509605Y-84225719D01*
X189537831Y-84265694D01*
X189555925Y-84311678D01*
X189562072Y-84362964D01*
X189557901Y-84407186D01*
X189545836Y-84446161D01*
X189526023Y-84480945D01*
X189497897Y-84512257D01*
X189464410Y-84536608D01*
X189423668Y-84554785D01*
X189374187Y-84566442D01*
X189314105Y-84570631D01*
X189243416Y-84564576D01*
X189178489Y-84546817D01*
X189116430Y-84515971D01*
X189047025Y-84465118D01*
X189037832Y-84514389D01*
X189022418Y-84555000D01*
X188894007Y-84555000D01*
X188913435Y-84511562D01*
X188925087Y-84466523D01*
X188930300Y-84405116D01*
X188932903Y-84249269D01*
X188932903Y-84236079D01*
X189057283Y-84236079D01*
X189063002Y-84311088D01*
X189077067Y-84357468D01*
X189097442Y-84390293D01*
X189124277Y-84418288D01*
X189158339Y-84441854D01*
X189196310Y-84458894D01*
X189238175Y-84469333D01*
X189284734Y-84472934D01*
X189331544Y-84468806D01*
X189367014Y-84457639D01*
X189393728Y-84440511D01*
X189414537Y-84416819D01*
X189426744Y-84390111D01*
X189430914Y-84359300D01*
X189426630Y-84328855D01*
X189413878Y-84301475D01*
X189393492Y-84278810D01*
X189365396Y-84261908D01*
X189328185Y-84250284D01*
X189258112Y-84237545D01*
X189132976Y-84214722D01*
X189057283Y-84191566D01*
X189057283Y-84236079D01*
X188932903Y-84236079D01*
X188932903Y-84085687D01*
X188934818Y-84010214D01*
X188939070Y-83972602D01*
X188954553Y-83925549D01*
X188977355Y-83889132D01*
X189010297Y-83860239D01*
X189062718Y-83834300D01*
X189125478Y-83818549D01*
X189213660Y-83812501D01*
X189303880Y-83819252D01*
G37*
G36*
X188541198Y-84555000D02*
G01*
X188817192Y-83828133D01*
X188687377Y-83828133D01*
X188531673Y-84263435D01*
X188485205Y-84409919D01*
X188439410Y-84271678D01*
X188278210Y-83828133D01*
X188151814Y-83828133D01*
X188426465Y-84555000D01*
X188541198Y-84555000D01*
G37*
G36*
X187409255Y-84555000D02*
G01*
X187409255Y-83667909D01*
X187739227Y-83667909D01*
X187739227Y-83550673D01*
X186945437Y-83550673D01*
X186945437Y-83667909D01*
X187276753Y-83667909D01*
X187276753Y-84555000D01*
X187409255Y-84555000D01*
G37*
G36*
X186755908Y-83819164D02*
G01*
X186820047Y-83838332D01*
X186876658Y-83869589D01*
X186926997Y-83913618D01*
X186966617Y-83966506D01*
X186995941Y-84029980D01*
X187014605Y-84106156D01*
X187021275Y-84197733D01*
X187014707Y-84286071D01*
X186996301Y-84359701D01*
X186967315Y-84421215D01*
X186928035Y-84472629D01*
X186878455Y-84514723D01*
X186820984Y-84545078D01*
X186754076Y-84563980D01*
X186675610Y-84570631D01*
X186612488Y-84566412D01*
X186557644Y-84554400D01*
X186509808Y-84535245D01*
X186467943Y-84509143D01*
X186420141Y-84463441D01*
X186383079Y-84406473D01*
X186356568Y-84336158D01*
X186483635Y-84320526D01*
X186505911Y-84370137D01*
X186531266Y-84407050D01*
X186559473Y-84433611D01*
X186592905Y-84453004D01*
X186631010Y-84464889D01*
X186674938Y-84469026D01*
X186732813Y-84461815D01*
X186782719Y-84440864D01*
X186826613Y-84405645D01*
X186852385Y-84372428D01*
X186872507Y-84331877D01*
X186886710Y-84282595D01*
X186894207Y-84222829D01*
X186353210Y-84222829D01*
X186352477Y-84190040D01*
X186357481Y-84121224D01*
X186482292Y-84121224D01*
X186887369Y-84121224D01*
X186877023Y-84060763D01*
X186855637Y-84011243D01*
X186823499Y-83970465D01*
X186782154Y-83939228D01*
X186735249Y-83920545D01*
X186681045Y-83914106D01*
X186635780Y-83918662D01*
X186596020Y-83931852D01*
X186560598Y-83953615D01*
X186528759Y-83984754D01*
X186507948Y-84017262D01*
X186492073Y-84061658D01*
X186482292Y-84121224D01*
X186357481Y-84121224D01*
X186359008Y-84100218D01*
X186377280Y-84025534D01*
X186405978Y-83963336D01*
X186444740Y-83911542D01*
X186493991Y-83868339D01*
X186549146Y-83837732D01*
X186611395Y-83819001D01*
X186682449Y-83812501D01*
X186755908Y-83819164D01*
G37*
G36*
X185986085Y-83819252D02*
G01*
X186060546Y-83838086D01*
X186105782Y-83858414D01*
X186141481Y-83882735D01*
X186169112Y-83910931D01*
X186190918Y-83944138D01*
X186209047Y-83985109D01*
X186223089Y-84035251D01*
X186102861Y-84050882D01*
X186085797Y-84001754D01*
X186065250Y-83967333D01*
X186041739Y-83944270D01*
X186012471Y-83928742D01*
X185971047Y-83918145D01*
X185913633Y-83914106D01*
X185853022Y-83919446D01*
X185807519Y-83933832D01*
X185773621Y-83955811D01*
X185755503Y-83978884D01*
X185743387Y-84012858D01*
X185738756Y-84061751D01*
X185739488Y-84093869D01*
X185819975Y-84114888D01*
X185958757Y-84136245D01*
X186068056Y-84154685D01*
X186115132Y-84171742D01*
X186156533Y-84194986D01*
X186191811Y-84225719D01*
X186220036Y-84265694D01*
X186238131Y-84311678D01*
X186244277Y-84362964D01*
X186240106Y-84407186D01*
X186228041Y-84446161D01*
X186208228Y-84480945D01*
X186180102Y-84512257D01*
X186146615Y-84536608D01*
X186105873Y-84554785D01*
X186056392Y-84566442D01*
X185996310Y-84570631D01*
X185925621Y-84564576D01*
X185860694Y-84546817D01*
X185798636Y-84515971D01*
X185729230Y-84465118D01*
X185720037Y-84514389D01*
X185704623Y-84555000D01*
X185576212Y-84555000D01*
X185595640Y-84511562D01*
X185607292Y-84466523D01*
X185612506Y-84405116D01*
X185615108Y-84249269D01*
X185615108Y-84236079D01*
X185739488Y-84236079D01*
X185745207Y-84311088D01*
X185759272Y-84357468D01*
X185779647Y-84390293D01*
X185806483Y-84418288D01*
X185840544Y-84441854D01*
X185878516Y-84458894D01*
X185920380Y-84469333D01*
X185966939Y-84472934D01*
X186013749Y-84468806D01*
X186049219Y-84457639D01*
X186075933Y-84440511D01*
X186096743Y-84416819D01*
X186108949Y-84390111D01*
X186113119Y-84359300D01*
X186108836Y-84328855D01*
X186096083Y-84301475D01*
X186075697Y-84278810D01*
X186047601Y-84261908D01*
X186010391Y-84250284D01*
X185940317Y-84237545D01*
X185815181Y-84214722D01*
X185739488Y-84191566D01*
X185739488Y-84236079D01*
X185615108Y-84236079D01*
X185615108Y-84085687D01*
X185617024Y-84010214D01*
X185621275Y-83972602D01*
X185636758Y-83925549D01*
X185659560Y-83889132D01*
X185692502Y-83860239D01*
X185744923Y-83834300D01*
X185807683Y-83818549D01*
X185895865Y-83812501D01*
X185986085Y-83819252D01*
G37*
G36*
X185424965Y-84555000D02*
G01*
X185424965Y-83828133D01*
X185314933Y-83828133D01*
X185314933Y-83929677D01*
X185275365Y-83882204D01*
X185224136Y-83844680D01*
X185185189Y-83827016D01*
X185142410Y-83816219D01*
X185094993Y-83812501D01*
X185042136Y-83816570D01*
X184998670Y-83827915D01*
X184962857Y-83845718D01*
X184931873Y-83870765D01*
X184907769Y-83901448D01*
X184890073Y-83938592D01*
X184851972Y-83891553D01*
X184811070Y-83856616D01*
X184767000Y-83832217D01*
X184719001Y-83817525D01*
X184665980Y-83812501D01*
X184612259Y-83816710D01*
X184567745Y-83828492D01*
X184530756Y-83847067D01*
X184500017Y-83872341D01*
X184476145Y-83903648D01*
X184458055Y-83943419D01*
X184446254Y-83993583D01*
X184441948Y-84056561D01*
X184441948Y-84555000D01*
X184564192Y-84555000D01*
X184564192Y-84096800D01*
X184567803Y-84028028D01*
X184576160Y-83990310D01*
X184592806Y-83961171D01*
X184619574Y-83937920D01*
X184653102Y-83923155D01*
X184693335Y-83918014D01*
X184742209Y-83923876D01*
X184784010Y-83940815D01*
X184820403Y-83969061D01*
X184846806Y-84006401D01*
X184864340Y-84059120D01*
X184870961Y-84132398D01*
X184870961Y-84555000D01*
X184993876Y-84555000D01*
X184993876Y-84082390D01*
X184997839Y-84028158D01*
X185008354Y-83988158D01*
X185023979Y-83959108D01*
X185047003Y-83937093D01*
X185078770Y-83923157D01*
X185122287Y-83918014D01*
X185172286Y-83924870D01*
X185218335Y-83945430D01*
X185244755Y-83966248D01*
X185265952Y-83992662D01*
X185282205Y-84025542D01*
X185296273Y-84084297D01*
X185301988Y-84177583D01*
X185301988Y-84555000D01*
X185424965Y-84555000D01*
G37*
M02*
