M48
; DRILL file {KiCad 9.0.6} date 2026-02-18T23:14:11-0500
; FORMAT={-:-/ absolute / metric / decimal}
; #@! TF.CreationDate,2026-02-18T23:14:11-05:00
; #@! TF.GenerationSoftware,Kicad,Pcbnew,9.0.6
; #@! TF.FileFunction,Plated,1,2,PTH
FMAT,2
METRIC
; #@! TA.AperFunction,Plated,PTH,ViaDrill
T1C0.300
; #@! TA.AperFunction,Plated,PTH,ComponentDrill
T2C0.600
; #@! TA.AperFunction,Plated,PTH,ComponentDrill
T3C1.397
; #@! TA.AperFunction,Plated,PTH,ComponentDrill
T4C3.600
%
G90
G05
T1
X133.25Y-94.25
X135.5Y-105.75
X136.0Y-104.5
X138.5Y-86.5
X138.5Y-93.25
X140.0Y-99.0
X141.25Y-84.75
X141.4Y-101.0
X142.25Y-94.25
X143.0Y-103.201
X143.65Y-109.5
X144.0Y-91.75
X145.275Y-91.0
X145.343Y-112.657
X145.525Y-104.0
X147.4Y-105.5
X148.375Y-101.875
X152.25Y-95.5
X152.25Y-98.0
X153.0Y-91.9
X153.208Y-88.208
X155.75Y-84.5
X156.5Y-109.5
X156.75Y-71.5
X157.75Y-71.5
X158.75Y-71.5
X160.0Y-95.0
X160.0Y-96.5
X160.373Y-85.644
X160.5Y-88.501
X163.353Y-87.352
X166.0Y-97.0
X166.562Y-87.562
X169.0Y-88.0
X169.5Y-90.4
X171.0Y-89.5
X172.5Y-92.0
X179.7Y-92.75
T2
X133.025Y-120.0
X133.213Y-119.053
X133.213Y-120.947
X133.75Y-118.25
X133.75Y-121.75
X134.553Y-117.713
X134.553Y-122.287
X135.5Y-117.525
X135.5Y-122.475
X136.447Y-117.713
X136.447Y-122.287
X137.25Y-118.25
X137.25Y-121.75
X137.787Y-119.053
X137.787Y-120.947
X137.975Y-120.0
X141.025Y-65.0
X141.213Y-64.053
X141.213Y-65.947
X141.75Y-63.25
X141.75Y-66.75
X142.553Y-62.713
X142.553Y-67.287
X143.5Y-62.525
X143.5Y-67.475
X144.447Y-62.713
X144.447Y-67.287
X145.25Y-63.25
X145.25Y-66.75
X145.787Y-64.053
X145.787Y-65.947
X145.975Y-65.0
X187.025Y-66.0
X187.213Y-65.053
X187.213Y-66.947
X187.75Y-64.25
X187.75Y-67.75
X188.025Y-112.0
X188.213Y-111.053
X188.213Y-112.947
X188.553Y-63.713
X188.553Y-68.287
X188.75Y-110.25
X188.75Y-113.75
X189.5Y-63.525
X189.5Y-68.475
X189.553Y-109.713
X189.553Y-114.287
X190.447Y-63.713
X190.447Y-68.287
X190.5Y-109.525
X190.5Y-114.475
X191.25Y-64.25
X191.25Y-67.75
X191.447Y-109.713
X191.447Y-114.287
X191.787Y-65.053
X191.787Y-66.947
X191.975Y-66.0
X192.25Y-110.25
X192.25Y-113.75
X192.787Y-111.053
X192.787Y-112.947
X192.975Y-112.0
T3
X165.92Y-66.5
X171.0Y-66.5
X176.42Y-66.5
X181.5Y-66.5
T4
X135.5Y-120.0
X143.5Y-65.0
X189.5Y-66.0
X190.5Y-112.0
M30
